<?xml version="1.0" encoding="utf-8" standalone="no"?>
<!DOCTYPE svg PUBLIC "-//W3C//DTD SVG 1.1//EN"
  "http://www.w3.org/Graphics/SVG/1.1/DTD/svg11.dtd">
<svg xmlns:xlink="http://www.w3.org/1999/xlink" width="409.023125pt" height="325.986375pt" viewBox="0 0 409.023125 325.986375" xmlns="http://www.w3.org/2000/svg" version="1.1">
 <metadata>
  <rdf:RDF xmlns:dc="http://purl.org/dc/elements/1.1/" xmlns:cc="http://creativecommons.org/ns#" xmlns:rdf="http://www.w3.org/1999/02/22-rdf-syntax-ns#">
   <cc:Work>
    <dc:type rdf:resource="http://purl.org/dc/dcmitype/StillImage"/>
    <dc:date>2024-09-25T14:10:48.239019</dc:date>
    <dc:format>image/svg+xml</dc:format>
    <dc:creator>
     <cc:Agent>
      <dc:title>Matplotlib v3.8.2, https://matplotlib.org/</dc:title>
     </cc:Agent>
    </dc:creator>
   </cc:Work>
  </rdf:RDF>
 </metadata>
 <defs>
  <style type="text/css">*{stroke-linejoin: round; stroke-linecap: butt}</style>
 </defs>
 <g id="figure_1">
  <g id="patch_1">
   <path d="M 0 325.986375 
L 409.023125 325.986375 
L 409.023125 0 
L 0 0 
z
" style="fill: #ffffff"/>
  </g>
  <g id="axes_1">
   <g id="patch_2">
    <path d="M 44.703125 288.430125 
L 401.823125 288.430125 
L 401.823125 22.318125 
L 44.703125 22.318125 
z
" style="fill: #ffffff"/>
   </g>
   <g id="matplotlib.axis_1">
    <g id="xtick_1">
     <g id="line2d_1">
      <defs>
       <path id="mc9a7349a04" d="M 0 0 
L 0 3.5 
" style="stroke: #000000; stroke-width: 0.8"/>
      </defs>
      <g>
       <use xlink:href="#mc9a7349a04" x="60.935852" y="288.430125" style="stroke: #000000; stroke-width: 0.8"/>
      </g>
     </g>
     <g id="text_1">
      <!-- 0.2 -->
      <g transform="translate(52.98429 303.028562) scale(0.1 -0.1)">
       <defs>
        <path id="DejaVuSans-30" d="M 2034 4250 
Q 1547 4250 1301 3770 
Q 1056 3291 1056 2328 
Q 1056 1369 1301 889 
Q 1547 409 2034 409 
Q 2525 409 2770 889 
Q 3016 1369 3016 2328 
Q 3016 3291 2770 3770 
Q 2525 4250 2034 4250 
z
M 2034 4750 
Q 2819 4750 3233 4129 
Q 3647 3509 3647 2328 
Q 3647 1150 3233 529 
Q 2819 -91 2034 -91 
Q 1250 -91 836 529 
Q 422 1150 422 2328 
Q 422 3509 836 4129 
Q 1250 4750 2034 4750 
z
" transform="scale(0.015625)"/>
        <path id="DejaVuSans-2e" d="M 684 794 
L 1344 794 
L 1344 0 
L 684 0 
L 684 794 
z
" transform="scale(0.015625)"/>
        <path id="DejaVuSans-32" d="M 1228 531 
L 3431 531 
L 3431 0 
L 469 0 
L 469 531 
Q 828 903 1448 1529 
Q 2069 2156 2228 2338 
Q 2531 2678 2651 2914 
Q 2772 3150 2772 3378 
Q 2772 3750 2511 3984 
Q 2250 4219 1831 4219 
Q 1534 4219 1204 4116 
Q 875 4013 500 3803 
L 500 4441 
Q 881 4594 1212 4672 
Q 1544 4750 1819 4750 
Q 2544 4750 2975 4387 
Q 3406 4025 3406 3419 
Q 3406 3131 3298 2873 
Q 3191 2616 2906 2266 
Q 2828 2175 2409 1742 
Q 1991 1309 1228 531 
z
" transform="scale(0.015625)"/>
       </defs>
       <use xlink:href="#DejaVuSans-30"/>
       <use xlink:href="#DejaVuSans-2e" x="63.623047"/>
       <use xlink:href="#DejaVuSans-32" x="95.410156"/>
      </g>
     </g>
    </g>
    <g id="xtick_2">
     <g id="line2d_2">
      <g>
       <use xlink:href="#mc9a7349a04" x="138.465296" y="288.430125" style="stroke: #000000; stroke-width: 0.8"/>
      </g>
     </g>
     <g id="text_2">
      <!-- 0.4 -->
      <g transform="translate(130.513733 303.028562) scale(0.1 -0.1)">
       <defs>
        <path id="DejaVuSans-34" d="M 2419 4116 
L 825 1625 
L 2419 1625 
L 2419 4116 
z
M 2253 4666 
L 3047 4666 
L 3047 1625 
L 3713 1625 
L 3713 1100 
L 3047 1100 
L 3047 0 
L 2419 0 
L 2419 1100 
L 313 1100 
L 313 1709 
L 2253 4666 
z
" transform="scale(0.015625)"/>
       </defs>
       <use xlink:href="#DejaVuSans-30"/>
       <use xlink:href="#DejaVuSans-2e" x="63.623047"/>
       <use xlink:href="#DejaVuSans-34" x="95.410156"/>
      </g>
     </g>
    </g>
    <g id="xtick_3">
     <g id="line2d_3">
      <g>
       <use xlink:href="#mc9a7349a04" x="215.99474" y="288.430125" style="stroke: #000000; stroke-width: 0.8"/>
      </g>
     </g>
     <g id="text_3">
      <!-- 0.6 -->
      <g transform="translate(208.043177 303.028562) scale(0.1 -0.1)">
       <defs>
        <path id="DejaVuSans-36" d="M 2113 2584 
Q 1688 2584 1439 2293 
Q 1191 2003 1191 1497 
Q 1191 994 1439 701 
Q 1688 409 2113 409 
Q 2538 409 2786 701 
Q 3034 994 3034 1497 
Q 3034 2003 2786 2293 
Q 2538 2584 2113 2584 
z
M 3366 4563 
L 3366 3988 
Q 3128 4100 2886 4159 
Q 2644 4219 2406 4219 
Q 1781 4219 1451 3797 
Q 1122 3375 1075 2522 
Q 1259 2794 1537 2939 
Q 1816 3084 2150 3084 
Q 2853 3084 3261 2657 
Q 3669 2231 3669 1497 
Q 3669 778 3244 343 
Q 2819 -91 2113 -91 
Q 1303 -91 875 529 
Q 447 1150 447 2328 
Q 447 3434 972 4092 
Q 1497 4750 2381 4750 
Q 2619 4750 2861 4703 
Q 3103 4656 3366 4563 
z
" transform="scale(0.015625)"/>
       </defs>
       <use xlink:href="#DejaVuSans-30"/>
       <use xlink:href="#DejaVuSans-2e" x="63.623047"/>
       <use xlink:href="#DejaVuSans-36" x="95.410156"/>
      </g>
     </g>
    </g>
    <g id="xtick_4">
     <g id="line2d_4">
      <g>
       <use xlink:href="#mc9a7349a04" x="293.524183" y="288.430125" style="stroke: #000000; stroke-width: 0.8"/>
      </g>
     </g>
     <g id="text_4">
      <!-- 0.8 -->
      <g transform="translate(285.572621 303.028562) scale(0.1 -0.1)">
       <defs>
        <path id="DejaVuSans-38" d="M 2034 2216 
Q 1584 2216 1326 1975 
Q 1069 1734 1069 1313 
Q 1069 891 1326 650 
Q 1584 409 2034 409 
Q 2484 409 2743 651 
Q 3003 894 3003 1313 
Q 3003 1734 2745 1975 
Q 2488 2216 2034 2216 
z
M 1403 2484 
Q 997 2584 770 2862 
Q 544 3141 544 3541 
Q 544 4100 942 4425 
Q 1341 4750 2034 4750 
Q 2731 4750 3128 4425 
Q 3525 4100 3525 3541 
Q 3525 3141 3298 2862 
Q 3072 2584 2669 2484 
Q 3125 2378 3379 2068 
Q 3634 1759 3634 1313 
Q 3634 634 3220 271 
Q 2806 -91 2034 -91 
Q 1263 -91 848 271 
Q 434 634 434 1313 
Q 434 1759 690 2068 
Q 947 2378 1403 2484 
z
M 1172 3481 
Q 1172 3119 1398 2916 
Q 1625 2713 2034 2713 
Q 2441 2713 2670 2916 
Q 2900 3119 2900 3481 
Q 2900 3844 2670 4047 
Q 2441 4250 2034 4250 
Q 1625 4250 1398 4047 
Q 1172 3844 1172 3481 
z
" transform="scale(0.015625)"/>
       </defs>
       <use xlink:href="#DejaVuSans-30"/>
       <use xlink:href="#DejaVuSans-2e" x="63.623047"/>
       <use xlink:href="#DejaVuSans-38" x="95.410156"/>
      </g>
     </g>
    </g>
    <g id="xtick_5">
     <g id="line2d_5">
      <g>
       <use xlink:href="#mc9a7349a04" x="371.053627" y="288.430125" style="stroke: #000000; stroke-width: 0.8"/>
      </g>
     </g>
     <g id="text_5">
      <!-- 1.0 -->
      <g transform="translate(363.102065 303.028562) scale(0.1 -0.1)">
       <defs>
        <path id="DejaVuSans-31" d="M 794 531 
L 1825 531 
L 1825 4091 
L 703 3866 
L 703 4441 
L 1819 4666 
L 2450 4666 
L 2450 531 
L 3481 531 
L 3481 0 
L 794 0 
L 794 531 
z
" transform="scale(0.015625)"/>
       </defs>
       <use xlink:href="#DejaVuSans-31"/>
       <use xlink:href="#DejaVuSans-2e" x="63.623047"/>
       <use xlink:href="#DejaVuSans-30" x="95.410156"/>
      </g>
     </g>
    </g>
    <g id="text_6">
     <!-- Lo -->
     <g transform="translate(217.505313 316.706687) scale(0.1 -0.1)">
      <defs>
       <path id="DejaVuSans-4c" d="M 628 4666 
L 1259 4666 
L 1259 531 
L 3531 531 
L 3531 0 
L 628 0 
L 628 4666 
z
" transform="scale(0.015625)"/>
       <path id="DejaVuSans-6f" d="M 1959 3097 
Q 1497 3097 1228 2736 
Q 959 2375 959 1747 
Q 959 1119 1226 758 
Q 1494 397 1959 397 
Q 2419 397 2687 759 
Q 2956 1122 2956 1747 
Q 2956 2369 2687 2733 
Q 2419 3097 1959 3097 
z
M 1959 3584 
Q 2709 3584 3137 3096 
Q 3566 2609 3566 1747 
Q 3566 888 3137 398 
Q 2709 -91 1959 -91 
Q 1206 -91 779 398 
Q 353 888 353 1747 
Q 353 2609 779 3096 
Q 1206 3584 1959 3584 
z
" transform="scale(0.015625)"/>
      </defs>
      <use xlink:href="#DejaVuSans-4c"/>
      <use xlink:href="#DejaVuSans-6f" x="53.962891"/>
     </g>
    </g>
   </g>
   <g id="matplotlib.axis_2">
    <g id="ytick_1">
     <g id="line2d_6">
      <defs>
       <path id="md6841d2e9c" d="M 0 0 
L -3.5 0 
" style="stroke: #000000; stroke-width: 0.8"/>
      </defs>
      <g>
       <use xlink:href="#md6841d2e9c" x="44.703125" y="288.430125" style="stroke: #000000; stroke-width: 0.8"/>
      </g>
     </g>
     <g id="text_7">
      <!-- 8.9 -->
      <g transform="translate(21.8 292.229344) scale(0.1 -0.1)">
       <defs>
        <path id="DejaVuSans-39" d="M 703 97 
L 703 672 
Q 941 559 1184 500 
Q 1428 441 1663 441 
Q 2288 441 2617 861 
Q 2947 1281 2994 2138 
Q 2813 1869 2534 1725 
Q 2256 1581 1919 1581 
Q 1219 1581 811 2004 
Q 403 2428 403 3163 
Q 403 3881 828 4315 
Q 1253 4750 1959 4750 
Q 2769 4750 3195 4129 
Q 3622 3509 3622 2328 
Q 3622 1225 3098 567 
Q 2575 -91 1691 -91 
Q 1453 -91 1209 -44 
Q 966 3 703 97 
z
M 1959 2075 
Q 2384 2075 2632 2365 
Q 2881 2656 2881 3163 
Q 2881 3666 2632 3958 
Q 2384 4250 1959 4250 
Q 1534 4250 1286 3958 
Q 1038 3666 1038 3163 
Q 1038 2656 1286 2365 
Q 1534 2075 1959 2075 
z
" transform="scale(0.015625)"/>
       </defs>
       <use xlink:href="#DejaVuSans-38"/>
       <use xlink:href="#DejaVuSans-2e" x="63.623047"/>
       <use xlink:href="#DejaVuSans-39" x="95.410156"/>
      </g>
     </g>
    </g>
    <g id="ytick_2">
     <g id="line2d_7">
      <g>
       <use xlink:href="#md6841d2e9c" x="44.703125" y="250.414125" style="stroke: #000000; stroke-width: 0.8"/>
      </g>
     </g>
     <g id="text_8">
      <!-- 9.0 -->
      <g transform="translate(21.8 254.213344) scale(0.1 -0.1)">
       <use xlink:href="#DejaVuSans-39"/>
       <use xlink:href="#DejaVuSans-2e" x="63.623047"/>
       <use xlink:href="#DejaVuSans-30" x="95.410156"/>
      </g>
     </g>
    </g>
    <g id="ytick_3">
     <g id="line2d_8">
      <g>
       <use xlink:href="#md6841d2e9c" x="44.703125" y="212.398125" style="stroke: #000000; stroke-width: 0.8"/>
      </g>
     </g>
     <g id="text_9">
      <!-- 9.1 -->
      <g transform="translate(21.8 216.197344) scale(0.1 -0.1)">
       <use xlink:href="#DejaVuSans-39"/>
       <use xlink:href="#DejaVuSans-2e" x="63.623047"/>
       <use xlink:href="#DejaVuSans-31" x="95.410156"/>
      </g>
     </g>
    </g>
    <g id="ytick_4">
     <g id="line2d_9">
      <g>
       <use xlink:href="#md6841d2e9c" x="44.703125" y="174.382125" style="stroke: #000000; stroke-width: 0.8"/>
      </g>
     </g>
     <g id="text_10">
      <!-- 9.2 -->
      <g transform="translate(21.8 178.181344) scale(0.1 -0.1)">
       <use xlink:href="#DejaVuSans-39"/>
       <use xlink:href="#DejaVuSans-2e" x="63.623047"/>
       <use xlink:href="#DejaVuSans-32" x="95.410156"/>
      </g>
     </g>
    </g>
    <g id="ytick_5">
     <g id="line2d_10">
      <g>
       <use xlink:href="#md6841d2e9c" x="44.703125" y="136.366125" style="stroke: #000000; stroke-width: 0.8"/>
      </g>
     </g>
     <g id="text_11">
      <!-- 9.3 -->
      <g transform="translate(21.8 140.165344) scale(0.1 -0.1)">
       <defs>
        <path id="DejaVuSans-33" d="M 2597 2516 
Q 3050 2419 3304 2112 
Q 3559 1806 3559 1356 
Q 3559 666 3084 287 
Q 2609 -91 1734 -91 
Q 1441 -91 1130 -33 
Q 819 25 488 141 
L 488 750 
Q 750 597 1062 519 
Q 1375 441 1716 441 
Q 2309 441 2620 675 
Q 2931 909 2931 1356 
Q 2931 1769 2642 2001 
Q 2353 2234 1838 2234 
L 1294 2234 
L 1294 2753 
L 1863 2753 
Q 2328 2753 2575 2939 
Q 2822 3125 2822 3475 
Q 2822 3834 2567 4026 
Q 2313 4219 1838 4219 
Q 1578 4219 1281 4162 
Q 984 4106 628 3988 
L 628 4550 
Q 988 4650 1302 4700 
Q 1616 4750 1894 4750 
Q 2613 4750 3031 4423 
Q 3450 4097 3450 3541 
Q 3450 3153 3228 2886 
Q 3006 2619 2597 2516 
z
" transform="scale(0.015625)"/>
       </defs>
       <use xlink:href="#DejaVuSans-39"/>
       <use xlink:href="#DejaVuSans-2e" x="63.623047"/>
       <use xlink:href="#DejaVuSans-33" x="95.410156"/>
      </g>
     </g>
    </g>
    <g id="ytick_6">
     <g id="line2d_11">
      <g>
       <use xlink:href="#md6841d2e9c" x="44.703125" y="98.350125" style="stroke: #000000; stroke-width: 0.8"/>
      </g>
     </g>
     <g id="text_12">
      <!-- 9.4 -->
      <g transform="translate(21.8 102.149344) scale(0.1 -0.1)">
       <use xlink:href="#DejaVuSans-39"/>
       <use xlink:href="#DejaVuSans-2e" x="63.623047"/>
       <use xlink:href="#DejaVuSans-34" x="95.410156"/>
      </g>
     </g>
    </g>
    <g id="ytick_7">
     <g id="line2d_12">
      <g>
       <use xlink:href="#md6841d2e9c" x="44.703125" y="60.334125" style="stroke: #000000; stroke-width: 0.8"/>
      </g>
     </g>
     <g id="text_13">
      <!-- 9.5 -->
      <g transform="translate(21.8 64.133344) scale(0.1 -0.1)">
       <defs>
        <path id="DejaVuSans-35" d="M 691 4666 
L 3169 4666 
L 3169 4134 
L 1269 4134 
L 1269 2991 
Q 1406 3038 1543 3061 
Q 1681 3084 1819 3084 
Q 2600 3084 3056 2656 
Q 3513 2228 3513 1497 
Q 3513 744 3044 326 
Q 2575 -91 1722 -91 
Q 1428 -91 1123 -41 
Q 819 9 494 109 
L 494 744 
Q 775 591 1075 516 
Q 1375 441 1709 441 
Q 2250 441 2565 725 
Q 2881 1009 2881 1497 
Q 2881 1984 2565 2268 
Q 2250 2553 1709 2553 
Q 1456 2553 1204 2497 
Q 953 2441 691 2322 
L 691 4666 
z
" transform="scale(0.015625)"/>
       </defs>
       <use xlink:href="#DejaVuSans-39"/>
       <use xlink:href="#DejaVuSans-2e" x="63.623047"/>
       <use xlink:href="#DejaVuSans-35" x="95.410156"/>
      </g>
     </g>
    </g>
    <g id="ytick_8">
     <g id="line2d_13">
      <g>
       <use xlink:href="#md6841d2e9c" x="44.703125" y="22.318125" style="stroke: #000000; stroke-width: 0.8"/>
      </g>
     </g>
     <g id="text_14">
      <!-- 9.6 -->
      <g transform="translate(21.8 26.117344) scale(0.1 -0.1)">
       <use xlink:href="#DejaVuSans-39"/>
       <use xlink:href="#DejaVuSans-2e" x="63.623047"/>
       <use xlink:href="#DejaVuSans-36" x="95.410156"/>
      </g>
     </g>
    </g>
    <g id="text_15">
     <!-- $\Delta C_p$ -->
     <g transform="translate(14.7 164.674125) rotate(-90) scale(0.1 -0.1)">
      <defs>
       <path id="DejaVuSans-394" d="M 2188 4044 
L 906 525 
L 3472 525 
L 2188 4044 
z
M 50 0 
L 1831 4666 
L 2547 4666 
L 4325 0 
L 50 0 
z
" transform="scale(0.015625)"/>
       <path id="DejaVuSans-Oblique-43" d="M 4447 4306 
L 4319 3641 
Q 4019 3944 3683 4091 
Q 3347 4238 2956 4238 
Q 2422 4238 2017 3981 
Q 1613 3725 1319 3200 
Q 1131 2863 1032 2486 
Q 934 2109 934 1728 
Q 934 1091 1264 756 
Q 1594 422 2222 422 
Q 2656 422 3056 561 
Q 3456 700 3834 978 
L 3688 231 
Q 3316 72 2936 -9 
Q 2556 -91 2175 -91 
Q 1278 -91 773 396 
Q 269 884 269 1753 
Q 269 2309 461 2846 
Q 653 3384 1013 3828 
Q 1394 4300 1883 4525 
Q 2372 4750 3022 4750 
Q 3422 4750 3780 4639 
Q 4138 4528 4447 4306 
z
" transform="scale(0.015625)"/>
       <path id="DejaVuSans-Oblique-70" d="M 3175 2156 
Q 3175 2616 2975 2859 
Q 2775 3103 2400 3103 
Q 2144 3103 1911 2972 
Q 1678 2841 1497 2591 
Q 1319 2344 1212 1994 
Q 1106 1644 1106 1300 
Q 1106 863 1306 627 
Q 1506 391 1875 391 
Q 2147 391 2380 519 
Q 2613 647 2778 891 
Q 2956 1147 3065 1494 
Q 3175 1841 3175 2156 
z
M 1394 2969 
Q 1625 3272 1939 3428 
Q 2253 3584 2638 3584 
Q 3175 3584 3472 3232 
Q 3769 2881 3769 2247 
Q 3769 1728 3584 1258 
Q 3400 788 3053 416 
Q 2822 169 2531 39 
Q 2241 -91 1919 -91 
Q 1547 -91 1294 64 
Q 1041 219 916 525 
L 556 -1331 
L -19 -1331 
L 922 3500 
L 1497 3500 
L 1394 2969 
z
" transform="scale(0.015625)"/>
      </defs>
      <use xlink:href="#DejaVuSans-394" transform="translate(0 0.78125)"/>
      <use xlink:href="#DejaVuSans-Oblique-43" transform="translate(68.408203 0.78125)"/>
      <use xlink:href="#DejaVuSans-Oblique-70" transform="translate(138.232422 -15.625) scale(0.7)"/>
     </g>
    </g>
   </g>
   <g id="line2d_14">
    <path d="M 60.935852 113.281864 
L 73.857426 131.597171 
L 86.779 145.610361 
L 99.700574 156.080299 
L 112.622148 163.691828 
L 125.543722 169.040952 
L 138.465296 172.627668 
L 151.38687 174.855933 
L 164.308444 176.039803 
L 177.230018 176.414362 
L 190.151592 176.149839 
L 203.073166 175.367214 
L 215.99474 174.153683 
L 228.916314 172.576537 
L 241.837888 170.694301 
L 254.759461 168.564369 
L 267.681035 166.246767 
L 280.602609 163.804068 
L 293.524183 161.297883 
L 306.445757 158.782629 
L 319.367331 156.297484 
L 332.288905 153.857601 
L 345.210479 151.445598 
L 358.132053 149.004341 
L 371.053627 146.431818 
" clip-path="url(#pbdb7e82eef)" style="fill: none; stroke: #bcbd22; stroke-width: 1.5; stroke-linecap: square"/>
   </g>
   <g id="line2d_15">
    <path d="M 60.935852 150.639476 
L 73.857426 155.013943 
L 86.779 157.822889 
L 99.700574 159.493169 
L 112.622148 159.993089 
L 125.543722 159.568918 
L 138.465296 159.621895 
L 151.38687 161.246366 
L 164.308444 163.365751 
L 177.230018 165.032074 
L 190.151592 166.070607 
L 203.073166 166.720094 
L 215.99474 167.141738 
L 228.916314 167.026903 
L 241.837888 165.2823 
L 254.759461 162.9018 
L 267.681035 161.775769 
L 280.602609 161.466085 
L 293.524183 161.048823 
L 306.445757 158.973004 
L 319.367331 155.388655 
L 332.288905 151.634373 
L 345.210479 147.325813 
L 358.132053 141.665508 
L 371.053627 135.206591 
" clip-path="url(#pbdb7e82eef)" style="fill: none; stroke: #17becf; stroke-width: 1.5; stroke-linecap: square"/>
   </g>
   <g id="line2d_16">
    <path d="M 60.935852 188.348291 
L 65.781443 185.029722 
L 70.627033 185.705115 
L 75.472623 185.309824 
L 80.318213 183.659702 
L 85.163803 182.540739 
L 90.009394 182.712039 
L 94.854984 182.90516 
L 99.700574 182.17761 
L 104.546164 180.881188 
L 109.391755 180.282969 
L 114.237345 180.558737 
L 119.082935 180.769801 
L 123.928525 180.680388 
L 128.774116 180.843476 
L 133.619706 181.775705 
L 138.465296 182.493751 
L 143.310886 181.657171 
L 148.156476 179.635708 
L 153.002067 177.895716 
L 157.847657 177.418387 
L 162.693247 177.968859 
L 167.538837 178.325601 
L 172.384428 178.291919 
L 177.230018 177.871386 
L 182.075608 178.631858 
L 186.921198 178.8836 
L 191.766789 177.86728 
L 196.612379 175.247293 
L 201.457969 173.880238 
L 206.303559 173.852562 
L 211.149149 175.081239 
L 215.99474 175.462768 
L 220.84033 174.116317 
L 225.68592 172.069992 
L 230.53151 171.806085 
L 235.377101 173.357214 
L 240.222691 173.882519 
L 245.068281 173.443738 
L 249.913871 172.283718 
L 254.759461 170.644468 
L 259.605052 169.733985 
L 264.450642 168.593277 
L 269.296232 167.605089 
L 274.141822 168.111082 
L 278.987413 170.2177 
L 283.833003 171.93359 
L 288.678593 171.030863 
L 293.524183 167.663025 
L 298.369774 163.719397 
L 303.215364 163.034273 
L 308.060954 164.097809 
L 312.906544 164.601749 
L 317.752134 163.021956 
L 322.597725 160.439225 
L 327.443315 159.023813 
L 332.288905 159.347177 
L 337.134495 158.458667 
L 341.980086 157.115258 
L 346.825676 156.261266 
L 351.671266 157.603003 
L 356.516856 160.569163 
L 361.362447 161.099563 
L 366.208037 159.791964 
L 371.053627 160.06089 
L 375.899217 164.033562 
L 380.744807 169.969608 
L 385.590398 170.581285 
" clip-path="url(#pbdb7e82eef)" style="fill: none; stroke: #1f77b4; stroke-width: 1.5; stroke-linecap: square"/>
   </g>
   <g id="line2d_17">
    <path d="M 78.729877 -1 
L 80.318213 30.918561 
L 85.163803 75.310376 
L 90.009394 85.878824 
L 94.854984 79.334218 
L 99.700574 72.312054 
L 104.546164 44.900237 
L 107.005343 -1 
M 157.01102 -1 
L 157.847657 25.518236 
L 162.693247 66.459643 
L 167.538837 20.90469 
L 168.715329 -1 
M 195.523804 -1 
L 196.612379 18.965418 
L 201.457969 95.231977 
L 206.303559 149.580563 
L 211.149149 172.63202 
L 215.99474 167.907544 
L 220.84033 156.069057 
L 225.68592 157.499219 
L 230.53151 141.769567 
L 235.377101 48.312934 
L 236.833321 -1 
M 280.008812 -1 
L 283.833003 104.040588 
L 288.678593 69.232378 
L 291.591304 -1 
M 303.835767 -1 
L 308.060954 99.270112 
L 312.906544 114.056435 
L 317.752134 32.080406 
L 319.348214 -1 
M 340.333412 -1 
L 341.980086 11.599514 
L 342.66805 -1 
M 372.452766 -1 
L 375.899217 76.016485 
L 380.744807 50.399632 
L 381.832535 -1 
" clip-path="url(#pbdb7e82eef)" style="fill: none; stroke: #ff7f0e; stroke-width: 1.5; stroke-linecap: square"/>
   </g>
   <g id="line2d_18">
    <path d="M 60.935852 194.832072 
L 65.781443 204.223164 
L 70.627033 194.699244 
L 75.472623 173.15284 
L 80.318213 160.995323 
L 85.163803 165.086453 
L 90.009394 171.609162 
L 94.854984 174.548635 
L 99.700574 172.176209 
L 104.546164 165.552833 
L 109.391755 163.391471 
L 114.237345 164.98974 
L 119.082935 163.894195 
L 123.928525 163.683586 
L 128.774116 169.938207 
L 133.619706 175.947244 
L 138.465296 174.580949 
L 143.310886 167.694274 
L 148.156476 164.02018 
L 153.002067 170.591246 
L 157.847657 181.726588 
L 162.693247 184.041306 
L 167.538837 174.085296 
L 172.384428 162.626589 
L 177.230018 160.478153 
L 182.075608 170.938864 
L 186.921198 179.907446 
L 191.766789 173.821237 
L 196.612379 159.227427 
L 201.457969 154.066983 
L 206.303559 162.028522 
L 211.149149 173.397967 
L 215.99474 175.546935 
L 220.84033 172.328349 
L 225.68592 173.486392 
L 230.53151 179.706722 
L 235.377101 186.979791 
L 240.222691 186.638407 
L 245.068281 174.871771 
L 249.913871 164.390304 
L 254.759461 165.43255 
L 259.605052 169.557362 
L 264.450642 170.113536 
L 269.296232 172.496759 
L 274.141822 177.501338 
L 278.987413 183.616516 
L 283.833003 187.129042 
L 288.678593 182.095723 
L 293.524183 169.97417 
L 298.369774 164.183116 
L 303.215364 169.063306 
L 308.060954 174.633031 
L 312.906544 172.583436 
L 317.752134 163.560034 
L 322.597725 158.016921 
L 327.443315 165.047448 
L 332.288905 173.372876 
L 337.134495 169.744021 
L 341.980086 161.127086 
L 346.825676 154.452313 
L 351.671266 154.616846 
L 356.516856 157.47124 
L 361.362447 153.516511 
L 366.208037 146.233938 
L 371.053627 141.518357 
L 375.899217 148.05308 
L 380.744807 159.324748 
L 385.590398 152.06065 
" clip-path="url(#pbdb7e82eef)" style="fill: none; stroke: #2ca02c; stroke-width: 1.5; stroke-linecap: square"/>
   </g>
   <g id="line2d_19">
    <path d="M 60.935852 122.043369 
L 65.781443 174.462415 
L 70.627033 183.701975 
L 75.472623 162.564319 
L 80.318213 149.02302 
L 85.163803 165.862207 
L 90.009394 187.888221 
L 94.854984 192.536286 
L 99.700574 180.892365 
L 104.546164 168.186581 
L 109.391755 161.189433 
L 114.237345 160.087805 
L 119.082935 163.398542 
L 123.928525 165.350436 
L 128.774116 166.317107 
L 133.619706 169.621609 
L 138.465296 170.309699 
L 143.310886 165.558383 
L 148.156476 164.215354 
L 153.002067 175.394719 
L 157.847657 187.823898 
L 162.693247 181.601059 
L 167.538837 160.481347 
L 172.384428 145.475139 
L 177.230018 148.144774 
L 182.075608 162.196096 
L 186.921198 169.270342 
L 191.766789 161.365599 
L 196.612379 152.910612 
L 201.457969 156.780717 
L 206.303559 165.553213 
L 211.149149 173.12007 
L 215.99474 176.965616 
L 220.84033 178.017063 
L 225.68592 186.868328 
L 230.53151 200.093714 
L 235.377101 201.54334 
L 240.222691 190.71684 
L 245.068281 178.234742 
L 249.913871 173.197394 
L 254.759461 177.411164 
L 259.605052 178.624787 
L 264.450642 164.056067 
L 269.296232 147.708503 
L 274.141822 147.471359 
L 278.987413 163.85405 
L 283.833003 180.6334 
L 288.678593 177.527721 
L 293.524183 162.933074 
L 298.369774 160.873291 
L 303.215364 175.357311 
L 308.060954 188.349051 
L 312.906544 181.992244 
L 317.752134 160.11913 
L 322.597725 148.153138 
L 327.443315 157.289827 
L 332.288905 167.951643 
L 337.134495 169.088017 
L 341.980086 163.861729 
L 346.825676 151.93573 
L 351.671266 134.620354 
L 356.516856 102.274213 
L 361.362447 74.315878 
L 366.208037 115.856873 
L 371.053627 192.355862 
L 375.899217 235.204608 
L 380.744807 216.294461 
L 385.590398 122.804373 
" clip-path="url(#pbdb7e82eef)" style="fill: none; stroke: #d62728; stroke-width: 1.5; stroke-linecap: square"/>
   </g>
   <g id="line2d_20">
    <path d="M 60.935852 188.50256 
L 65.781443 193.522953 
L 70.627033 194.424768 
L 75.472623 188.330043 
L 80.318213 183.266464 
L 85.163803 185.622468 
L 90.009394 191.229524 
L 94.854984 192.751152 
L 99.700574 189.62905 
L 104.546164 186.409171 
L 109.391755 183.910531 
L 114.237345 181.933547 
L 119.082935 182.403045 
L 123.928525 185.943019 
L 128.774116 190.902282 
L 133.619706 192.703708 
L 138.465296 187.184317 
L 143.310886 178.651778 
L 148.156476 175.909304 
L 153.002067 179.128879 
L 157.847657 184.106238 
L 162.693247 187.205682 
L 167.538837 183.307141 
L 172.384428 177.107872 
L 177.230018 176.833321 
L 182.075608 182.208707 
L 186.921198 185.478007 
L 191.766789 182.665127 
L 196.612379 177.467047 
L 201.457969 178.775634 
L 206.303559 181.7827 
L 211.149149 181.875231 
L 215.99474 179.343897 
L 220.84033 176.052928 
L 225.68592 176.614425 
L 230.53151 182.469497 
L 235.377101 188.011089 
L 240.222691 188.014282 
L 245.068281 183.781505 
L 249.913871 179.03247 
L 254.759461 176.347172 
L 259.605052 175.437905 
L 264.450642 173.859025 
L 269.296232 172.459504 
L 274.141822 174.56118 
L 278.987413 178.112711 
L 283.833003 178.675652 
L 288.678593 175.911813 
L 293.524183 174.030173 
L 298.369774 174.674012 
L 303.215364 177.383412 
L 308.060954 177.796722 
L 312.906544 175.579173 
L 317.752134 173.363904 
L 322.597725 172.871673 
L 327.443315 174.523621 
L 332.288905 175.082532 
L 337.134495 170.347411 
L 341.980086 165.196699 
L 346.825676 164.823382 
L 351.671266 166.633248 
L 356.516856 165.406699 
L 361.362447 162.163022 
L 366.208037 164.439572 
L 371.053627 176.020691 
L 375.899217 193.819478 
L 380.744807 217.383315 
L 385.590398 258.361978 
" clip-path="url(#pbdb7e82eef)" style="fill: none; stroke: #9467bd; stroke-width: 1.5; stroke-linecap: square"/>
   </g>
   <g id="line2d_21">
    <path d="M 60.935852 200.373664 
L 65.781443 179.882052 
L 70.627033 178.021853 
L 75.472623 174.771789 
L 80.318213 174.912448 
L 85.163803 187.438416 
L 90.009394 199.856342 
L 94.854984 202.151216 
L 99.700574 194.516995 
L 104.546164 187.290838 
L 109.391755 190.298056 
L 114.237345 193.437341 
L 119.082935 189.692081 
L 123.928525 189.38111 
L 128.774116 195.790455 
L 133.619706 205.371476 
L 138.465296 208.740834 
L 143.310886 199.202011 
L 148.156476 189.146399 
L 153.002067 195.362623 
L 157.847657 215.324977 
L 162.693247 229.001613 
L 167.538837 220.076749 
L 172.384428 198.579385 
L 177.230018 188.338939 
L 182.075608 196.217755 
L 186.921198 207.747172 
L 191.766789 208.351702 
L 196.612379 202.09442 
L 201.457969 199.747161 
L 206.303559 207.371726 
L 211.149149 215.537562 
L 215.99474 215.162649 
L 220.84033 213.130237 
L 225.68592 220.653071 
L 230.53151 232.508969 
L 235.377101 240.192079 
L 240.222691 235.399934 
L 245.068281 219.350871 
L 249.913871 208.962011 
L 254.759461 212.406184 
L 259.605052 220.542673 
L 264.450642 220.75944 
L 269.296232 213.880749 
L 274.141822 215.598084 
L 278.987413 229.59854 
L 283.833003 237.927466 
L 288.678593 232.483194 
L 293.524183 225.017004 
L 298.369774 228.407575 
L 303.215364 243.196255 
L 308.060954 254.115819 
L 312.906544 243.003438 
L 317.752134 219.955554 
L 322.597725 209.538638 
L 327.443315 219.18725 
L 332.288905 236.802876 
L 337.134495 247.208464 
L 341.980086 242.932348 
L 346.825676 226.763763 
L 351.671266 202.983539 
L 356.516856 179.404343 
L 361.362447 170.660663 
L 366.208037 201.388083 
L 371.053627 275.291643 
L 374.619072 326.986375 
M 381.730494 326.986375 
L 385.590398 252.65091 
" clip-path="url(#pbdb7e82eef)" style="fill: none; stroke: #8c564b; stroke-width: 1.5; stroke-linecap: square"/>
   </g>
   <g id="line2d_22">
    <path d="M 60.935852 214.403013 
L 65.781443 212.717003 
L 70.627033 208.825761 
L 75.472623 205.003481 
L 80.318213 203.046873 
L 85.163803 203.338076 
L 90.009394 202.865309 
L 94.854984 200.385145 
L 99.700574 197.714217 
L 104.546164 196.423954 
L 109.391755 197.605643 
L 114.237345 199.491085 
L 119.082935 200.393813 
L 123.928525 200.814346 
L 128.774116 200.864907 
L 133.619706 200.843314 
L 138.465296 199.502794 
L 143.310886 195.926781 
L 148.156476 193.708851 
L 153.002067 194.830551 
L 157.847657 196.945077 
L 162.693247 197.425067 
L 167.538837 196.546289 
L 172.384428 195.018883 
L 177.230018 193.516338 
L 182.075608 194.885827 
L 186.921198 196.441669 
L 191.766789 195.688192 
L 196.612379 193.1599 
L 201.457969 191.928714 
L 206.303559 191.131062 
L 211.149149 190.762383 
L 215.99474 189.780506 
L 220.84033 189.068162 
L 225.68592 189.477442 
L 230.53151 191.192724 
L 235.377101 193.95892 
L 240.222691 194.90932 
L 245.068281 193.431791 
L 249.913871 191.863478 
L 254.759461 190.777894 
L 259.605052 189.076602 
L 264.450642 187.472402 
L 269.296232 188.330119 
L 274.141822 190.576333 
L 278.987413 191.374745 
L 283.833003 189.726979 
L 288.678593 186.938126 
L 293.524183 184.144786 
L 298.369774 180.775808 
L 303.215364 178.698005 
L 308.060954 176.465554 
L 312.906544 174.714461 
L 317.752134 175.71892 
L 322.597725 179.20894 
L 327.443315 181.091341 
L 332.288905 178.843227 
L 337.134495 173.145312 
L 341.980086 169.594618 
L 346.825676 170.168051 
L 351.671266 172.593016 
L 356.516856 172.453877 
L 361.362447 168.872466 
L 366.208037 168.398483 
L 371.053627 175.672236 
L 375.899217 186.365985 
L 380.744807 188.307462 
L 385.590398 178.806731 
" clip-path="url(#pbdb7e82eef)" style="fill: none; stroke: #e377c2; stroke-width: 1.5; stroke-linecap: square"/>
   </g>
   <g id="line2d_23">
    <path d="M 60.935852 196.141495 
L 65.781443 198.068374 
L 70.627033 189.748268 
L 75.472623 181.943203 
L 80.318213 181.961299 
L 85.163803 187.658757 
L 90.009394 191.203825 
L 94.854984 189.843612 
L 99.700574 186.560627 
L 104.546164 183.785078 
L 109.391755 182.50181 
L 114.237345 181.928757 
L 119.082935 182.171299 
L 123.928525 183.734973 
L 128.774116 185.58468 
L 133.619706 186.148153 
L 138.465296 183.921252 
L 143.310886 180.501713 
L 148.156476 180.343262 
L 153.002067 183.445672 
L 157.847657 185.600266 
L 162.693247 183.530523 
L 167.538837 179.150092 
L 172.384428 177.304187 
L 177.230018 177.615538 
L 182.075608 178.783846 
L 186.921198 177.611812 
L 191.766789 174.817864 
L 196.612379 174.073739 
L 201.457969 177.927421 
L 206.303559 180.784932 
L 211.149149 180.67058 
L 215.99474 178.087164 
L 220.84033 175.412511 
L 225.68592 175.990278 
L 230.53151 179.817425 
L 235.377101 182.671818 
L 240.222691 182.005169 
L 245.068281 179.624075 
L 249.913871 177.15448 
L 254.759461 174.856032 
L 259.605052 171.722906 
L 264.450642 168.100741 
L 269.296232 167.429455 
L 274.141822 169.479125 
L 278.987413 171.253408 
L 283.833003 169.864532 
L 288.678593 165.480983 
L 293.524183 163.126272 
L 298.369774 165.225591 
L 303.215364 169.211949 
L 308.060954 169.174085 
L 312.906544 165.713717 
L 317.752134 162.986449 
L 322.597725 163.207778 
L 327.443315 163.790259 
L 332.288905 160.853675 
L 337.134495 155.081934 
L 341.980086 154.332943 
L 346.825676 158.977205 
L 351.671266 162.485854 
L 356.516856 158.711626 
L 361.362447 151.416203 
L 366.208037 158.315271 
L 371.053627 184.383374 
L 375.899217 208.392607 
L 380.744807 202.797032 
L 385.590398 156.601281 
" clip-path="url(#pbdb7e82eef)" style="fill: none; stroke: #7f7f7f; stroke-width: 1.5; stroke-linecap: square"/>
   </g>
   <g id="patch_3">
    <path d="M 44.703125 288.430125 
L 44.703125 22.318125 
" style="fill: none; stroke: #000000; stroke-width: 0.8; stroke-linejoin: miter; stroke-linecap: square"/>
   </g>
   <g id="patch_4">
    <path d="M 401.823125 288.430125 
L 401.823125 22.318125 
" style="fill: none; stroke: #000000; stroke-width: 0.8; stroke-linejoin: miter; stroke-linecap: square"/>
   </g>
   <g id="patch_5">
    <path d="M 44.703125 288.430125 
L 401.823125 288.430125 
" style="fill: none; stroke: #000000; stroke-width: 0.8; stroke-linejoin: miter; stroke-linecap: square"/>
   </g>
   <g id="patch_6">
    <path d="M 44.703125 22.318125 
L 401.823125 22.318125 
" style="fill: none; stroke: #000000; stroke-width: 0.8; stroke-linejoin: miter; stroke-linecap: square"/>
   </g>
   <g id="text_16">
    <!-- FNN -->
    <g transform="translate(210.834688 16.318125) scale(0.12 -0.12)">
     <defs>
      <path id="DejaVuSans-46" d="M 628 4666 
L 3309 4666 
L 3309 4134 
L 1259 4134 
L 1259 2759 
L 3109 2759 
L 3109 2228 
L 1259 2228 
L 1259 0 
L 628 0 
L 628 4666 
z
" transform="scale(0.015625)"/>
      <path id="DejaVuSans-4e" d="M 628 4666 
L 1478 4666 
L 3547 763 
L 3547 4666 
L 4159 4666 
L 4159 0 
L 3309 0 
L 1241 3903 
L 1241 0 
L 628 0 
L 628 4666 
z
" transform="scale(0.015625)"/>
     </defs>
     <use xlink:href="#DejaVuSans-46"/>
     <use xlink:href="#DejaVuSans-4e" x="57.519531"/>
     <use xlink:href="#DejaVuSans-4e" x="132.324219"/>
    </g>
   </g>
  </g>
 </g>
 <defs>
  <clipPath id="pbdb7e82eef">
   <rect x="44.703125" y="22.318125" width="357.12" height="266.112"/>
  </clipPath>
 </defs>
</svg>
