<?xml version="1.0" encoding="utf-8" standalone="no"?>
<!DOCTYPE svg PUBLIC "-//W3C//DTD SVG 1.1//EN"
  "http://www.w3.org/Graphics/SVG/1.1/DTD/svg11.dtd">
<svg xmlns:xlink="http://www.w3.org/1999/xlink" width="415.698125pt" height="327.50825pt" viewBox="0 0 415.698125 327.50825" xmlns="http://www.w3.org/2000/svg" version="1.1">
 <metadata>
  <rdf:RDF xmlns:dc="http://purl.org/dc/elements/1.1/" xmlns:cc="http://creativecommons.org/ns#" xmlns:rdf="http://www.w3.org/1999/02/22-rdf-syntax-ns#">
   <cc:Work>
    <dc:type rdf:resource="http://purl.org/dc/dcmitype/StillImage"/>
    <dc:date>2024-09-25T14:16:34.518333</dc:date>
    <dc:format>image/svg+xml</dc:format>
    <dc:creator>
     <cc:Agent>
      <dc:title>Matplotlib v3.8.2, https://matplotlib.org/</dc:title>
     </cc:Agent>
    </dc:creator>
   </cc:Work>
  </rdf:RDF>
 </metadata>
 <defs>
  <style type="text/css">*{stroke-linejoin: round; stroke-linecap: butt}</style>
 </defs>
 <g id="figure_1">
  <g id="patch_1">
   <path d="M 0 327.50825 
L 415.698125 327.50825 
L 415.698125 0 
L 0 0 
z
" style="fill: #ffffff"/>
  </g>
  <g id="axes_1">
   <g id="patch_2">
    <path d="M 51.378125 288.430125 
L 408.498125 288.430125 
L 408.498125 22.318125 
L 51.378125 22.318125 
z
" style="fill: #ffffff"/>
   </g>
   <g id="matplotlib.axis_1">
    <g id="xtick_1">
     <g id="line2d_1">
      <defs>
       <path id="mf07c3b91d4" d="M 0 0 
L 0 3.5 
" style="stroke: #000000; stroke-width: 0.8"/>
      </defs>
      <g>
       <use xlink:href="#mf07c3b91d4" x="67.610852" y="288.430125" style="stroke: #000000; stroke-width: 0.8"/>
      </g>
     </g>
     <g id="text_1">
      <!-- 0 -->
      <g transform="translate(64.429602 303.028562) scale(0.1 -0.1)">
       <defs>
        <path id="DejaVuSans-30" d="M 2034 4250 
Q 1547 4250 1301 3770 
Q 1056 3291 1056 2328 
Q 1056 1369 1301 889 
Q 1547 409 2034 409 
Q 2525 409 2770 889 
Q 3016 1369 3016 2328 
Q 3016 3291 2770 3770 
Q 2525 4250 2034 4250 
z
M 2034 4750 
Q 2819 4750 3233 4129 
Q 3647 3509 3647 2328 
Q 3647 1150 3233 529 
Q 2819 -91 2034 -91 
Q 1250 -91 836 529 
Q 422 1150 422 2328 
Q 422 3509 836 4129 
Q 1250 4750 2034 4750 
z
" transform="scale(0.015625)"/>
       </defs>
       <use xlink:href="#DejaVuSans-30"/>
      </g>
     </g>
    </g>
    <g id="xtick_2">
     <g id="line2d_2">
      <g>
       <use xlink:href="#mf07c3b91d4" x="132.541761" y="288.430125" style="stroke: #000000; stroke-width: 0.8"/>
      </g>
     </g>
     <g id="text_2">
      <!-- 100 -->
      <g transform="translate(122.998011 303.028562) scale(0.1 -0.1)">
       <defs>
        <path id="DejaVuSans-31" d="M 794 531 
L 1825 531 
L 1825 4091 
L 703 3866 
L 703 4441 
L 1819 4666 
L 2450 4666 
L 2450 531 
L 3481 531 
L 3481 0 
L 794 0 
L 794 531 
z
" transform="scale(0.015625)"/>
       </defs>
       <use xlink:href="#DejaVuSans-31"/>
       <use xlink:href="#DejaVuSans-30" x="63.623047"/>
       <use xlink:href="#DejaVuSans-30" x="127.246094"/>
      </g>
     </g>
    </g>
    <g id="xtick_3">
     <g id="line2d_3">
      <g>
       <use xlink:href="#mf07c3b91d4" x="197.47267" y="288.430125" style="stroke: #000000; stroke-width: 0.8"/>
      </g>
     </g>
     <g id="text_3">
      <!-- 200 -->
      <g transform="translate(187.92892 303.028562) scale(0.1 -0.1)">
       <defs>
        <path id="DejaVuSans-32" d="M 1228 531 
L 3431 531 
L 3431 0 
L 469 0 
L 469 531 
Q 828 903 1448 1529 
Q 2069 2156 2228 2338 
Q 2531 2678 2651 2914 
Q 2772 3150 2772 3378 
Q 2772 3750 2511 3984 
Q 2250 4219 1831 4219 
Q 1534 4219 1204 4116 
Q 875 4013 500 3803 
L 500 4441 
Q 881 4594 1212 4672 
Q 1544 4750 1819 4750 
Q 2544 4750 2975 4387 
Q 3406 4025 3406 3419 
Q 3406 3131 3298 2873 
Q 3191 2616 2906 2266 
Q 2828 2175 2409 1742 
Q 1991 1309 1228 531 
z
" transform="scale(0.015625)"/>
       </defs>
       <use xlink:href="#DejaVuSans-32"/>
       <use xlink:href="#DejaVuSans-30" x="63.623047"/>
       <use xlink:href="#DejaVuSans-30" x="127.246094"/>
      </g>
     </g>
    </g>
    <g id="xtick_4">
     <g id="line2d_4">
      <g>
       <use xlink:href="#mf07c3b91d4" x="262.40358" y="288.430125" style="stroke: #000000; stroke-width: 0.8"/>
      </g>
     </g>
     <g id="text_4">
      <!-- 300 -->
      <g transform="translate(252.85983 303.028562) scale(0.1 -0.1)">
       <defs>
        <path id="DejaVuSans-33" d="M 2597 2516 
Q 3050 2419 3304 2112 
Q 3559 1806 3559 1356 
Q 3559 666 3084 287 
Q 2609 -91 1734 -91 
Q 1441 -91 1130 -33 
Q 819 25 488 141 
L 488 750 
Q 750 597 1062 519 
Q 1375 441 1716 441 
Q 2309 441 2620 675 
Q 2931 909 2931 1356 
Q 2931 1769 2642 2001 
Q 2353 2234 1838 2234 
L 1294 2234 
L 1294 2753 
L 1863 2753 
Q 2328 2753 2575 2939 
Q 2822 3125 2822 3475 
Q 2822 3834 2567 4026 
Q 2313 4219 1838 4219 
Q 1578 4219 1281 4162 
Q 984 4106 628 3988 
L 628 4550 
Q 988 4650 1302 4700 
Q 1616 4750 1894 4750 
Q 2613 4750 3031 4423 
Q 3450 4097 3450 3541 
Q 3450 3153 3228 2886 
Q 3006 2619 2597 2516 
z
" transform="scale(0.015625)"/>
       </defs>
       <use xlink:href="#DejaVuSans-33"/>
       <use xlink:href="#DejaVuSans-30" x="63.623047"/>
       <use xlink:href="#DejaVuSans-30" x="127.246094"/>
      </g>
     </g>
    </g>
    <g id="xtick_5">
     <g id="line2d_5">
      <g>
       <use xlink:href="#mf07c3b91d4" x="327.334489" y="288.430125" style="stroke: #000000; stroke-width: 0.8"/>
      </g>
     </g>
     <g id="text_5">
      <!-- 400 -->
      <g transform="translate(317.790739 303.028562) scale(0.1 -0.1)">
       <defs>
        <path id="DejaVuSans-34" d="M 2419 4116 
L 825 1625 
L 2419 1625 
L 2419 4116 
z
M 2253 4666 
L 3047 4666 
L 3047 1625 
L 3713 1625 
L 3713 1100 
L 3047 1100 
L 3047 0 
L 2419 0 
L 2419 1100 
L 313 1100 
L 313 1709 
L 2253 4666 
z
" transform="scale(0.015625)"/>
       </defs>
       <use xlink:href="#DejaVuSans-34"/>
       <use xlink:href="#DejaVuSans-30" x="63.623047"/>
       <use xlink:href="#DejaVuSans-30" x="127.246094"/>
      </g>
     </g>
    </g>
    <g id="xtick_6">
     <g id="line2d_6">
      <g>
       <use xlink:href="#mf07c3b91d4" x="392.265398" y="288.430125" style="stroke: #000000; stroke-width: 0.8"/>
      </g>
     </g>
     <g id="text_6">
      <!-- 500 -->
      <g transform="translate(382.721648 303.028562) scale(0.1 -0.1)">
       <defs>
        <path id="DejaVuSans-35" d="M 691 4666 
L 3169 4666 
L 3169 4134 
L 1269 4134 
L 1269 2991 
Q 1406 3038 1543 3061 
Q 1681 3084 1819 3084 
Q 2600 3084 3056 2656 
Q 3513 2228 3513 1497 
Q 3513 744 3044 326 
Q 2575 -91 1722 -91 
Q 1428 -91 1123 -41 
Q 819 9 494 109 
L 494 744 
Q 775 591 1075 516 
Q 1375 441 1709 441 
Q 2250 441 2565 725 
Q 2881 1009 2881 1497 
Q 2881 1984 2565 2268 
Q 2250 2553 1709 2553 
Q 1456 2553 1204 2497 
Q 953 2441 691 2322 
L 691 4666 
z
" transform="scale(0.015625)"/>
       </defs>
       <use xlink:href="#DejaVuSans-35"/>
       <use xlink:href="#DejaVuSans-30" x="63.623047"/>
       <use xlink:href="#DejaVuSans-30" x="127.246094"/>
      </g>
     </g>
    </g>
    <g id="text_7">
     <!-- Step ($x10^3$) -->
     <g transform="translate(201.288125 318.20825) scale(0.1 -0.1)">
      <defs>
       <path id="DejaVuSans-53" d="M 3425 4513 
L 3425 3897 
Q 3066 4069 2747 4153 
Q 2428 4238 2131 4238 
Q 1616 4238 1336 4038 
Q 1056 3838 1056 3469 
Q 1056 3159 1242 3001 
Q 1428 2844 1947 2747 
L 2328 2669 
Q 3034 2534 3370 2195 
Q 3706 1856 3706 1288 
Q 3706 609 3251 259 
Q 2797 -91 1919 -91 
Q 1588 -91 1214 -16 
Q 841 59 441 206 
L 441 856 
Q 825 641 1194 531 
Q 1563 422 1919 422 
Q 2459 422 2753 634 
Q 3047 847 3047 1241 
Q 3047 1584 2836 1778 
Q 2625 1972 2144 2069 
L 1759 2144 
Q 1053 2284 737 2584 
Q 422 2884 422 3419 
Q 422 4038 858 4394 
Q 1294 4750 2059 4750 
Q 2388 4750 2728 4690 
Q 3069 4631 3425 4513 
z
" transform="scale(0.015625)"/>
       <path id="DejaVuSans-74" d="M 1172 4494 
L 1172 3500 
L 2356 3500 
L 2356 3053 
L 1172 3053 
L 1172 1153 
Q 1172 725 1289 603 
Q 1406 481 1766 481 
L 2356 481 
L 2356 0 
L 1766 0 
Q 1100 0 847 248 
Q 594 497 594 1153 
L 594 3053 
L 172 3053 
L 172 3500 
L 594 3500 
L 594 4494 
L 1172 4494 
z
" transform="scale(0.015625)"/>
       <path id="DejaVuSans-65" d="M 3597 1894 
L 3597 1613 
L 953 1613 
Q 991 1019 1311 708 
Q 1631 397 2203 397 
Q 2534 397 2845 478 
Q 3156 559 3463 722 
L 3463 178 
Q 3153 47 2828 -22 
Q 2503 -91 2169 -91 
Q 1331 -91 842 396 
Q 353 884 353 1716 
Q 353 2575 817 3079 
Q 1281 3584 2069 3584 
Q 2775 3584 3186 3129 
Q 3597 2675 3597 1894 
z
M 3022 2063 
Q 3016 2534 2758 2815 
Q 2500 3097 2075 3097 
Q 1594 3097 1305 2825 
Q 1016 2553 972 2059 
L 3022 2063 
z
" transform="scale(0.015625)"/>
       <path id="DejaVuSans-70" d="M 1159 525 
L 1159 -1331 
L 581 -1331 
L 581 3500 
L 1159 3500 
L 1159 2969 
Q 1341 3281 1617 3432 
Q 1894 3584 2278 3584 
Q 2916 3584 3314 3078 
Q 3713 2572 3713 1747 
Q 3713 922 3314 415 
Q 2916 -91 2278 -91 
Q 1894 -91 1617 61 
Q 1341 213 1159 525 
z
M 3116 1747 
Q 3116 2381 2855 2742 
Q 2594 3103 2138 3103 
Q 1681 3103 1420 2742 
Q 1159 2381 1159 1747 
Q 1159 1113 1420 752 
Q 1681 391 2138 391 
Q 2594 391 2855 752 
Q 3116 1113 3116 1747 
z
" transform="scale(0.015625)"/>
       <path id="DejaVuSans-20" transform="scale(0.015625)"/>
       <path id="DejaVuSans-28" d="M 1984 4856 
Q 1566 4138 1362 3434 
Q 1159 2731 1159 2009 
Q 1159 1288 1364 580 
Q 1569 -128 1984 -844 
L 1484 -844 
Q 1016 -109 783 600 
Q 550 1309 550 2009 
Q 550 2706 781 3412 
Q 1013 4119 1484 4856 
L 1984 4856 
z
" transform="scale(0.015625)"/>
       <path id="DejaVuSans-Oblique-78" d="M 3841 3500 
L 2234 1784 
L 3219 0 
L 2559 0 
L 1819 1388 
L 531 0 
L -166 0 
L 1556 1844 
L 641 3500 
L 1300 3500 
L 1972 2234 
L 3144 3500 
L 3841 3500 
z
" transform="scale(0.015625)"/>
       <path id="DejaVuSans-29" d="M 513 4856 
L 1013 4856 
Q 1481 4119 1714 3412 
Q 1947 2706 1947 2009 
Q 1947 1309 1714 600 
Q 1481 -109 1013 -844 
L 513 -844 
Q 928 -128 1133 580 
Q 1338 1288 1338 2009 
Q 1338 2731 1133 3434 
Q 928 4138 513 4856 
z
" transform="scale(0.015625)"/>
      </defs>
      <use xlink:href="#DejaVuSans-53" transform="translate(0 0.765625)"/>
      <use xlink:href="#DejaVuSans-74" transform="translate(63.476562 0.765625)"/>
      <use xlink:href="#DejaVuSans-65" transform="translate(102.685547 0.765625)"/>
      <use xlink:href="#DejaVuSans-70" transform="translate(164.208984 0.765625)"/>
      <use xlink:href="#DejaVuSans-20" transform="translate(227.685547 0.765625)"/>
      <use xlink:href="#DejaVuSans-28" transform="translate(259.472656 0.765625)"/>
      <use xlink:href="#DejaVuSans-Oblique-78" transform="translate(298.486328 0.765625)"/>
      <use xlink:href="#DejaVuSans-31" transform="translate(357.666016 0.765625)"/>
      <use xlink:href="#DejaVuSans-30" transform="translate(421.289062 0.765625)"/>
      <use xlink:href="#DejaVuSans-33" transform="translate(485.869141 39.046875) scale(0.7)"/>
      <use xlink:href="#DejaVuSans-29" transform="translate(533.139648 0.765625)"/>
     </g>
    </g>
   </g>
   <g id="matplotlib.axis_2">
    <g id="ytick_1">
     <g id="line2d_7">
      <defs>
       <path id="m217230a633" d="M 0 0 
L -3.5 0 
" style="stroke: #000000; stroke-width: 0.8"/>
      </defs>
      <g>
       <use xlink:href="#m217230a633" x="51.378125" y="239.156469" style="stroke: #000000; stroke-width: 0.8"/>
      </g>
     </g>
     <g id="text_8">
      <!-- $\mathdefault{10^{-2}}$ -->
      <g transform="translate(20.878125 242.955687) scale(0.1 -0.1)">
       <defs>
        <path id="DejaVuSans-2212" d="M 678 2272 
L 4684 2272 
L 4684 1741 
L 678 1741 
L 678 2272 
z
" transform="scale(0.015625)"/>
       </defs>
       <use xlink:href="#DejaVuSans-31" transform="translate(0 0.765625)"/>
       <use xlink:href="#DejaVuSans-30" transform="translate(63.623047 0.765625)"/>
       <use xlink:href="#DejaVuSans-2212" transform="translate(128.203125 39.046875) scale(0.7)"/>
       <use xlink:href="#DejaVuSans-32" transform="translate(186.855469 39.046875) scale(0.7)"/>
      </g>
     </g>
    </g>
    <g id="ytick_2">
     <g id="line2d_8">
      <g>
       <use xlink:href="#m217230a633" x="51.378125" y="144.921129" style="stroke: #000000; stroke-width: 0.8"/>
      </g>
     </g>
     <g id="text_9">
      <!-- $\mathdefault{10^{-1}}$ -->
      <g transform="translate(20.878125 148.720348) scale(0.1 -0.1)">
       <use xlink:href="#DejaVuSans-31" transform="translate(0 0.684375)"/>
       <use xlink:href="#DejaVuSans-30" transform="translate(63.623047 0.684375)"/>
       <use xlink:href="#DejaVuSans-2212" transform="translate(128.203125 38.965625) scale(0.7)"/>
       <use xlink:href="#DejaVuSans-31" transform="translate(186.855469 38.965625) scale(0.7)"/>
      </g>
     </g>
    </g>
    <g id="ytick_3">
     <g id="line2d_9">
      <g>
       <use xlink:href="#m217230a633" x="51.378125" y="50.685789" style="stroke: #000000; stroke-width: 0.8"/>
      </g>
     </g>
     <g id="text_10">
      <!-- $\mathdefault{10^{0}}$ -->
      <g transform="translate(26.778125 54.485008) scale(0.1 -0.1)">
       <use xlink:href="#DejaVuSans-31" transform="translate(0 0.765625)"/>
       <use xlink:href="#DejaVuSans-30" transform="translate(63.623047 0.765625)"/>
       <use xlink:href="#DejaVuSans-30" transform="translate(128.203125 39.046875) scale(0.7)"/>
      </g>
     </g>
    </g>
    <g id="ytick_4">
     <g id="line2d_10">
      <defs>
       <path id="me36ed914f2" d="M 0 0 
L -2 0 
" style="stroke: #000000; stroke-width: 0.6"/>
      </defs>
      <g>
       <use xlink:href="#me36ed914f2" x="51.378125" y="288.430125" style="stroke: #000000; stroke-width: 0.6"/>
      </g>
     </g>
    </g>
    <g id="ytick_5">
     <g id="line2d_11">
      <g>
       <use xlink:href="#me36ed914f2" x="51.378125" y="276.656481" style="stroke: #000000; stroke-width: 0.6"/>
      </g>
     </g>
    </g>
    <g id="ytick_6">
     <g id="line2d_12">
      <g>
       <use xlink:href="#me36ed914f2" x="51.378125" y="267.524133" style="stroke: #000000; stroke-width: 0.6"/>
      </g>
     </g>
    </g>
    <g id="ytick_7">
     <g id="line2d_13">
      <g>
       <use xlink:href="#me36ed914f2" x="51.378125" y="260.062461" style="stroke: #000000; stroke-width: 0.6"/>
      </g>
     </g>
    </g>
    <g id="ytick_8">
     <g id="line2d_14">
      <g>
       <use xlink:href="#me36ed914f2" x="51.378125" y="253.753708" style="stroke: #000000; stroke-width: 0.6"/>
      </g>
     </g>
    </g>
    <g id="ytick_9">
     <g id="line2d_15">
      <g>
       <use xlink:href="#me36ed914f2" x="51.378125" y="248.288817" style="stroke: #000000; stroke-width: 0.6"/>
      </g>
     </g>
    </g>
    <g id="ytick_10">
     <g id="line2d_16">
      <g>
       <use xlink:href="#me36ed914f2" x="51.378125" y="243.468441" style="stroke: #000000; stroke-width: 0.6"/>
      </g>
     </g>
    </g>
    <g id="ytick_11">
     <g id="line2d_17">
      <g>
       <use xlink:href="#me36ed914f2" x="51.378125" y="210.788805" style="stroke: #000000; stroke-width: 0.6"/>
      </g>
     </g>
    </g>
    <g id="ytick_12">
     <g id="line2d_18">
      <g>
       <use xlink:href="#me36ed914f2" x="51.378125" y="194.194785" style="stroke: #000000; stroke-width: 0.6"/>
      </g>
     </g>
    </g>
    <g id="ytick_13">
     <g id="line2d_19">
      <g>
       <use xlink:href="#me36ed914f2" x="51.378125" y="182.421141" style="stroke: #000000; stroke-width: 0.6"/>
      </g>
     </g>
    </g>
    <g id="ytick_14">
     <g id="line2d_20">
      <g>
       <use xlink:href="#me36ed914f2" x="51.378125" y="173.288793" style="stroke: #000000; stroke-width: 0.6"/>
      </g>
     </g>
    </g>
    <g id="ytick_15">
     <g id="line2d_21">
      <g>
       <use xlink:href="#me36ed914f2" x="51.378125" y="165.827121" style="stroke: #000000; stroke-width: 0.6"/>
      </g>
     </g>
    </g>
    <g id="ytick_16">
     <g id="line2d_22">
      <g>
       <use xlink:href="#me36ed914f2" x="51.378125" y="159.518368" style="stroke: #000000; stroke-width: 0.6"/>
      </g>
     </g>
    </g>
    <g id="ytick_17">
     <g id="line2d_23">
      <g>
       <use xlink:href="#me36ed914f2" x="51.378125" y="154.053477" style="stroke: #000000; stroke-width: 0.6"/>
      </g>
     </g>
    </g>
    <g id="ytick_18">
     <g id="line2d_24">
      <g>
       <use xlink:href="#me36ed914f2" x="51.378125" y="149.233102" style="stroke: #000000; stroke-width: 0.6"/>
      </g>
     </g>
    </g>
    <g id="ytick_19">
     <g id="line2d_25">
      <g>
       <use xlink:href="#me36ed914f2" x="51.378125" y="116.553465" style="stroke: #000000; stroke-width: 0.6"/>
      </g>
     </g>
    </g>
    <g id="ytick_20">
     <g id="line2d_26">
      <g>
       <use xlink:href="#me36ed914f2" x="51.378125" y="99.959445" style="stroke: #000000; stroke-width: 0.6"/>
      </g>
     </g>
    </g>
    <g id="ytick_21">
     <g id="line2d_27">
      <g>
       <use xlink:href="#me36ed914f2" x="51.378125" y="88.185801" style="stroke: #000000; stroke-width: 0.6"/>
      </g>
     </g>
    </g>
    <g id="ytick_22">
     <g id="line2d_28">
      <g>
       <use xlink:href="#me36ed914f2" x="51.378125" y="79.053453" style="stroke: #000000; stroke-width: 0.6"/>
      </g>
     </g>
    </g>
    <g id="ytick_23">
     <g id="line2d_29">
      <g>
       <use xlink:href="#me36ed914f2" x="51.378125" y="71.591781" style="stroke: #000000; stroke-width: 0.6"/>
      </g>
     </g>
    </g>
    <g id="ytick_24">
     <g id="line2d_30">
      <g>
       <use xlink:href="#me36ed914f2" x="51.378125" y="65.283028" style="stroke: #000000; stroke-width: 0.6"/>
      </g>
     </g>
    </g>
    <g id="ytick_25">
     <g id="line2d_31">
      <g>
       <use xlink:href="#me36ed914f2" x="51.378125" y="59.818137" style="stroke: #000000; stroke-width: 0.6"/>
      </g>
     </g>
    </g>
    <g id="ytick_26">
     <g id="line2d_32">
      <g>
       <use xlink:href="#me36ed914f2" x="51.378125" y="54.997762" style="stroke: #000000; stroke-width: 0.6"/>
      </g>
     </g>
    </g>
    <g id="ytick_27">
     <g id="line2d_33">
      <g>
       <use xlink:href="#me36ed914f2" x="51.378125" y="22.318125" style="stroke: #000000; stroke-width: 0.6"/>
      </g>
     </g>
    </g>
    <g id="text_11">
     <!-- Mean $L^2$ Error -->
     <g transform="translate(14.798438 190.074125) rotate(-90) scale(0.1 -0.1)">
      <defs>
       <path id="DejaVuSans-4d" d="M 628 4666 
L 1569 4666 
L 2759 1491 
L 3956 4666 
L 4897 4666 
L 4897 0 
L 4281 0 
L 4281 4097 
L 3078 897 
L 2444 897 
L 1241 4097 
L 1241 0 
L 628 0 
L 628 4666 
z
" transform="scale(0.015625)"/>
       <path id="DejaVuSans-61" d="M 2194 1759 
Q 1497 1759 1228 1600 
Q 959 1441 959 1056 
Q 959 750 1161 570 
Q 1363 391 1709 391 
Q 2188 391 2477 730 
Q 2766 1069 2766 1631 
L 2766 1759 
L 2194 1759 
z
M 3341 1997 
L 3341 0 
L 2766 0 
L 2766 531 
Q 2569 213 2275 61 
Q 1981 -91 1556 -91 
Q 1019 -91 701 211 
Q 384 513 384 1019 
Q 384 1609 779 1909 
Q 1175 2209 1959 2209 
L 2766 2209 
L 2766 2266 
Q 2766 2663 2505 2880 
Q 2244 3097 1772 3097 
Q 1472 3097 1187 3025 
Q 903 2953 641 2809 
L 641 3341 
Q 956 3463 1253 3523 
Q 1550 3584 1831 3584 
Q 2591 3584 2966 3190 
Q 3341 2797 3341 1997 
z
" transform="scale(0.015625)"/>
       <path id="DejaVuSans-6e" d="M 3513 2113 
L 3513 0 
L 2938 0 
L 2938 2094 
Q 2938 2591 2744 2837 
Q 2550 3084 2163 3084 
Q 1697 3084 1428 2787 
Q 1159 2491 1159 1978 
L 1159 0 
L 581 0 
L 581 3500 
L 1159 3500 
L 1159 2956 
Q 1366 3272 1645 3428 
Q 1925 3584 2291 3584 
Q 2894 3584 3203 3211 
Q 3513 2838 3513 2113 
z
" transform="scale(0.015625)"/>
       <path id="DejaVuSans-Oblique-4c" d="M 1075 4666 
L 1709 4666 
L 909 525 
L 3181 525 
L 3078 0 
L 172 0 
L 1075 4666 
z
" transform="scale(0.015625)"/>
       <path id="DejaVuSans-45" d="M 628 4666 
L 3578 4666 
L 3578 4134 
L 1259 4134 
L 1259 2753 
L 3481 2753 
L 3481 2222 
L 1259 2222 
L 1259 531 
L 3634 531 
L 3634 0 
L 628 0 
L 628 4666 
z
" transform="scale(0.015625)"/>
       <path id="DejaVuSans-72" d="M 2631 2963 
Q 2534 3019 2420 3045 
Q 2306 3072 2169 3072 
Q 1681 3072 1420 2755 
Q 1159 2438 1159 1844 
L 1159 0 
L 581 0 
L 581 3500 
L 1159 3500 
L 1159 2956 
Q 1341 3275 1631 3429 
Q 1922 3584 2338 3584 
Q 2397 3584 2469 3576 
Q 2541 3569 2628 3553 
L 2631 2963 
z
" transform="scale(0.015625)"/>
       <path id="DejaVuSans-6f" d="M 1959 3097 
Q 1497 3097 1228 2736 
Q 959 2375 959 1747 
Q 959 1119 1226 758 
Q 1494 397 1959 397 
Q 2419 397 2687 759 
Q 2956 1122 2956 1747 
Q 2956 2369 2687 2733 
Q 2419 3097 1959 3097 
z
M 1959 3584 
Q 2709 3584 3137 3096 
Q 3566 2609 3566 1747 
Q 3566 888 3137 398 
Q 2709 -91 1959 -91 
Q 1206 -91 779 398 
Q 353 888 353 1747 
Q 353 2609 779 3096 
Q 1206 3584 1959 3584 
z
" transform="scale(0.015625)"/>
      </defs>
      <use xlink:href="#DejaVuSans-4d" transform="translate(0 0.765625)"/>
      <use xlink:href="#DejaVuSans-65" transform="translate(86.279297 0.765625)"/>
      <use xlink:href="#DejaVuSans-61" transform="translate(147.802734 0.765625)"/>
      <use xlink:href="#DejaVuSans-6e" transform="translate(209.082031 0.765625)"/>
      <use xlink:href="#DejaVuSans-20" transform="translate(272.460938 0.765625)"/>
      <use xlink:href="#DejaVuSans-Oblique-4c" transform="translate(304.248047 0.765625)"/>
      <use xlink:href="#DejaVuSans-32" transform="translate(366.977708 39.046875) scale(0.7)"/>
      <use xlink:href="#DejaVuSans-20" transform="translate(414.248216 0.765625)"/>
      <use xlink:href="#DejaVuSans-45" transform="translate(446.035326 0.765625)"/>
      <use xlink:href="#DejaVuSans-72" transform="translate(509.218919 0.765625)"/>
      <use xlink:href="#DejaVuSans-72" transform="translate(550.332201 0.765625)"/>
      <use xlink:href="#DejaVuSans-6f" transform="translate(591.445482 0.765625)"/>
      <use xlink:href="#DejaVuSans-72" transform="translate(652.627122 0.765625)"/>
     </g>
    </g>
   </g>
   <g id="line2d_34">
    <path d="M 67.610852 49.773305 
L 68.260161 48.976559 
L 68.90947 49.407458 
L 69.55878 49.655961 
L 70.208089 49.678266 
L 70.857398 50.122994 
L 72.805325 50.623339 
L 73.454634 50.555351 
L 75.402561 51.126386 
L 76.70118 50.803792 
L 78.649107 51.034774 
L 80.597034 50.856578 
L 81.895652 51.218016 
L 82.544961 51.188697 
L 83.19427 51.440921 
L 83.84358 51.304079 
L 84.492889 51.603045 
L 85.791507 51.646004 
L 86.440816 51.758022 
L 87.739434 51.667491 
L 89.038052 51.997696 
L 89.687361 51.881531 
L 90.33667 52.075341 
L 90.98598 52.033072 
L 92.284598 52.179076 
L 93.583216 52.09784 
L 94.232525 52.347355 
L 97.47907 52.554546 
L 98.12838 52.752212 
L 100.076307 52.958106 
L 101.374925 53.302692 
L 102.024234 53.225384 
L 107.868016 53.878558 
L 108.517325 54.191916 
L 109.166634 53.715859 
L 109.815943 54.352636 
L 110.465252 54.477424 
L 111.114561 54.442088 
L 112.41318 54.613254 
L 113.711798 54.774455 
L 114.361107 54.639671 
L 115.010416 54.965947 
L 115.659725 55.088582 
L 116.309034 54.945129 
L 117.607652 55.274117 
L 120.854198 55.349751 
L 121.503507 55.490965 
L 122.152816 55.382708 
L 122.802125 55.677873 
L 123.451434 55.555081 
L 124.100743 55.684134 
L 125.399361 55.763093 
L 126.69798 55.915931 
L 127.347289 55.871824 
L 127.996598 56.142592 
L 128.645907 55.818853 
L 129.944525 56.104317 
L 130.593834 56.177257 
L 131.243143 56.110811 
L 131.892452 56.286231 
L 133.19107 56.232105 
L 133.84038 56.264558 
L 134.489689 56.42745 
L 135.138998 56.331964 
L 135.788307 56.386283 
L 136.437616 56.316493 
L 137.086925 56.500236 
L 137.736234 56.567308 
L 138.385543 56.447953 
L 142.281398 56.646721 
L 142.930707 56.532591 
L 144.229325 56.797791 
L 144.878634 56.917543 
L 145.527943 56.703906 
L 147.47587 56.928342 
L 148.12518 56.934275 
L 148.774489 56.824755 
L 149.423798 56.907549 
L 150.073107 56.840405 
L 150.722416 57.13786 
L 151.371725 56.887511 
L 152.021034 57.074797 
L 152.670343 57.032244 
L 153.319652 57.117821 
L 154.61827 57.143112 
L 155.916889 57.264933 
L 156.566198 57.109678 
L 157.215507 57.092498 
L 157.864816 57.309715 
L 159.163434 57.206454 
L 159.812743 57.359727 
L 161.111361 57.271445 
L 161.76067 57.045097 
L 162.40998 57.447116 
L 163.708598 57.338149 
L 164.357907 57.411086 
L 165.007216 57.32638 
L 166.305834 57.577671 
L 167.604452 57.442258 
L 168.253761 57.265256 
L 169.55238 57.635938 
L 170.201689 57.519194 
L 171.500307 57.547295 
L 172.149616 57.718489 
L 174.097543 57.622905 
L 175.396161 57.924549 
L 176.04547 57.884166 
L 176.69478 57.987165 
L 177.344089 57.927555 
L 177.993398 57.711347 
L 179.292016 57.859082 
L 180.590634 57.957504 
L 181.239943 57.844496 
L 183.83718 58.22084 
L 185.785107 57.910947 
L 186.434416 58.19562 
L 187.083725 58.160695 
L 187.733034 58.274341 
L 188.382343 58.070004 
L 189.031652 58.188608 
L 189.680961 58.121627 
L 190.33027 58.361848 
L 190.97958 58.147495 
L 191.628889 58.299729 
L 192.278198 58.289285 
L 192.927507 58.479159 
L 197.47267 58.356932 
L 198.12198 58.64071 
L 198.771289 58.477147 
L 199.420598 58.525058 
L 200.069907 58.748463 
L 200.719216 58.839886 
L 201.368525 58.665285 
L 202.017834 58.714787 
L 202.667143 58.58277 
L 203.965761 58.747883 
L 204.61507 58.967055 
L 205.913689 58.652732 
L 206.562998 58.910738 
L 207.212307 58.87171 
L 207.861616 59.047554 
L 208.510925 58.750337 
L 209.160234 59.017571 
L 210.458852 58.906827 
L 211.108161 59.220433 
L 211.75747 59.121608 
L 212.40678 59.135342 
L 213.056089 58.857288 
L 213.705398 59.202956 
L 215.004016 59.380085 
L 215.653325 59.523253 
L 216.302634 59.389131 
L 216.951943 59.4309 
L 217.601252 59.343069 
L 219.54918 59.517768 
L 220.198489 59.607863 
L 220.847798 59.501268 
L 221.497107 59.540072 
L 222.146416 59.703945 
L 222.795725 59.511778 
L 223.445034 59.79626 
L 224.094343 59.617247 
L 237.729834 60.42637 
L 239.028452 60.435196 
L 239.677761 60.503463 
L 240.32707 60.418544 
L 240.97638 60.557205 
L 241.625689 60.327008 
L 242.274998 60.710084 
L 242.924307 60.373527 
L 243.573616 60.589307 
L 244.872234 60.566976 
L 245.521543 60.72237 
L 246.170852 60.680945 
L 247.46947 60.918296 
L 248.11878 60.719829 
L 248.768089 60.838795 
L 249.417398 60.823522 
L 250.066707 61.051858 
L 252.663943 60.945395 
L 253.313252 61.014514 
L 253.962561 60.914934 
L 255.26118 61.158704 
L 257.209107 61.186299 
L 257.858416 61.026046 
L 259.806343 61.418883 
L 261.104961 61.282259 
L 261.75427 61.189248 
L 262.40358 61.40039 
L 265.650125 61.45572 
L 266.299434 61.607815 
L 267.598052 61.438776 
L 268.247361 61.602609 
L 268.89667 61.636782 
L 269.54598 61.528268 
L 272.143216 61.725117 
L 274.091143 61.716785 
L 276.03907 61.853339 
L 277.337689 61.863527 
L 278.636307 61.931203 
L 279.285616 61.778575 
L 279.934925 61.962241 
L 281.882852 61.958504 
L 283.83078 62.053128 
L 285.778707 62.115687 
L 289.025252 62.123429 
L 289.674561 62.240998 
L 291.622489 62.236585 
L 296.816961 62.388663 
L 297.46627 62.322695 
L 298.11558 62.404354 
L 298.764889 62.327348 
L 300.712816 62.475345 
L 301.362125 62.514036 
L 302.011434 62.43849 
L 305.907289 62.574674 
L 314.348307 62.778655 
L 314.997616 62.865681 
L 315.646925 62.743938 
L 316.296234 62.877459 
L 316.945543 62.715955 
L 318.244161 62.837759 
L 318.89347 62.788944 
L 319.54278 62.8637 
L 320.192089 62.792086 
L 320.841398 62.882865 
L 322.140016 62.862055 
L 322.789325 62.963515 
L 323.438634 62.846184 
L 338.372743 63.127244 
L 340.32067 63.09795 
L 341.619289 63.184131 
L 348.11238 63.22856 
L 350.060307 63.285723 
L 352.008234 63.258688 
L 355.25478 63.309748 
L 364.994416 63.430259 
L 366.293034 63.419234 
L 381.227143 63.515225 
L 392.265398 63.589187 
L 392.265398 63.589187 
" clip-path="url(#p3ff3a8fe30)" style="fill: none; stroke: #1f77b4; stroke-width: 1.5; stroke-linecap: square"/>
   </g>
   <g id="line2d_35">
    <path d="M 67.610852 49.701498 
L 68.260161 62.676035 
L 68.90947 72.531151 
L 70.208089 86.396249 
L 71.506707 97.520956 
L 72.156016 102.036487 
L 72.805325 104.687537 
L 73.454634 108.780014 
L 74.103943 111.284704 
L 74.753252 111.229674 
L 75.402561 35.682319 
L 76.05187 83.371556 
L 76.70118 93.310067 
L 77.999798 104.453676 
L 78.649107 108.162987 
L 79.298416 108.853255 
L 79.947725 113.164768 
L 80.597034 113.855054 
L 81.246343 114.910057 
L 81.895652 117.918026 
L 82.544961 118.441335 
L 83.19427 120.047909 
L 83.84358 101.055946 
L 84.492889 118.38941 
L 85.142198 121.167724 
L 85.791507 114.10399 
L 86.440816 124.01863 
L 87.090125 123.814805 
L 87.739434 110.778694 
L 88.388743 127.719863 
L 89.038052 116.977449 
L 89.687361 123.886101 
L 90.33667 123.397773 
L 90.98598 128.648509 
L 91.635289 106.634651 
L 92.284598 126.337204 
L 92.933907 134.188333 
L 93.583216 135.007997 
L 94.232525 132.291158 
L 94.881834 137.617848 
L 96.180452 129.210695 
L 98.12838 141.377179 
L 98.777689 139.422119 
L 99.426998 132.092561 
L 100.076307 113.931909 
L 100.725616 139.213629 
L 101.374925 130.260698 
L 102.024234 139.783965 
L 102.673543 113.458243 
L 103.322852 135.412579 
L 103.972161 126.76032 
L 104.62147 125.86303 
L 105.27078 141.509703 
L 105.920089 143.606133 
L 106.569398 128.715133 
L 107.218707 147.834113 
L 107.868016 130.971818 
L 108.517325 145.59923 
L 109.166634 135.434594 
L 109.815943 129.931102 
L 110.465252 144.984914 
L 111.114561 146.955338 
L 111.76387 137.010299 
L 112.41318 136.50404 
L 113.062489 151.914958 
L 113.711798 156.853679 
L 114.361107 154.340973 
L 115.010416 157.452398 
L 115.659725 148.620501 
L 116.309034 154.000411 
L 116.958343 139.484986 
L 117.607652 148.938769 
L 118.256961 154.04472 
L 118.90627 153.670675 
L 119.55558 156.970547 
L 120.204889 147.497339 
L 120.854198 126.430154 
L 122.802125 155.162292 
L 123.451434 162.76468 
L 124.100743 158.198322 
L 124.750052 156.529934 
L 125.399361 166.378027 
L 126.04867 160.344871 
L 126.69798 140.869612 
L 127.347289 160.176102 
L 127.996598 155.893127 
L 128.645907 163.713495 
L 129.295216 164.464129 
L 129.944525 166.669048 
L 130.593834 161.098261 
L 131.243143 164.351696 
L 131.892452 166.360679 
L 132.541761 164.279424 
L 133.19107 161.575239 
L 133.84038 151.018993 
L 134.489689 159.706129 
L 135.138998 161.874411 
L 135.788307 151.068903 
L 136.437616 146.586021 
L 137.086925 168.808741 
L 137.736234 159.021801 
L 138.385543 169.659724 
L 139.034852 167.446922 
L 140.33347 158.002662 
L 140.98278 165.953741 
L 141.632089 167.09872 
L 142.281398 169.230006 
L 142.930707 171.909694 
L 143.580016 161.426006 
L 144.229325 175.000718 
L 144.878634 172.306106 
L 145.527943 168.213205 
L 146.177252 175.997818 
L 146.826561 169.947475 
L 147.47587 168.391285 
L 148.12518 169.770066 
L 148.774489 128.071994 
L 149.423798 175.513698 
L 150.073107 168.370519 
L 150.722416 163.694039 
L 151.371725 151.819378 
L 152.021034 155.471867 
L 152.670343 137.298076 
L 153.319652 172.727325 
L 153.968961 170.775259 
L 154.61827 172.85541 
L 155.26758 155.031521 
L 155.916889 181.231605 
L 156.566198 138.375352 
L 157.215507 155.225586 
L 157.864816 162.383743 
L 158.514125 173.980643 
L 159.163434 178.592082 
L 159.812743 177.035068 
L 160.462052 176.937609 
L 161.111361 185.353353 
L 161.76067 174.978396 
L 162.40998 179.614469 
L 163.059289 181.862812 
L 163.708598 179.046872 
L 164.357907 179.207678 
L 165.007216 170.64911 
L 165.656525 176.480631 
L 166.305834 186.544177 
L 166.955143 135.51645 
L 167.604452 160.743218 
L 168.253761 178.34581 
L 169.55238 164.338559 
L 170.201689 191.445388 
L 170.850998 188.664477 
L 171.500307 182.934533 
L 172.149616 188.610222 
L 172.798925 146.664457 
L 173.448234 191.354147 
L 174.097543 180.847244 
L 174.746852 182.661849 
L 175.396161 163.894826 
L 176.69478 194.387936 
L 177.344089 189.208242 
L 177.993398 187.864748 
L 178.642707 177.990478 
L 179.292016 161.179176 
L 179.941325 183.188426 
L 180.590634 147.43338 
L 181.239943 193.229148 
L 181.889252 187.72065 
L 182.538561 181.120893 
L 183.18787 178.891243 
L 183.83718 187.747031 
L 184.486489 173.052532 
L 185.135798 194.860111 
L 185.785107 180.022426 
L 186.434416 183.173463 
L 187.733034 197.456513 
L 188.382343 196.43119 
L 189.031652 196.735966 
L 189.680961 189.237415 
L 190.33027 179.522737 
L 190.97958 190.949528 
L 191.628889 188.672569 
L 192.278198 190.209785 
L 192.927507 198.445211 
L 193.576816 195.351498 
L 194.226125 189.865357 
L 194.875434 171.254508 
L 195.524743 198.208306 
L 196.174052 198.645424 
L 196.823361 197.807878 
L 197.47267 185.589236 
L 198.12198 186.481936 
L 198.771289 193.656828 
L 199.420598 199.097284 
L 200.069907 196.932801 
L 200.719216 184.939362 
L 201.368525 182.618184 
L 202.017834 189.295921 
L 202.667143 201.102699 
L 203.316452 199.216531 
L 203.965761 190.705967 
L 204.61507 192.932455 
L 205.26438 191.240424 
L 205.913689 187.979229 
L 206.562998 200.317835 
L 207.212307 165.533017 
L 207.861616 198.712569 
L 208.510925 201.624684 
L 209.160234 200.63612 
L 209.809543 191.846633 
L 210.458852 191.807195 
L 211.108161 201.133558 
L 211.75747 201.437559 
L 212.40678 202.563473 
L 213.056089 202.386737 
L 213.705398 182.92637 
L 215.004016 198.720818 
L 215.653325 197.763754 
L 216.302634 203.152189 
L 216.951943 202.089744 
L 217.601252 196.107733 
L 218.250561 200.806044 
L 218.89987 203.766177 
L 219.54918 187.633847 
L 220.198489 205.534801 
L 220.847798 201.757018 
L 221.497107 189.772439 
L 222.146416 193.993132 
L 222.795725 196.584452 
L 223.445034 205.585796 
L 224.094343 201.99164 
L 224.743652 205.172813 
L 225.392961 206.03251 
L 226.04227 205.180841 
L 226.69158 202.910403 
L 227.340889 198.668266 
L 227.990198 183.714665 
L 228.639507 202.3457 
L 229.288816 200.295633 
L 229.938125 206.867259 
L 230.587434 201.487647 
L 231.236743 202.290042 
L 231.886052 199.425435 
L 232.535361 202.130878 
L 233.18467 206.356917 
L 233.83398 203.956759 
L 234.483289 205.671816 
L 235.132598 204.19698 
L 235.781907 207.15623 
L 236.431216 203.010544 
L 237.080525 206.052293 
L 237.729834 206.888505 
L 238.379143 207.173612 
L 239.028452 201.352083 
L 239.677761 206.912094 
L 240.32707 200.664176 
L 240.97638 200.378565 
L 241.625689 206.651752 
L 242.274998 206.059323 
L 242.924307 204.964002 
L 243.573616 206.549339 
L 244.222925 207.231219 
L 244.872234 205.137303 
L 245.521543 201.87996 
L 246.170852 157.641437 
L 246.820161 207.689946 
L 247.46947 207.916735 
L 248.11878 192.378343 
L 248.768089 208.546559 
L 249.417398 208.614955 
L 250.066707 206.100627 
L 250.716016 205.429698 
L 251.365325 207.89321 
L 252.014634 207.560216 
L 252.663943 209.047036 
L 253.313252 207.809089 
L 253.962561 203.293475 
L 254.61187 200.140179 
L 255.26118 206.718171 
L 255.910489 208.215823 
L 256.559798 209.383456 
L 257.209107 202.577325 
L 257.858416 206.421644 
L 258.507725 195.380015 
L 259.157034 205.404478 
L 259.806343 208.030226 
L 260.455652 202.74051 
L 261.104961 209.405956 
L 261.75427 207.969257 
L 262.40358 207.247167 
L 263.052889 208.676507 
L 263.702198 208.211524 
L 264.351507 209.003895 
L 265.000816 208.97187 
L 265.650125 189.754943 
L 266.299434 209.20363 
L 266.948743 205.344712 
L 267.598052 209.94135 
L 268.247361 207.422569 
L 268.89667 208.060047 
L 269.54598 206.546754 
L 270.195289 208.259165 
L 270.844598 190.824744 
L 271.493907 209.39413 
L 272.143216 210.167817 
L 272.792525 204.419007 
L 273.441834 210.188319 
L 274.091143 209.405666 
L 274.740452 198.697791 
L 276.03907 208.163463 
L 277.337689 209.279562 
L 277.986998 210.254351 
L 278.636307 209.983943 
L 279.285616 209.880236 
L 279.934925 210.706862 
L 280.584234 209.213459 
L 281.233543 206.075723 
L 281.882852 206.821067 
L 282.532161 209.731929 
L 283.18147 208.252741 
L 283.83078 210.269177 
L 284.480089 210.491304 
L 285.129398 208.338139 
L 285.778707 210.894722 
L 286.428016 208.849893 
L 287.077325 210.5861 
L 287.726634 207.798173 
L 288.375943 209.462849 
L 289.025252 210.23623 
L 289.674561 209.229182 
L 290.32387 210.386005 
L 290.97318 209.346281 
L 291.622489 211.438452 
L 292.271798 208.533519 
L 292.921107 210.723148 
L 293.570416 210.4436 
L 294.219725 210.911468 
L 294.869034 210.040236 
L 295.518343 205.507298 
L 296.167652 209.068344 
L 296.816961 210.981448 
L 298.11558 210.874641 
L 298.764889 210.091218 
L 300.063507 211.311416 
L 300.712816 198.763528 
L 302.011434 210.723564 
L 302.660743 210.197978 
L 303.310052 211.182692 
L 303.959361 211.044465 
L 304.60867 209.363965 
L 305.25798 210.634999 
L 305.907289 209.327118 
L 306.556598 210.552878 
L 307.205907 205.759881 
L 307.855216 209.534253 
L 308.504525 211.422873 
L 309.153834 206.128222 
L 309.803143 211.677095 
L 310.452452 211.425892 
L 311.101761 210.482775 
L 312.40038 211.690333 
L 313.049689 211.21618 
L 313.698998 209.655784 
L 314.348307 211.016167 
L 314.997616 211.35759 
L 315.646925 212.029385 
L 316.296234 211.966454 
L 316.945543 210.231336 
L 317.594852 207.936443 
L 318.244161 208.113317 
L 318.89347 210.2391 
L 319.54278 211.487185 
L 320.192089 211.375858 
L 320.841398 211.814396 
L 322.140016 211.914214 
L 322.789325 211.672728 
L 323.438634 211.855679 
L 324.087943 210.820545 
L 324.737252 208.300726 
L 325.386561 210.497952 
L 326.03587 211.335494 
L 326.68518 211.201665 
L 327.334489 212.04561 
L 327.983798 207.538757 
L 328.633107 211.281884 
L 329.282416 211.951375 
L 329.931725 211.685768 
L 330.581034 211.552099 
L 331.230343 211.801778 
L 331.879652 211.671607 
L 332.528961 212.158765 
L 333.17827 211.782198 
L 334.476889 212.040245 
L 335.126198 211.172438 
L 335.775507 212.271918 
L 336.424816 210.999812 
L 337.074125 211.721224 
L 337.723434 210.074988 
L 338.372743 212.249216 
L 339.022052 211.948607 
L 339.671361 212.179346 
L 340.32067 210.510417 
L 340.96998 212.168707 
L 341.619289 212.255698 
L 342.268598 211.87481 
L 342.917907 212.187269 
L 343.567216 212.349009 
L 344.216525 212.25905 
L 344.865834 211.677184 
L 346.164452 212.047931 
L 346.813761 212.648228 
L 347.46307 212.003184 
L 348.11238 212.38453 
L 348.761689 211.75289 
L 349.410998 211.322342 
L 350.060307 211.981522 
L 350.709616 212.392719 
L 351.358925 211.720737 
L 352.008234 210.268556 
L 352.657543 211.866721 
L 353.306852 212.501994 
L 353.956161 212.444984 
L 354.60547 212.139968 
L 355.25478 212.074142 
L 355.904089 212.519604 
L 356.553398 212.180347 
L 357.202707 212.559951 
L 357.852016 212.278478 
L 358.501325 212.227491 
L 359.150634 212.419232 
L 359.799943 212.149364 
L 361.098561 212.245512 
L 361.74787 212.580963 
L 362.39718 212.495373 
L 363.046489 212.546796 
L 363.695798 212.187894 
L 364.345107 212.428964 
L 364.994416 212.483979 
L 365.643725 211.710078 
L 366.293034 211.68305 
L 366.942343 212.715334 
L 367.591652 212.384447 
L 368.240961 212.359907 
L 368.89027 212.489177 
L 369.53958 212.186574 
L 370.188889 212.669843 
L 370.838198 210.225259 
L 371.487507 211.797474 
L 372.136816 212.655823 
L 373.435434 212.097316 
L 374.084743 212.475912 
L 374.734052 212.244566 
L 375.383361 212.724063 
L 376.03267 212.159926 
L 377.331289 212.607317 
L 377.980598 212.544436 
L 378.629907 212.048613 
L 379.279216 212.645984 
L 379.928525 211.915279 
L 380.577834 212.782118 
L 381.227143 212.290291 
L 381.876452 212.281983 
L 382.525761 212.666205 
L 383.82438 212.57395 
L 384.473689 212.814741 
L 385.772307 212.444407 
L 386.421616 212.83201 
L 387.070925 212.532932 
L 387.720234 212.466986 
L 388.369543 212.633768 
L 389.018852 211.978111 
L 390.31747 213.028721 
L 390.96678 212.858152 
L 391.616089 212.495887 
L 392.265398 212.277097 
L 392.265398 212.277097 
" clip-path="url(#p3ff3a8fe30)" style="fill: none; stroke: #ff7f0e; stroke-width: 1.5; stroke-linecap: square"/>
   </g>
   <g id="line2d_36">
    <path d="M 67.610852 49.643673 
L 68.260161 63.617213 
L 68.90947 73.144199 
L 69.55878 80.55147 
L 70.857398 91.957451 
L 71.506707 95.365257 
L 72.156016 97.78331 
L 72.805325 102.309703 
L 73.454634 105.971779 
L 74.753252 110.564301 
L 75.402561 113.263465 
L 76.05187 112.927532 
L 76.70118 113.486773 
L 77.350489 117.371918 
L 77.999798 103.711896 
L 78.649107 115.57164 
L 79.298416 118.948873 
L 79.947725 117.231976 
L 80.597034 119.057985 
L 81.246343 123.771921 
L 81.895652 123.898949 
L 82.544961 122.697747 
L 83.19427 102.836187 
L 83.84358 127.150055 
L 84.492889 127.210567 
L 85.791507 124.363328 
L 86.440816 118.088767 
L 87.090125 116.223749 
L 87.739434 120.920346 
L 88.388743 126.548227 
L 89.038052 127.384766 
L 89.687361 126.391483 
L 90.33667 132.158988 
L 90.98598 114.864095 
L 91.635289 118.987154 
L 92.284598 128.698547 
L 92.933907 123.747071 
L 93.583216 135.038309 
L 94.232525 132.080263 
L 94.881834 127.039266 
L 95.531143 118.413619 
L 96.180452 126.986752 
L 96.829761 120.058037 
L 97.47907 125.158528 
L 98.12838 128.390786 
L 98.777689 136.660334 
L 99.426998 136.720891 
L 100.076307 133.864395 
L 100.725616 130.324534 
L 101.374925 135.967132 
L 102.024234 128.877954 
L 102.673543 123.286747 
L 103.322852 121.203503 
L 103.972161 132.60168 
L 104.62147 134.988517 
L 105.27078 132.604849 
L 105.920089 129.243915 
L 106.569398 134.314239 
L 107.218707 134.842984 
L 107.868016 132.764007 
L 108.517325 128.568635 
L 109.166634 122.702011 
L 109.815943 113.467228 
L 110.465252 120.682695 
L 111.114561 85.895192 
L 111.76387 133.049026 
L 112.41318 135.338841 
L 113.062489 135.570055 
L 113.711798 121.560964 
L 114.361107 134.3021 
L 115.010416 136.304496 
L 115.659725 139.522997 
L 116.958343 132.520663 
L 117.607652 142.396981 
L 118.256961 136.751249 
L 118.90627 137.964245 
L 119.55558 140.901906 
L 120.204889 134.109326 
L 120.854198 141.699915 
L 121.503507 128.059391 
L 122.152816 134.916101 
L 122.802125 133.081057 
L 123.451434 121.536977 
L 124.100743 133.739186 
L 124.750052 133.753296 
L 125.399361 130.664578 
L 126.04867 142.907411 
L 126.69798 138.342469 
L 127.347289 137.375241 
L 127.996598 135.771427 
L 128.645907 137.715562 
L 129.295216 147.569196 
L 129.944525 133.557537 
L 130.593834 148.577084 
L 131.243143 144.656066 
L 131.892452 146.912983 
L 132.541761 144.505363 
L 133.19107 138.922585 
L 133.84038 149.30282 
L 134.489689 144.604831 
L 135.138998 143.403562 
L 135.788307 146.972306 
L 136.437616 128.825598 
L 137.086925 141.758585 
L 137.736234 143.288959 
L 138.385543 142.450075 
L 139.034852 139.017573 
L 139.684161 136.324703 
L 140.33347 135.176535 
L 140.98278 134.421971 
L 141.632089 117.562026 
L 142.281398 138.029239 
L 142.930707 146.689742 
L 144.229325 140.989955 
L 144.878634 141.369425 
L 145.527943 148.812479 
L 146.177252 143.99208 
L 146.826561 133.793934 
L 147.47587 142.829057 
L 148.12518 148.758879 
L 148.774489 148.288065 
L 149.423798 149.942439 
L 150.073107 129.742562 
L 150.722416 144.245384 
L 151.371725 146.001742 
L 152.021034 139.352447 
L 152.670343 115.55829 
L 153.968961 152.905424 
L 154.61827 147.149777 
L 155.26758 123.288477 
L 155.916889 143.510594 
L 156.566198 100.916458 
L 157.215507 151.226578 
L 157.864816 149.514954 
L 158.514125 129.88115 
L 159.163434 137.723491 
L 159.812743 134.609575 
L 160.462052 145.386314 
L 161.111361 147.319209 
L 161.76067 131.030922 
L 162.40998 147.905608 
L 163.059289 143.550115 
L 163.708598 135.440646 
L 164.357907 136.573067 
L 165.007216 153.832415 
L 165.656525 152.370509 
L 166.305834 147.575207 
L 166.955143 149.934029 
L 167.604452 152.939183 
L 168.253761 148.177658 
L 168.90307 140.00639 
L 169.55238 146.462947 
L 170.201689 145.469207 
L 170.850998 150.209142 
L 171.500307 150.268563 
L 172.149616 144.455934 
L 172.798925 152.413479 
L 173.448234 156.494782 
L 174.097543 139.03291 
L 174.746852 132.503587 
L 175.396161 154.552934 
L 176.04547 134.23108 
L 176.69478 149.259608 
L 177.344089 151.793886 
L 178.642707 148.853185 
L 179.292016 146.93668 
L 179.941325 152.495793 
L 181.239943 145.326089 
L 181.889252 154.098792 
L 182.538561 147.620353 
L 183.18787 156.446749 
L 183.83718 152.169499 
L 184.486489 149.70787 
L 185.135798 154.215763 
L 185.785107 123.728621 
L 186.434416 150.459985 
L 187.083725 153.387372 
L 187.733034 153.071651 
L 188.382343 152.897769 
L 189.031652 158.756309 
L 189.680961 142.193882 
L 190.33027 133.735914 
L 190.97958 156.935405 
L 191.628889 149.673255 
L 192.278198 131.777871 
L 192.927507 158.912871 
L 193.576816 158.715178 
L 194.875434 149.47621 
L 195.524743 154.132163 
L 196.174052 148.351162 
L 196.823361 155.780432 
L 197.47267 156.216106 
L 198.12198 157.800069 
L 198.771289 146.575762 
L 199.420598 156.071613 
L 200.069907 158.720782 
L 200.719216 141.109466 
L 201.368525 160.685989 
L 202.017834 159.820453 
L 202.667143 142.863857 
L 203.965761 150.402631 
L 204.61507 161.74831 
L 205.26438 147.973862 
L 205.913689 138.48031 
L 206.562998 158.952163 
L 207.212307 161.374034 
L 207.861616 157.275633 
L 208.510925 158.533285 
L 209.160234 154.847224 
L 209.809543 156.289168 
L 210.458852 158.678319 
L 211.108161 158.23958 
L 211.75747 158.195072 
L 212.40678 160.856124 
L 213.056089 162.757751 
L 213.705398 154.624545 
L 215.004016 156.310832 
L 215.653325 151.824596 
L 216.302634 131.69229 
L 216.951943 163.684019 
L 217.601252 162.261036 
L 218.250561 163.514569 
L 218.89987 155.007131 
L 219.54918 161.283977 
L 220.198489 161.750488 
L 220.847798 160.404429 
L 221.497107 159.939584 
L 222.146416 149.671424 
L 222.795725 160.913647 
L 223.445034 163.34406 
L 224.094343 155.260301 
L 224.743652 155.66019 
L 225.392961 153.310244 
L 226.04227 132.236094 
L 226.69158 156.873909 
L 227.990198 162.864377 
L 228.639507 158.755618 
L 229.288816 164.181319 
L 229.938125 151.680795 
L 230.587434 163.222047 
L 231.236743 164.604809 
L 231.886052 162.604256 
L 232.535361 165.453343 
L 233.18467 162.313677 
L 233.83398 165.4748 
L 234.483289 162.415411 
L 235.132598 166.258275 
L 235.781907 149.293591 
L 236.431216 143.175819 
L 237.080525 160.230167 
L 237.729834 163.730933 
L 238.379143 165.810164 
L 239.028452 163.071896 
L 239.677761 156.572061 
L 240.32707 163.145941 
L 240.97638 161.818484 
L 241.625689 167.8618 
L 242.274998 162.366915 
L 242.924307 166.190218 
L 243.573616 156.833307 
L 244.222925 167.611671 
L 244.872234 165.75925 
L 245.521543 137.108018 
L 246.170852 164.326992 
L 246.820161 169.203024 
L 247.46947 166.049993 
L 248.11878 164.971272 
L 248.768089 161.678776 
L 249.417398 165.720249 
L 250.066707 167.666019 
L 250.716016 167.354556 
L 251.365325 169.834673 
L 252.014634 165.866744 
L 252.663943 168.118418 
L 253.962561 164.412302 
L 254.61187 162.621225 
L 255.26118 138.34828 
L 255.910489 167.202568 
L 256.559798 167.95965 
L 257.209107 163.304202 
L 257.858416 168.80896 
L 258.507725 152.606543 
L 259.157034 154.3993 
L 259.806343 169.6911 
L 260.455652 152.678262 
L 261.104961 167.741562 
L 261.75427 167.068268 
L 262.40358 169.253803 
L 263.052889 167.562419 
L 263.702198 169.73266 
L 264.351507 169.530526 
L 265.000816 169.753483 
L 265.650125 165.280981 
L 266.299434 168.143763 
L 266.948743 168.423927 
L 267.598052 169.682894 
L 268.247361 170.126426 
L 268.89667 169.134809 
L 269.54598 163.849284 
L 270.195289 166.673554 
L 270.844598 159.789333 
L 271.493907 169.702571 
L 272.143216 156.8498 
L 272.792525 170.223839 
L 273.441834 168.533149 
L 274.091143 160.548308 
L 274.740452 166.244103 
L 275.389761 164.731509 
L 276.03907 168.79497 
L 276.68838 168.843236 
L 277.337689 171.855146 
L 277.986998 169.590943 
L 278.636307 168.439487 
L 279.934925 156.633839 
L 280.584234 170.438188 
L 281.233543 172.538609 
L 281.882852 165.275827 
L 282.532161 169.891486 
L 283.83078 172.164615 
L 284.480089 171.014598 
L 285.129398 171.470606 
L 285.778707 166.580542 
L 286.428016 172.991013 
L 287.077325 170.420837 
L 287.726634 171.704182 
L 288.375943 169.176012 
L 289.025252 172.636169 
L 289.674561 171.271027 
L 290.32387 171.342496 
L 290.97318 171.235958 
L 291.622489 172.722778 
L 292.271798 170.585528 
L 292.921107 172.246646 
L 293.570416 170.290027 
L 294.219725 170.955402 
L 294.869034 171.932675 
L 295.518343 171.672219 
L 296.167652 171.680055 
L 296.816961 172.116089 
L 297.46627 167.17735 
L 298.11558 170.686695 
L 298.764889 170.583001 
L 299.414198 166.466576 
L 300.063507 173.929201 
L 300.712816 162.337174 
L 301.362125 173.953999 
L 302.011434 171.2688 
L 302.660743 157.668921 
L 303.310052 171.795561 
L 303.959361 173.405582 
L 304.60867 167.148927 
L 305.25798 173.479217 
L 305.907289 169.334889 
L 306.556598 173.914706 
L 307.205907 172.594764 
L 307.855216 171.688926 
L 308.504525 172.334878 
L 309.153834 173.89545 
L 309.803143 173.212459 
L 310.452452 173.109782 
L 311.101761 174.346724 
L 311.75107 173.242217 
L 312.40038 172.960493 
L 313.049689 173.309963 
L 313.698998 172.985305 
L 314.348307 174.012906 
L 314.997616 173.580586 
L 315.646925 170.27456 
L 316.296234 173.506245 
L 316.945543 174.870687 
L 317.594852 172.293277 
L 318.244161 175.227787 
L 318.89347 174.394587 
L 319.54278 161.492352 
L 320.192089 172.456145 
L 320.841398 174.547716 
L 321.490707 172.98132 
L 322.140016 167.581122 
L 322.789325 173.294847 
L 323.438634 175.157693 
L 324.087943 174.163793 
L 324.737252 172.726253 
L 325.386561 173.881095 
L 326.03587 174.518878 
L 326.68518 174.221216 
L 327.334489 175.354571 
L 327.983798 174.591741 
L 328.633107 172.986383 
L 329.282416 173.188214 
L 329.931725 175.223493 
L 330.581034 173.056849 
L 331.230343 174.274155 
L 331.879652 173.444623 
L 333.17827 174.989048 
L 333.82758 173.612471 
L 334.476889 174.651616 
L 335.126198 175.383811 
L 335.775507 173.182344 
L 336.424816 174.954543 
L 337.074125 175.676189 
L 337.723434 174.935676 
L 338.372743 175.59644 
L 339.022052 175.340922 
L 339.671361 174.925569 
L 340.32067 175.850574 
L 340.96998 173.402059 
L 341.619289 175.635592 
L 342.268598 175.353121 
L 342.917907 175.738476 
L 343.567216 161.282113 
L 344.216525 174.690098 
L 344.865834 173.478414 
L 345.515143 174.782296 
L 346.164452 172.978693 
L 346.813761 174.944797 
L 348.11238 175.581219 
L 348.761689 175.165784 
L 349.410998 175.539075 
L 350.060307 174.310512 
L 350.709616 175.427928 
L 351.358925 175.674628 
L 352.008234 172.652407 
L 352.657543 174.074773 
L 353.306852 176.228665 
L 353.956161 174.565051 
L 354.60547 166.684555 
L 355.25478 174.787852 
L 355.904089 175.38629 
L 356.553398 174.672043 
L 357.202707 174.774576 
L 357.852016 175.609303 
L 358.501325 175.587764 
L 359.150634 174.460726 
L 359.799943 174.467733 
L 360.449252 175.644884 
L 361.098561 175.027295 
L 361.74787 175.237423 
L 362.39718 175.820464 
L 363.695798 174.39957 
L 364.345107 174.921216 
L 364.994416 176.644729 
L 365.643725 175.720648 
L 366.942343 175.92092 
L 367.591652 174.04246 
L 368.240961 176.502418 
L 368.89027 174.471052 
L 369.53958 175.499702 
L 370.188889 175.607679 
L 370.838198 174.677037 
L 371.487507 176.008203 
L 372.136816 175.515023 
L 372.786125 176.112671 
L 373.435434 173.9555 
L 374.084743 176.238338 
L 374.734052 175.171472 
L 375.383361 175.438705 
L 376.03267 174.614247 
L 376.68198 175.619962 
L 377.331289 176.040096 
L 377.980598 175.510884 
L 378.629907 172.691002 
L 379.279216 175.482434 
L 379.928525 171.750095 
L 380.577834 176.452512 
L 381.227143 175.869693 
L 381.876452 175.950627 
L 382.525761 174.941604 
L 383.17507 175.122956 
L 383.82438 175.065625 
L 384.473689 173.815132 
L 385.122998 176.437318 
L 385.772307 175.712464 
L 386.421616 176.101196 
L 387.070925 175.808443 
L 387.720234 175.934548 
L 388.369543 175.889504 
L 389.018852 174.660507 
L 389.668161 176.694701 
L 390.31747 173.154879 
L 390.96678 176.013225 
L 391.616089 175.597859 
L 392.265398 175.957134 
L 392.265398 175.957134 
" clip-path="url(#p3ff3a8fe30)" style="fill: none; stroke: #2ca02c; stroke-width: 1.5; stroke-linecap: square"/>
   </g>
   <g id="line2d_37">
    <path d="M 67.610852 49.691536 
L 68.260161 63.131167 
L 68.90947 72.736219 
L 69.55878 79.116512 
L 70.208089 86.979483 
L 71.506707 97.75529 
L 72.156016 101.577114 
L 72.805325 106.551839 
L 73.454634 75.335027 
L 74.103943 88.204697 
L 75.402561 101.130715 
L 76.05187 104.401724 
L 76.70118 106.795895 
L 77.350489 111.766063 
L 77.999798 113.853591 
L 78.649107 116.455437 
L 79.298416 117.946469 
L 79.947725 119.158934 
L 80.597034 116.698726 
L 81.246343 123.39027 
L 81.895652 121.850822 
L 82.544961 122.49479 
L 83.19427 117.694773 
L 83.84358 127.035644 
L 84.492889 116.06166 
L 85.142198 117.902038 
L 85.791507 120.25102 
L 86.440816 128.51131 
L 87.090125 122.464859 
L 88.388743 132.398825 
L 89.038052 130.460138 
L 89.687361 134.52248 
L 90.33667 122.130706 
L 90.98598 125.54866 
L 91.635289 135.295792 
L 92.284598 128.613127 
L 92.933907 136.084842 
L 93.583216 132.815406 
L 94.232525 136.039283 
L 94.881834 117.27792 
L 95.531143 120.061662 
L 96.180452 128.840091 
L 96.829761 125.881715 
L 97.47907 135.840718 
L 98.12838 139.053842 
L 98.777689 138.179303 
L 99.426998 141.76913 
L 100.076307 135.844225 
L 100.725616 141.509422 
L 101.374925 132.825701 
L 102.024234 133.312679 
L 103.322852 121.627961 
L 103.972161 144.885932 
L 104.62147 148.091107 
L 105.27078 139.416484 
L 105.920089 138.74514 
L 106.569398 145.877767 
L 107.218707 134.513716 
L 107.868016 143.274618 
L 108.517325 122.445372 
L 109.166634 144.051568 
L 109.815943 146.695516 
L 110.465252 145.342512 
L 111.114561 147.39538 
L 111.76387 135.61222 
L 112.41318 135.687146 
L 113.062489 129.041058 
L 113.711798 144.621932 
L 114.361107 151.613234 
L 115.010416 137.344652 
L 115.659725 146.304029 
L 116.309034 144.942283 
L 116.958343 141.387183 
L 118.256961 149.189075 
L 118.90627 151.118764 
L 119.55558 148.697436 
L 120.204889 147.643695 
L 120.854198 143.934975 
L 121.503507 146.692827 
L 122.152816 137.589363 
L 122.802125 143.62214 
L 123.451434 142.297604 
L 124.100743 127.797398 
L 124.750052 152.518448 
L 125.399361 133.724312 
L 126.04867 141.850416 
L 126.69798 155.133014 
L 127.347289 149.179069 
L 127.996598 139.93566 
L 128.645907 146.356035 
L 129.295216 155.192519 
L 129.944525 153.449467 
L 130.593834 154.212259 
L 131.243143 152.013866 
L 131.892452 152.989716 
L 132.541761 147.988061 
L 133.19107 139.087976 
L 133.84038 160.350838 
L 134.489689 144.383271 
L 135.138998 153.909094 
L 135.788307 152.752283 
L 136.437616 156.112732 
L 137.086925 134.335864 
L 137.736234 157.923486 
L 138.385543 153.415312 
L 139.034852 162.236919 
L 139.684161 149.972534 
L 140.98278 134.963626 
L 141.632089 160.571162 
L 142.281398 158.005706 
L 142.930707 149.385175 
L 143.580016 162.67398 
L 144.229325 160.184086 
L 144.878634 142.002405 
L 145.527943 166.126458 
L 146.177252 155.178506 
L 146.826561 158.222305 
L 147.47587 128.095193 
L 148.12518 163.010498 
L 148.774489 161.000874 
L 149.423798 147.836164 
L 150.073107 160.195085 
L 150.722416 168.761554 
L 151.371725 169.141578 
L 152.021034 155.910711 
L 152.670343 159.490377 
L 153.319652 132.46986 
L 153.968961 139.531108 
L 154.61827 152.515041 
L 155.26758 163.123842 
L 155.916889 169.265087 
L 156.566198 166.721677 
L 157.215507 152.505919 
L 157.864816 159.2813 
L 158.514125 154.24907 
L 159.163434 167.454231 
L 159.812743 164.362905 
L 160.462052 169.373755 
L 161.111361 164.264626 
L 161.76067 171.592015 
L 162.40998 167.662107 
L 163.059289 161.145006 
L 163.708598 165.375391 
L 164.357907 175.147617 
L 165.007216 161.264001 
L 165.656525 170.067058 
L 166.305834 163.045659 
L 166.955143 167.808613 
L 168.253761 163.939566 
L 168.90307 173.731608 
L 169.55238 148.492274 
L 170.201689 173.936354 
L 170.850998 160.986764 
L 171.500307 173.807196 
L 172.149616 162.953726 
L 172.798925 159.635861 
L 173.448234 149.614487 
L 174.097543 173.940293 
L 174.746852 137.84969 
L 175.396161 143.343242 
L 176.04547 157.199975 
L 176.69478 158.760256 
L 177.344089 167.432461 
L 177.993398 152.20727 
L 178.642707 169.283454 
L 179.292016 159.538185 
L 179.941325 172.518253 
L 180.590634 171.415507 
L 181.239943 174.96708 
L 181.889252 165.413667 
L 182.538561 170.916506 
L 183.18787 174.133448 
L 183.83718 140.36467 
L 184.486489 162.535284 
L 185.135798 174.846412 
L 185.785107 167.325798 
L 186.434416 179.247515 
L 187.083725 176.163781 
L 187.733034 177.414551 
L 188.382343 161.662058 
L 189.031652 174.359727 
L 190.33027 164.027588 
L 190.97958 172.936651 
L 191.628889 156.919828 
L 192.278198 153.125918 
L 192.927507 171.65064 
L 193.576816 175.052932 
L 194.226125 176.942939 
L 194.875434 164.386791 
L 195.524743 182.197615 
L 196.174052 180.214258 
L 196.823361 180.545093 
L 197.47267 181.937161 
L 198.12198 170.389707 
L 198.771289 174.969949 
L 199.420598 176.696587 
L 200.069907 171.638802 
L 200.719216 163.102735 
L 201.368525 177.760215 
L 202.017834 174.537504 
L 202.667143 155.389988 
L 203.316452 173.767272 
L 203.965761 176.065986 
L 204.61507 174.07419 
L 205.26438 175.697387 
L 205.913689 178.934521 
L 206.562998 168.315492 
L 207.212307 177.22634 
L 207.861616 181.474686 
L 208.510925 179.332173 
L 209.160234 181.457869 
L 209.809543 160.804143 
L 210.458852 180.911049 
L 211.108161 183.787432 
L 211.75747 181.879952 
L 212.40678 166.643813 
L 213.056089 177.18287 
L 213.705398 172.109021 
L 214.354707 172.325817 
L 215.004016 183.113579 
L 215.653325 174.187405 
L 216.302634 181.474448 
L 216.951943 182.821078 
L 217.601252 175.772122 
L 218.250561 185.23105 
L 218.89987 181.361419 
L 219.54918 188.081879 
L 220.198489 172.623119 
L 220.847798 184.669414 
L 221.497107 178.537643 
L 222.146416 189.580265 
L 222.795725 183.829062 
L 223.445034 184.11572 
L 224.094343 185.917637 
L 224.743652 179.983108 
L 225.392961 178.63401 
L 226.04227 184.032887 
L 226.69158 182.880797 
L 227.340889 170.733235 
L 227.990198 186.925239 
L 228.639507 187.533702 
L 229.288816 187.854078 
L 230.587434 178.074403 
L 231.236743 186.532203 
L 231.886052 174.734716 
L 232.535361 183.01035 
L 233.18467 185.4597 
L 233.83398 182.97357 
L 234.483289 184.345505 
L 235.132598 188.358139 
L 235.781907 188.112343 
L 236.431216 185.766023 
L 237.080525 176.220727 
L 237.729834 181.251398 
L 238.379143 190.997047 
L 239.028452 166.682299 
L 239.677761 182.391066 
L 240.32707 181.475338 
L 240.97638 178.877975 
L 241.625689 188.07012 
L 242.274998 186.12741 
L 242.924307 187.421298 
L 243.573616 178.160669 
L 244.222925 189.32226 
L 244.872234 188.132224 
L 245.521543 170.080765 
L 246.170852 187.331622 
L 246.820161 187.902043 
L 247.46947 186.943502 
L 248.11878 189.343365 
L 248.768089 186.344324 
L 249.417398 181.776497 
L 250.716016 188.115523 
L 251.365325 190.243858 
L 252.014634 189.016517 
L 252.663943 188.81055 
L 253.313252 173.923984 
L 253.962561 182.31415 
L 254.61187 187.523606 
L 255.26118 190.697917 
L 255.910489 190.1556 
L 256.559798 189.071609 
L 257.209107 187.234427 
L 257.858416 191.678787 
L 258.507725 182.634687 
L 259.157034 178.848856 
L 259.806343 192.165532 
L 260.455652 181.657077 
L 261.104961 188.842258 
L 261.75427 188.958489 
L 262.40358 187.718093 
L 263.052889 184.204892 
L 263.702198 191.893655 
L 264.351507 188.460597 
L 265.000816 193.146385 
L 265.650125 190.345198 
L 266.299434 188.373379 
L 266.948743 192.148479 
L 267.598052 186.24932 
L 268.247361 188.617506 
L 268.89667 189.321499 
L 269.54598 189.674399 
L 270.195289 186.794379 
L 270.844598 189.698099 
L 271.493907 190.956587 
L 272.143216 189.192774 
L 272.792525 192.143546 
L 273.441834 186.951829 
L 274.091143 189.775578 
L 274.740452 189.486775 
L 275.389761 192.139392 
L 276.03907 190.271788 
L 276.68838 187.258959 
L 277.337689 187.840878 
L 277.986998 190.462907 
L 278.636307 190.388693 
L 279.285616 174.150114 
L 279.934925 179.736011 
L 280.584234 194.108237 
L 281.233543 193.221398 
L 281.882852 191.67687 
L 282.532161 192.417818 
L 283.18147 192.662728 
L 283.83078 192.178286 
L 284.480089 193.91012 
L 285.129398 192.548646 
L 285.778707 188.454174 
L 286.428016 188.347714 
L 287.077325 191.685511 
L 287.726634 193.042445 
L 288.375943 191.746243 
L 289.025252 192.578254 
L 289.674561 191.28727 
L 290.32387 190.472869 
L 290.97318 186.181117 
L 291.622489 191.933929 
L 292.271798 184.79694 
L 292.921107 173.622564 
L 293.570416 191.673842 
L 294.219725 193.503757 
L 294.869034 192.883257 
L 295.518343 191.64759 
L 296.167652 191.100903 
L 296.816961 191.208637 
L 297.46627 190.890943 
L 298.11558 184.182345 
L 298.764889 191.164296 
L 299.414198 192.090576 
L 300.063507 194.273733 
L 300.712816 174.382428 
L 301.362125 194.910305 
L 302.011434 187.634333 
L 302.660743 191.78358 
L 303.310052 193.091419 
L 303.959361 194.037757 
L 304.60867 186.253072 
L 305.25798 195.365652 
L 305.907289 186.171523 
L 306.556598 192.820225 
L 307.205907 193.454426 
L 307.855216 191.090944 
L 308.504525 194.721364 
L 309.153834 192.281406 
L 309.803143 194.857086 
L 310.452452 192.623136 
L 311.101761 195.401306 
L 311.75107 195.1442 
L 312.40038 194.417235 
L 313.049689 192.894729 
L 313.698998 190.221153 
L 314.348307 195.016762 
L 314.997616 191.976485 
L 315.646925 186.270946 
L 316.296234 195.489485 
L 316.945543 195.489047 
L 317.594852 191.803251 
L 318.244161 193.092738 
L 318.89347 195.05575 
L 319.54278 190.121207 
L 320.192089 193.588003 
L 320.841398 192.219643 
L 321.490707 191.193597 
L 322.140016 189.079567 
L 322.789325 195.349664 
L 323.438634 194.569257 
L 324.087943 193.613111 
L 324.737252 194.121252 
L 325.386561 194.378746 
L 326.03587 192.797138 
L 326.68518 193.345085 
L 327.334489 194.95608 
L 327.983798 193.830444 
L 328.633107 194.50864 
L 329.282416 191.652387 
L 329.931725 195.588165 
L 330.581034 194.660859 
L 331.230343 192.3674 
L 331.879652 194.255341 
L 332.528961 195.379095 
L 333.17827 192.586999 
L 333.82758 195.163054 
L 334.476889 195.041545 
L 335.126198 193.93897 
L 335.775507 191.995874 
L 336.424816 195.487558 
L 337.074125 195.603559 
L 337.723434 195.327855 
L 338.372743 195.482236 
L 339.022052 194.935596 
L 339.671361 195.168142 
L 340.32067 196.041583 
L 340.96998 193.138918 
L 341.619289 195.62155 
L 342.268598 193.119875 
L 342.917907 195.874848 
L 343.567216 187.405001 
L 344.216525 192.732661 
L 344.865834 194.917383 
L 345.515143 194.799267 
L 346.164452 193.315837 
L 347.46307 194.978969 
L 348.11238 194.911183 
L 348.761689 195.824938 
L 349.410998 195.432354 
L 350.060307 193.512033 
L 350.709616 193.214698 
L 351.358925 192.773106 
L 352.008234 196.195135 
L 352.657543 192.854158 
L 353.306852 195.415507 
L 353.956161 193.776029 
L 354.60547 190.74919 
L 355.25478 193.947356 
L 355.904089 194.427465 
L 356.553398 194.389411 
L 357.202707 195.374669 
L 358.501325 194.331335 
L 359.150634 195.939415 
L 359.799943 194.466147 
L 360.449252 191.344668 
L 361.098561 190.33781 
L 361.74787 195.679264 
L 362.39718 191.456292 
L 363.046489 194.828552 
L 363.695798 195.241869 
L 364.345107 194.767351 
L 364.994416 195.872371 
L 365.643725 194.748532 
L 366.293034 194.558983 
L 366.942343 195.752444 
L 367.591652 192.519936 
L 368.240961 196.361098 
L 368.89027 193.401735 
L 369.53958 195.409447 
L 370.188889 196.237823 
L 370.838198 192.798586 
L 371.487507 194.339225 
L 372.136816 195.047565 
L 372.786125 194.973518 
L 373.435434 190.79375 
L 374.084743 196.281682 
L 374.734052 194.516852 
L 375.383361 195.187965 
L 376.03267 195.436628 
L 376.68198 195.467944 
L 377.331289 195.200018 
L 377.980598 194.458547 
L 378.629907 193.000816 
L 379.279216 195.18569 
L 379.928525 190.212615 
L 380.577834 196.34141 
L 381.227143 195.190149 
L 381.876452 194.391963 
L 382.525761 195.548281 
L 383.17507 193.114089 
L 383.82438 196.145159 
L 384.473689 193.657523 
L 385.122998 195.038647 
L 385.772307 195.752913 
L 387.070925 194.602252 
L 387.720234 195.944849 
L 388.369543 194.919029 
L 389.018852 193.084241 
L 389.668161 196.239643 
L 390.31747 194.001642 
L 390.96678 195.721633 
L 391.616089 195.28324 
L 392.265398 193.637545 
L 392.265398 193.637545 
" clip-path="url(#p3ff3a8fe30)" style="fill: none; stroke: #d62728; stroke-width: 1.5; stroke-linecap: square"/>
   </g>
   <g id="line2d_38">
    <path d="M 67.610852 49.620578 
L 68.260161 48.818026 
L 68.90947 48.220752 
L 70.857398 48.995582 
L 71.506707 49.430769 
L 72.156016 50.381329 
L 72.805325 54.030226 
L 73.454634 48.753425 
L 74.753252 49.475075 
L 75.402561 49.823224 
L 76.05187 50.601252 
L 76.70118 50.860066 
L 77.350489 52.79584 
L 77.999798 52.46634 
L 78.649107 53.308178 
L 79.298416 52.935532 
L 79.947725 53.721402 
L 80.597034 53.955445 
L 81.895652 54.663691 
L 82.544961 49.924794 
L 83.19427 54.383502 
L 83.84358 53.385077 
L 84.492889 53.596272 
L 85.142198 54.146585 
L 86.440816 54.659336 
L 87.090125 55.313419 
L 87.739434 55.010345 
L 88.388743 55.012498 
L 89.038052 54.799079 
L 90.98598 53.418217 
L 91.635289 52.544194 
L 92.933907 51.241332 
L 94.232525 49.979489 
L 94.881834 48.918303 
L 95.531143 48.841509 
L 96.829761 48.007883 
L 97.47907 47.150389 
L 98.777689 46.901681 
L 99.426998 46.182057 
L 100.076307 45.787117 
L 101.374925 45.735682 
L 102.673543 45.357626 
L 104.62147 45.266589 
L 105.27078 45.161654 
L 105.920089 45.506593 
L 106.569398 45.15346 
L 108.517325 46.042424 
L 109.166634 46.016015 
L 109.815943 46.178364 
L 110.465252 46.483006 
L 111.76387 47.401802 
L 112.41318 47.585783 
L 113.062489 48.096819 
L 113.711798 48.40693 
L 114.361107 48.89005 
L 115.010416 48.919708 
L 115.659725 49.485058 
L 116.958343 49.972128 
L 117.607652 50.302371 
L 118.90627 50.597893 
L 119.55558 51.028259 
L 120.204889 50.987426 
L 121.503507 51.459897 
L 122.152816 51.483224 
L 122.802125 51.989854 
L 123.451434 51.820818 
L 126.04867 52.836165 
L 126.69798 52.664832 
L 127.347289 53.127435 
L 127.996598 53.106773 
L 128.645907 53.255055 
L 129.295216 53.641918 
L 129.944525 53.585202 
L 131.243143 54.009479 
L 132.541761 54.262538 
L 133.19107 54.545926 
L 134.489689 54.815877 
L 135.138998 54.681709 
L 135.788307 55.266648 
L 136.437616 55.321681 
L 137.086925 55.590641 
L 137.736234 55.494229 
L 138.385543 55.77841 
L 139.684161 55.959104 
L 140.33347 55.926772 
L 140.98278 56.191347 
L 141.632089 56.26137 
L 142.281398 56.58095 
L 142.930707 56.334367 
L 145.527943 56.887598 
L 146.177252 56.598172 
L 146.826561 56.953814 
L 147.47587 56.822997 
L 149.423798 57.175012 
L 151.371725 57.09764 
L 152.021034 57.499341 
L 152.670343 57.348935 
L 153.319652 57.469215 
L 153.968961 57.42536 
L 154.61827 57.166414 
L 155.26758 57.570473 
L 155.916889 57.69269 
L 156.566198 57.605847 
L 157.215507 57.723638 
L 157.864816 58.048698 
L 158.514125 57.55301 
L 159.163434 57.777946 
L 161.76067 57.960493 
L 162.40998 57.851201 
L 163.059289 58.109434 
L 164.357907 58.185565 
L 166.305834 58.360229 
L 166.955143 58.258003 
L 168.253761 58.324695 
L 169.55238 58.553127 
L 170.201689 58.483077 
L 170.850998 58.550936 
L 172.149616 58.508875 
L 172.798925 58.47452 
L 173.448234 58.67327 
L 174.097543 58.468496 
L 174.746852 58.747004 
L 175.396161 58.601722 
L 176.69478 58.99161 
L 177.344089 58.845678 
L 177.993398 59.034347 
L 178.642707 58.808873 
L 181.239943 59.255824 
L 181.889252 59.105252 
L 183.18787 59.042711 
L 184.486489 59.401537 
L 186.434416 59.217101 
L 187.083725 59.428421 
L 189.680961 59.684098 
L 190.33027 59.524073 
L 190.97958 59.951839 
L 195.524743 60.076918 
L 198.771289 60.364094 
L 200.719216 60.590141 
L 201.368525 60.654101 
L 202.017834 60.595884 
L 202.667143 60.767842 
L 203.965761 60.768459 
L 204.61507 61.202792 
L 205.26438 60.981634 
L 205.913689 60.902409 
L 207.861616 61.210359 
L 209.160234 61.230507 
L 209.809543 61.503356 
L 210.458852 61.336188 
L 212.40678 61.668209 
L 213.705398 61.638351 
L 215.004016 61.773127 
L 215.653325 61.763705 
L 216.302634 62.01564 
L 216.951943 61.983022 
L 217.601252 62.194227 
L 218.250561 62.091273 
L 219.54918 62.252654 
L 220.198489 62.262967 
L 220.847798 62.546856 
L 221.497107 62.367139 
L 222.146416 62.553364 
L 223.445034 62.473005 
L 224.743652 62.842997 
L 225.392961 62.803097 
L 226.69158 63.015437 
L 227.340889 62.989737 
L 228.639507 63.10593 
L 230.587434 63.230419 
L 231.886052 63.315308 
L 232.535361 63.316932 
L 233.18467 63.583145 
L 233.83398 63.650091 
L 234.483289 63.517068 
L 235.132598 63.665851 
L 235.781907 63.618115 
L 237.080525 63.761989 
L 239.677761 63.934628 
L 240.32707 64.132367 
L 240.97638 63.909508 
L 241.625689 64.198192 
L 243.573616 64.188873 
L 244.222925 64.395091 
L 244.872234 64.26779 
L 246.170852 64.39884 
L 247.46947 64.479089 
L 248.11878 64.655515 
L 248.768089 64.526491 
L 249.417398 64.58965 
L 250.066707 64.788277 
L 253.313252 64.891271 
L 257.209107 65.208922 
L 258.507725 65.225582 
L 259.157034 65.377653 
L 259.806343 65.286622 
L 260.455652 65.423764 
L 261.104961 65.398963 
L 261.75427 65.568906 
L 262.40358 65.512925 
L 263.052889 65.568951 
L 264.351507 65.49955 
L 265.000816 65.721629 
L 265.650125 65.734191 
L 266.299434 65.600603 
L 266.948743 65.729476 
L 269.54598 65.777394 
L 270.844598 65.930172 
L 271.493907 65.767914 
L 272.143216 66.02365 
L 272.792525 65.826623 
L 274.091143 66.123235 
L 274.740452 66.004025 
L 276.03907 66.130772 
L 276.68838 66.25823 
L 278.636307 66.16269 
L 279.934925 66.400882 
L 281.233543 66.35566 
L 281.882852 66.390919 
L 282.532161 66.307317 
L 283.18147 66.471412 
L 283.83078 66.372811 
L 285.778707 66.547129 
L 286.428016 66.603908 
L 287.726634 66.532027 
L 288.375943 66.522133 
L 289.674561 66.680572 
L 292.271798 66.834795 
L 292.921107 66.733909 
L 293.570416 66.924098 
L 294.219725 66.856769 
L 294.869034 66.933922 
L 296.167652 66.899482 
L 297.46627 66.987135 
L 298.11558 66.944439 
L 298.764889 67.145473 
L 299.414198 66.911013 
L 300.063507 66.937102 
L 300.712816 67.093731 
L 303.959361 67.13772 
L 304.60867 67.103104 
L 305.25798 67.252837 
L 309.153834 67.21495 
L 310.452452 67.386921 
L 312.40038 67.405966 
L 313.698998 67.389552 
L 314.348307 67.512042 
L 316.296234 67.433695 
L 322.789325 67.719024 
L 323.438634 67.61287 
L 326.68518 67.748636 
L 327.983798 67.745446 
L 329.931725 67.721246 
L 331.230343 67.874588 
L 332.528961 67.812956 
L 333.82758 67.895778 
L 335.126198 67.875356 
L 335.775507 67.928853 
L 337.074125 67.898794 
L 339.671361 68.028539 
L 340.32067 67.885841 
L 340.96998 68.056979 
L 341.619289 67.93383 
L 342.268598 68.013882 
L 343.567216 67.944105 
L 344.216525 68.086569 
L 346.813761 68.013133 
L 348.761689 68.17336 
L 349.410998 68.057801 
L 350.060307 68.161844 
L 351.358925 68.143054 
L 361.098561 68.281446 
L 363.046489 68.305472 
L 366.942343 68.318772 
L 368.240961 68.406065 
L 374.734052 68.484213 
L 376.68198 68.453752 
L 377.980598 68.500067 
L 378.629907 68.430882 
L 379.928525 68.526641 
L 380.577834 68.421442 
L 381.876452 68.459457 
L 386.421616 68.555168 
L 387.720234 68.582778 
L 391.616089 68.572486 
L 392.265398 68.558457 
L 392.265398 68.558457 
" clip-path="url(#p3ff3a8fe30)" style="fill: none; stroke: #9467bd; stroke-width: 1.5; stroke-linecap: square"/>
   </g>
   <g id="line2d_39">
    <path d="M 67.610852 49.616794 
L 68.260161 48.383731 
L 68.90947 49.086229 
L 69.55878 48.828497 
L 70.857398 48.749492 
L 71.506707 48.967282 
L 72.156016 49.067486 
L 72.805325 49.305123 
L 73.454634 48.52668 
L 74.103943 48.918693 
L 74.753252 48.542291 
L 76.05187 48.51017 
L 76.70118 48.744577 
L 78.649107 49.110311 
L 79.298416 49.356618 
L 81.246343 49.721175 
L 82.544961 51.146086 
L 83.19427 50.018713 
L 83.84358 50.027676 
L 84.492889 50.175614 
L 85.142198 50.629265 
L 85.791507 51.770634 
L 86.440816 54.842359 
L 87.090125 56.1563 
L 88.388743 55.961115 
L 89.038052 55.673103 
L 90.98598 55.402166 
L 91.635289 55.947348 
L 92.284598 55.519377 
L 92.933907 55.370387 
L 94.881834 55.554645 
L 95.531143 55.619316 
L 96.180452 55.459226 
L 98.12838 55.749609 
L 98.777689 56.166948 
L 99.426998 55.618167 
L 100.076307 55.983811 
L 100.725616 55.813204 
L 101.374925 55.977144 
L 103.972161 55.667391 
L 104.62147 56.136951 
L 105.920089 55.544483 
L 106.569398 55.688331 
L 113.062489 54.533535 
L 113.711798 54.091897 
L 114.361107 54.11342 
L 116.309034 53.25805 
L 116.958343 53.234747 
L 117.607652 53.008668 
L 118.256961 53.091586 
L 118.90627 52.479207 
L 119.55558 52.04238 
L 120.204889 51.754687 
L 120.854198 51.668976 
L 122.152816 51.07135 
L 122.802125 50.445103 
L 123.451434 50.776627 
L 124.100743 50.131989 
L 124.750052 50.022111 
L 125.399361 49.597016 
L 126.69798 49.266425 
L 127.347289 49.206434 
L 127.996598 48.759515 
L 130.593834 48.393226 
L 131.243143 48.095737 
L 131.892452 48.266569 
L 132.541761 47.958639 
L 133.19107 48.107271 
L 133.84038 47.895348 
L 134.489689 48.063765 
L 135.788307 47.691955 
L 136.437616 47.853319 
L 137.086925 47.877059 
L 137.736234 47.529072 
L 138.385543 47.315234 
L 139.034852 47.307396 
L 139.684161 47.743872 
L 140.33347 47.492666 
L 141.632089 47.327467 
L 142.281398 47.527313 
L 142.930707 47.229852 
L 143.580016 47.119631 
L 144.229325 47.33087 
L 145.527943 47.292977 
L 146.177252 47.42285 
L 146.826561 47.427516 
L 147.47587 47.251518 
L 148.12518 47.386227 
L 148.774489 47.231477 
L 149.423798 47.387834 
L 150.073107 47.073949 
L 150.722416 47.447456 
L 152.021034 47.469802 
L 152.670343 47.314324 
L 153.968961 47.68416 
L 154.61827 47.604995 
L 155.26758 47.758593 
L 155.916889 47.580459 
L 156.566198 47.825364 
L 157.215507 47.768967 
L 157.864816 48.120802 
L 158.514125 47.856893 
L 159.163434 47.935939 
L 159.812743 47.803762 
L 161.111361 48.342542 
L 161.76067 47.900509 
L 162.40998 48.241296 
L 163.059289 48.120947 
L 163.708598 48.287854 
L 164.357907 48.297851 
L 165.007216 48.597741 
L 165.656525 48.428885 
L 166.955143 48.269075 
L 167.604452 48.498614 
L 168.253761 48.362647 
L 168.90307 48.401652 
L 169.55238 48.625436 
L 170.201689 48.592316 
L 170.850998 48.728252 
L 171.500307 48.508167 
L 172.149616 48.799111 
L 173.448234 48.81087 
L 174.097543 48.546793 
L 174.746852 48.637617 
L 175.396161 49.059399 
L 176.04547 48.891409 
L 177.344089 49.232048 
L 178.642707 48.995312 
L 179.292016 49.259365 
L 180.590634 49.168754 
L 181.239943 49.188078 
L 181.889252 49.545913 
L 183.83718 49.201914 
L 184.486489 49.369707 
L 185.135798 49.344491 
L 186.434416 49.592314 
L 187.083725 49.475327 
L 188.382343 49.671555 
L 189.031652 49.851846 
L 190.33027 49.764546 
L 190.97958 49.944128 
L 191.628889 49.742495 
L 193.576816 50.025177 
L 195.524743 50.146169 
L 196.174052 49.90142 
L 196.823361 50.154045 
L 197.47267 50.041017 
L 201.368525 50.400681 
L 202.017834 50.287372 
L 202.667143 50.578473 
L 203.316452 50.392736 
L 203.965761 50.586914 
L 204.61507 50.625966 
L 205.26438 50.51921 
L 205.913689 50.735681 
L 208.510925 50.717865 
L 211.108161 50.750243 
L 213.056089 50.905366 
L 216.302634 50.914422 
L 217.601252 51.295251 
L 218.250561 51.073297 
L 220.198489 51.256659 
L 222.146416 51.384647 
L 222.795725 51.277089 
L 224.094343 51.458749 
L 225.392961 51.400876 
L 226.69158 51.691116 
L 227.340889 51.505255 
L 228.639507 51.672604 
L 229.288816 51.594937 
L 229.938125 51.932358 
L 230.587434 51.662548 
L 231.236743 51.953833 
L 231.886052 51.852327 
L 232.535361 51.977908 
L 233.18467 51.845107 
L 233.83398 51.983122 
L 235.132598 52.073911 
L 235.781907 52.137368 
L 236.431216 51.954772 
L 237.080525 51.986843 
L 238.379143 52.20121 
L 239.028452 52.069436 
L 243.573616 52.416104 
L 244.222925 52.331337 
L 246.170852 52.495717 
L 248.11878 52.592722 
L 248.768089 52.459562 
L 249.417398 52.478463 
L 250.716016 52.752297 
L 251.365325 52.617937 
L 252.014634 52.719892 
L 252.663943 52.690922 
L 253.313252 52.775761 
L 253.962561 52.694209 
L 254.61187 52.94829 
L 255.26118 52.750406 
L 257.209107 52.939477 
L 258.507725 52.83724 
L 259.157034 53.07294 
L 260.455652 53.055922 
L 263.052889 53.170759 
L 263.702198 53.123551 
L 264.351507 53.287596 
L 265.000816 53.280636 
L 265.650125 53.128509 
L 266.299434 53.283726 
L 267.598052 53.240527 
L 268.247361 53.178146 
L 268.89667 53.387367 
L 270.195289 53.463776 
L 270.844598 53.377624 
L 272.143216 53.477196 
L 272.792525 53.416997 
L 274.091143 53.537201 
L 274.740452 53.510014 
L 275.389761 53.667433 
L 281.882852 53.751721 
L 283.18147 53.874638 
L 287.077325 53.992598 
L 287.726634 54.12671 
L 288.375943 54.011557 
L 289.025252 54.054667 
L 289.674561 53.979929 
L 292.271798 54.039286 
L 296.167652 54.303897 
L 296.816961 54.421395 
L 297.46627 54.26313 
L 300.712816 54.390677 
L 301.362125 54.27293 
L 302.011434 54.423027 
L 317.594852 54.716569 
L 318.89347 54.828045 
L 319.54278 54.774947 
L 320.841398 54.885507 
L 321.490707 54.793366 
L 322.789325 54.921113 
L 324.737252 54.925294 
L 325.386561 54.995834 
L 326.03587 54.845536 
L 326.68518 54.944342 
L 327.334489 54.891175 
L 327.983798 54.970611 
L 329.282416 54.972413 
L 331.230343 54.9915 
L 332.528961 55.056243 
L 333.82758 55.120387 
L 335.775507 55.085547 
L 338.372743 55.099939 
L 339.022052 55.178163 
L 340.32067 55.106072 
L 341.619289 55.147371 
L 352.008234 55.338526 
L 352.657543 55.197144 
L 353.956161 55.308003 
L 354.60547 55.268392 
L 355.904089 55.348523 
L 383.17507 55.684374 
L 383.82438 55.522751 
L 384.473689 55.69507 
L 386.421616 55.605587 
L 389.018852 55.641507 
L 392.265398 55.664872 
L 392.265398 55.664872 
" clip-path="url(#p3ff3a8fe30)" style="fill: none; stroke: #8c564b; stroke-width: 1.5; stroke-linecap: square"/>
   </g>
   <g id="patch_3">
    <path d="M 51.378125 288.430125 
L 51.378125 22.318125 
" style="fill: none; stroke: #000000; stroke-width: 0.8; stroke-linejoin: miter; stroke-linecap: square"/>
   </g>
   <g id="patch_4">
    <path d="M 408.498125 288.430125 
L 408.498125 22.318125 
" style="fill: none; stroke: #000000; stroke-width: 0.8; stroke-linejoin: miter; stroke-linecap: square"/>
   </g>
   <g id="patch_5">
    <path d="M 51.378125 288.430125 
L 408.498125 288.430125 
" style="fill: none; stroke: #000000; stroke-width: 0.8; stroke-linejoin: miter; stroke-linecap: square"/>
   </g>
   <g id="patch_6">
    <path d="M 51.378125 22.318125 
L 408.498125 22.318125 
" style="fill: none; stroke: #000000; stroke-width: 0.8; stroke-linejoin: miter; stroke-linecap: square"/>
   </g>
   <g id="text_12">
    <!-- Validation Error $V$ -->
    <g transform="translate(177.018125 16.318125) scale(0.12 -0.12)">
     <defs>
      <path id="DejaVuSans-56" d="M 1831 0 
L 50 4666 
L 709 4666 
L 2188 738 
L 3669 4666 
L 4325 4666 
L 2547 0 
L 1831 0 
z
" transform="scale(0.015625)"/>
      <path id="DejaVuSans-6c" d="M 603 4863 
L 1178 4863 
L 1178 0 
L 603 0 
L 603 4863 
z
" transform="scale(0.015625)"/>
      <path id="DejaVuSans-69" d="M 603 3500 
L 1178 3500 
L 1178 0 
L 603 0 
L 603 3500 
z
M 603 4863 
L 1178 4863 
L 1178 4134 
L 603 4134 
L 603 4863 
z
" transform="scale(0.015625)"/>
      <path id="DejaVuSans-64" d="M 2906 2969 
L 2906 4863 
L 3481 4863 
L 3481 0 
L 2906 0 
L 2906 525 
Q 2725 213 2448 61 
Q 2172 -91 1784 -91 
Q 1150 -91 751 415 
Q 353 922 353 1747 
Q 353 2572 751 3078 
Q 1150 3584 1784 3584 
Q 2172 3584 2448 3432 
Q 2725 3281 2906 2969 
z
M 947 1747 
Q 947 1113 1208 752 
Q 1469 391 1925 391 
Q 2381 391 2643 752 
Q 2906 1113 2906 1747 
Q 2906 2381 2643 2742 
Q 2381 3103 1925 3103 
Q 1469 3103 1208 2742 
Q 947 2381 947 1747 
z
" transform="scale(0.015625)"/>
      <path id="DejaVuSans-Oblique-56" d="M 1319 0 
L 500 4666 
L 1119 4666 
L 1797 653 
L 4063 4666 
L 4750 4666 
L 2053 0 
L 1319 0 
z
" transform="scale(0.015625)"/>
     </defs>
     <use xlink:href="#DejaVuSans-56" transform="translate(0 0.015625)"/>
     <use xlink:href="#DejaVuSans-61" transform="translate(68.408203 0.015625)"/>
     <use xlink:href="#DejaVuSans-6c" transform="translate(129.6875 0.015625)"/>
     <use xlink:href="#DejaVuSans-69" transform="translate(157.470703 0.015625)"/>
     <use xlink:href="#DejaVuSans-64" transform="translate(185.253906 0.015625)"/>
     <use xlink:href="#DejaVuSans-61" transform="translate(248.730469 0.015625)"/>
     <use xlink:href="#DejaVuSans-74" transform="translate(310.009766 0.015625)"/>
     <use xlink:href="#DejaVuSans-69" transform="translate(349.21875 0.015625)"/>
     <use xlink:href="#DejaVuSans-6f" transform="translate(377.001953 0.015625)"/>
     <use xlink:href="#DejaVuSans-6e" transform="translate(438.183594 0.015625)"/>
     <use xlink:href="#DejaVuSans-20" transform="translate(501.5625 0.015625)"/>
     <use xlink:href="#DejaVuSans-45" transform="translate(533.349609 0.015625)"/>
     <use xlink:href="#DejaVuSans-72" transform="translate(596.533203 0.015625)"/>
     <use xlink:href="#DejaVuSans-72" transform="translate(637.646484 0.015625)"/>
     <use xlink:href="#DejaVuSans-6f" transform="translate(678.759766 0.015625)"/>
     <use xlink:href="#DejaVuSans-72" transform="translate(739.941406 0.015625)"/>
     <use xlink:href="#DejaVuSans-20" transform="translate(781.054688 0.015625)"/>
     <use xlink:href="#DejaVuSans-Oblique-56" transform="translate(812.841797 0.015625)"/>
    </g>
   </g>
   <g id="legend_1">
    <g id="patch_7">
     <path d="M 58.378125 283.430125 
L 289.378125 283.430125 
Q 291.378125 283.430125 291.378125 281.430125 
L 291.378125 194.273875 
Q 291.378125 192.273875 289.378125 192.273875 
L 58.378125 192.273875 
Q 56.378125 192.273875 56.378125 194.273875 
L 56.378125 281.430125 
Q 56.378125 283.430125 58.378125 283.430125 
z
" style="fill: #ffffff; opacity: 0.8; stroke: #cccccc; stroke-linejoin: miter"/>
    </g>
    <g id="line2d_40">
     <path d="M 60.378125 200.372312 
L 70.378125 200.372312 
L 80.378125 200.372312 
" style="fill: none; stroke: #1f77b4; stroke-width: 1.5; stroke-linecap: square"/>
    </g>
    <g id="text_13">
     <!-- FCNN, Physics -->
     <g transform="translate(88.378125 203.872312) scale(0.1 -0.1)">
      <defs>
       <path id="DejaVuSans-46" d="M 628 4666 
L 3309 4666 
L 3309 4134 
L 1259 4134 
L 1259 2759 
L 3109 2759 
L 3109 2228 
L 1259 2228 
L 1259 0 
L 628 0 
L 628 4666 
z
" transform="scale(0.015625)"/>
       <path id="DejaVuSans-43" d="M 4122 4306 
L 4122 3641 
Q 3803 3938 3442 4084 
Q 3081 4231 2675 4231 
Q 1875 4231 1450 3742 
Q 1025 3253 1025 2328 
Q 1025 1406 1450 917 
Q 1875 428 2675 428 
Q 3081 428 3442 575 
Q 3803 722 4122 1019 
L 4122 359 
Q 3791 134 3420 21 
Q 3050 -91 2638 -91 
Q 1578 -91 968 557 
Q 359 1206 359 2328 
Q 359 3453 968 4101 
Q 1578 4750 2638 4750 
Q 3056 4750 3426 4639 
Q 3797 4528 4122 4306 
z
" transform="scale(0.015625)"/>
       <path id="DejaVuSans-4e" d="M 628 4666 
L 1478 4666 
L 3547 763 
L 3547 4666 
L 4159 4666 
L 4159 0 
L 3309 0 
L 1241 3903 
L 1241 0 
L 628 0 
L 628 4666 
z
" transform="scale(0.015625)"/>
       <path id="DejaVuSans-2c" d="M 750 794 
L 1409 794 
L 1409 256 
L 897 -744 
L 494 -744 
L 750 256 
L 750 794 
z
" transform="scale(0.015625)"/>
       <path id="DejaVuSans-50" d="M 1259 4147 
L 1259 2394 
L 2053 2394 
Q 2494 2394 2734 2622 
Q 2975 2850 2975 3272 
Q 2975 3691 2734 3919 
Q 2494 4147 2053 4147 
L 1259 4147 
z
M 628 4666 
L 2053 4666 
Q 2838 4666 3239 4311 
Q 3641 3956 3641 3272 
Q 3641 2581 3239 2228 
Q 2838 1875 2053 1875 
L 1259 1875 
L 1259 0 
L 628 0 
L 628 4666 
z
" transform="scale(0.015625)"/>
       <path id="DejaVuSans-68" d="M 3513 2113 
L 3513 0 
L 2938 0 
L 2938 2094 
Q 2938 2591 2744 2837 
Q 2550 3084 2163 3084 
Q 1697 3084 1428 2787 
Q 1159 2491 1159 1978 
L 1159 0 
L 581 0 
L 581 4863 
L 1159 4863 
L 1159 2956 
Q 1366 3272 1645 3428 
Q 1925 3584 2291 3584 
Q 2894 3584 3203 3211 
Q 3513 2838 3513 2113 
z
" transform="scale(0.015625)"/>
       <path id="DejaVuSans-79" d="M 2059 -325 
Q 1816 -950 1584 -1140 
Q 1353 -1331 966 -1331 
L 506 -1331 
L 506 -850 
L 844 -850 
Q 1081 -850 1212 -737 
Q 1344 -625 1503 -206 
L 1606 56 
L 191 3500 
L 800 3500 
L 1894 763 
L 2988 3500 
L 3597 3500 
L 2059 -325 
z
" transform="scale(0.015625)"/>
       <path id="DejaVuSans-73" d="M 2834 3397 
L 2834 2853 
Q 2591 2978 2328 3040 
Q 2066 3103 1784 3103 
Q 1356 3103 1142 2972 
Q 928 2841 928 2578 
Q 928 2378 1081 2264 
Q 1234 2150 1697 2047 
L 1894 2003 
Q 2506 1872 2764 1633 
Q 3022 1394 3022 966 
Q 3022 478 2636 193 
Q 2250 -91 1575 -91 
Q 1294 -91 989 -36 
Q 684 19 347 128 
L 347 722 
Q 666 556 975 473 
Q 1284 391 1588 391 
Q 1994 391 2212 530 
Q 2431 669 2431 922 
Q 2431 1156 2273 1281 
Q 2116 1406 1581 1522 
L 1381 1569 
Q 847 1681 609 1914 
Q 372 2147 372 2553 
Q 372 3047 722 3315 
Q 1072 3584 1716 3584 
Q 2034 3584 2315 3537 
Q 2597 3491 2834 3397 
z
" transform="scale(0.015625)"/>
       <path id="DejaVuSans-63" d="M 3122 3366 
L 3122 2828 
Q 2878 2963 2633 3030 
Q 2388 3097 2138 3097 
Q 1578 3097 1268 2742 
Q 959 2388 959 1747 
Q 959 1106 1268 751 
Q 1578 397 2138 397 
Q 2388 397 2633 464 
Q 2878 531 3122 666 
L 3122 134 
Q 2881 22 2623 -34 
Q 2366 -91 2075 -91 
Q 1284 -91 818 406 
Q 353 903 353 1747 
Q 353 2603 823 3093 
Q 1294 3584 2113 3584 
Q 2378 3584 2631 3529 
Q 2884 3475 3122 3366 
z
" transform="scale(0.015625)"/>
      </defs>
      <use xlink:href="#DejaVuSans-46"/>
      <use xlink:href="#DejaVuSans-43" x="57.519531"/>
      <use xlink:href="#DejaVuSans-4e" x="127.34375"/>
      <use xlink:href="#DejaVuSans-4e" x="202.148438"/>
      <use xlink:href="#DejaVuSans-2c" x="276.953125"/>
      <use xlink:href="#DejaVuSans-20" x="308.740234"/>
      <use xlink:href="#DejaVuSans-50" x="340.527344"/>
      <use xlink:href="#DejaVuSans-68" x="400.830078"/>
      <use xlink:href="#DejaVuSans-79" x="464.208984"/>
      <use xlink:href="#DejaVuSans-73" x="523.388672"/>
      <use xlink:href="#DejaVuSans-69" x="575.488281"/>
      <use xlink:href="#DejaVuSans-63" x="603.271484"/>
      <use xlink:href="#DejaVuSans-73" x="658.251953"/>
     </g>
    </g>
    <g id="line2d_41">
     <path d="M 60.378125 215.050437 
L 70.378125 215.050437 
L 80.378125 215.050437 
" style="fill: none; stroke: #ff7f0e; stroke-width: 1.5; stroke-linecap: square"/>
    </g>
    <g id="text_14">
     <!-- FCNN, Data -->
     <g transform="translate(88.378125 218.550437) scale(0.1 -0.1)">
      <defs>
       <path id="DejaVuSans-44" d="M 1259 4147 
L 1259 519 
L 2022 519 
Q 2988 519 3436 956 
Q 3884 1394 3884 2338 
Q 3884 3275 3436 3711 
Q 2988 4147 2022 4147 
L 1259 4147 
z
M 628 4666 
L 1925 4666 
Q 3281 4666 3915 4102 
Q 4550 3538 4550 2338 
Q 4550 1131 3912 565 
Q 3275 0 1925 0 
L 628 0 
L 628 4666 
z
" transform="scale(0.015625)"/>
      </defs>
      <use xlink:href="#DejaVuSans-46"/>
      <use xlink:href="#DejaVuSans-43" x="57.519531"/>
      <use xlink:href="#DejaVuSans-4e" x="127.34375"/>
      <use xlink:href="#DejaVuSans-4e" x="202.148438"/>
      <use xlink:href="#DejaVuSans-2c" x="276.953125"/>
      <use xlink:href="#DejaVuSans-20" x="308.740234"/>
      <use xlink:href="#DejaVuSans-44" x="340.527344"/>
      <use xlink:href="#DejaVuSans-61" x="417.529297"/>
      <use xlink:href="#DejaVuSans-74" x="478.808594"/>
      <use xlink:href="#DejaVuSans-61" x="518.017578"/>
     </g>
    </g>
    <g id="line2d_42">
     <path d="M 60.378125 229.730125 
L 70.378125 229.730125 
L 80.378125 229.730125 
" style="fill: none; stroke: #2ca02c; stroke-width: 1.5; stroke-linecap: square"/>
    </g>
    <g id="text_15">
     <!-- FCNN, Data+Physics, $W_d=0.1$ -->
     <g transform="translate(88.378125 233.230125) scale(0.1 -0.1)">
      <defs>
       <path id="DejaVuSans-2b" d="M 2944 4013 
L 2944 2272 
L 4684 2272 
L 4684 1741 
L 2944 1741 
L 2944 0 
L 2419 0 
L 2419 1741 
L 678 1741 
L 678 2272 
L 2419 2272 
L 2419 4013 
L 2944 4013 
z
" transform="scale(0.015625)"/>
       <path id="DejaVuSans-Oblique-57" d="M 616 4666 
L 1228 4666 
L 1453 697 
L 3213 4666 
L 3916 4666 
L 4147 697 
L 5888 4666 
L 6528 4666 
L 4453 0 
L 3659 0 
L 3444 3891 
L 1697 0 
L 903 0 
L 616 4666 
z
" transform="scale(0.015625)"/>
       <path id="DejaVuSans-Oblique-64" d="M 2675 525 
Q 2444 222 2128 65 
Q 1813 -91 1428 -91 
Q 903 -91 598 267 
Q 294 625 294 1247 
Q 294 1766 478 2236 
Q 663 2706 1013 3078 
Q 1244 3325 1534 3454 
Q 1825 3584 2144 3584 
Q 2481 3584 2739 3421 
Q 2997 3259 3138 2956 
L 3513 4863 
L 4091 4863 
L 3144 0 
L 2566 0 
L 2675 525 
z
M 891 1350 
Q 891 897 1095 644 
Q 1300 391 1663 391 
Q 1931 391 2161 520 
Q 2391 650 2566 903 
Q 2750 1166 2856 1509 
Q 2963 1853 2963 2188 
Q 2963 2622 2758 2865 
Q 2553 3109 2194 3109 
Q 1922 3109 1687 2981 
Q 1453 2853 1288 2613 
Q 1106 2353 998 2009 
Q 891 1666 891 1350 
z
" transform="scale(0.015625)"/>
       <path id="DejaVuSans-3d" d="M 678 2906 
L 4684 2906 
L 4684 2381 
L 678 2381 
L 678 2906 
z
M 678 1631 
L 4684 1631 
L 4684 1100 
L 678 1100 
L 678 1631 
z
" transform="scale(0.015625)"/>
       <path id="DejaVuSans-2e" d="M 684 794 
L 1344 794 
L 1344 0 
L 684 0 
L 684 794 
z
" transform="scale(0.015625)"/>
      </defs>
      <use xlink:href="#DejaVuSans-46" transform="translate(0 0.015625)"/>
      <use xlink:href="#DejaVuSans-43" transform="translate(57.519531 0.015625)"/>
      <use xlink:href="#DejaVuSans-4e" transform="translate(127.34375 0.015625)"/>
      <use xlink:href="#DejaVuSans-4e" transform="translate(202.148438 0.015625)"/>
      <use xlink:href="#DejaVuSans-2c" transform="translate(276.953125 0.015625)"/>
      <use xlink:href="#DejaVuSans-20" transform="translate(308.740234 0.015625)"/>
      <use xlink:href="#DejaVuSans-44" transform="translate(340.527344 0.015625)"/>
      <use xlink:href="#DejaVuSans-61" transform="translate(417.529297 0.015625)"/>
      <use xlink:href="#DejaVuSans-74" transform="translate(478.808594 0.015625)"/>
      <use xlink:href="#DejaVuSans-61" transform="translate(518.017578 0.015625)"/>
      <use xlink:href="#DejaVuSans-2b" transform="translate(579.296875 0.015625)"/>
      <use xlink:href="#DejaVuSans-50" transform="translate(663.085938 0.015625)"/>
      <use xlink:href="#DejaVuSans-68" transform="translate(723.388672 0.015625)"/>
      <use xlink:href="#DejaVuSans-79" transform="translate(786.767578 0.015625)"/>
      <use xlink:href="#DejaVuSans-73" transform="translate(845.947266 0.015625)"/>
      <use xlink:href="#DejaVuSans-69" transform="translate(898.046875 0.015625)"/>
      <use xlink:href="#DejaVuSans-63" transform="translate(925.830078 0.015625)"/>
      <use xlink:href="#DejaVuSans-73" transform="translate(980.810547 0.015625)"/>
      <use xlink:href="#DejaVuSans-2c" transform="translate(1032.910156 0.015625)"/>
      <use xlink:href="#DejaVuSans-20" transform="translate(1064.697266 0.015625)"/>
      <use xlink:href="#DejaVuSans-Oblique-57" transform="translate(1096.484375 0.015625)"/>
      <use xlink:href="#DejaVuSans-Oblique-64" transform="translate(1195.361328 -16.390625) scale(0.7)"/>
      <use xlink:href="#DejaVuSans-3d" transform="translate(1262.011719 0.015625)"/>
      <use xlink:href="#DejaVuSans-30" transform="translate(1365.283203 0.015625)"/>
      <use xlink:href="#DejaVuSans-2e" transform="translate(1428.90625 0.015625)"/>
      <use xlink:href="#DejaVuSans-31" transform="translate(1460.693359 0.015625)"/>
     </g>
    </g>
    <g id="line2d_43">
     <path d="M 60.378125 244.430125 
L 70.378125 244.430125 
L 80.378125 244.430125 
" style="fill: none; stroke: #d62728; stroke-width: 1.5; stroke-linecap: square"/>
    </g>
    <g id="text_16">
     <!-- FCNN, Data+Physics, $W_d=1$ -->
     <g transform="translate(88.378125 247.930125) scale(0.1 -0.1)">
      <use xlink:href="#DejaVuSans-46" transform="translate(0 0.015625)"/>
      <use xlink:href="#DejaVuSans-43" transform="translate(57.519531 0.015625)"/>
      <use xlink:href="#DejaVuSans-4e" transform="translate(127.34375 0.015625)"/>
      <use xlink:href="#DejaVuSans-4e" transform="translate(202.148438 0.015625)"/>
      <use xlink:href="#DejaVuSans-2c" transform="translate(276.953125 0.015625)"/>
      <use xlink:href="#DejaVuSans-20" transform="translate(308.740234 0.015625)"/>
      <use xlink:href="#DejaVuSans-44" transform="translate(340.527344 0.015625)"/>
      <use xlink:href="#DejaVuSans-61" transform="translate(417.529297 0.015625)"/>
      <use xlink:href="#DejaVuSans-74" transform="translate(478.808594 0.015625)"/>
      <use xlink:href="#DejaVuSans-61" transform="translate(518.017578 0.015625)"/>
      <use xlink:href="#DejaVuSans-2b" transform="translate(579.296875 0.015625)"/>
      <use xlink:href="#DejaVuSans-50" transform="translate(663.085938 0.015625)"/>
      <use xlink:href="#DejaVuSans-68" transform="translate(723.388672 0.015625)"/>
      <use xlink:href="#DejaVuSans-79" transform="translate(786.767578 0.015625)"/>
      <use xlink:href="#DejaVuSans-73" transform="translate(845.947266 0.015625)"/>
      <use xlink:href="#DejaVuSans-69" transform="translate(898.046875 0.015625)"/>
      <use xlink:href="#DejaVuSans-63" transform="translate(925.830078 0.015625)"/>
      <use xlink:href="#DejaVuSans-73" transform="translate(980.810547 0.015625)"/>
      <use xlink:href="#DejaVuSans-2c" transform="translate(1032.910156 0.015625)"/>
      <use xlink:href="#DejaVuSans-20" transform="translate(1064.697266 0.015625)"/>
      <use xlink:href="#DejaVuSans-Oblique-57" transform="translate(1096.484375 0.015625)"/>
      <use xlink:href="#DejaVuSans-Oblique-64" transform="translate(1195.361328 -16.390625) scale(0.7)"/>
      <use xlink:href="#DejaVuSans-3d" transform="translate(1262.011719 0.015625)"/>
      <use xlink:href="#DejaVuSans-31" transform="translate(1365.283203 0.015625)"/>
     </g>
    </g>
    <g id="line2d_44">
     <path d="M 60.378125 259.130125 
L 70.378125 259.130125 
L 80.378125 259.130125 
" style="fill: none; stroke: #9467bd; stroke-width: 1.5; stroke-linecap: square"/>
    </g>
    <g id="text_17">
     <!-- FCNN, Pressure Data+Physics, $W_d=0.1$ -->
     <g transform="translate(88.378125 262.630125) scale(0.1 -0.1)">
      <defs>
       <path id="DejaVuSans-75" d="M 544 1381 
L 544 3500 
L 1119 3500 
L 1119 1403 
Q 1119 906 1312 657 
Q 1506 409 1894 409 
Q 2359 409 2629 706 
Q 2900 1003 2900 1516 
L 2900 3500 
L 3475 3500 
L 3475 0 
L 2900 0 
L 2900 538 
Q 2691 219 2414 64 
Q 2138 -91 1772 -91 
Q 1169 -91 856 284 
Q 544 659 544 1381 
z
M 1991 3584 
L 1991 3584 
z
" transform="scale(0.015625)"/>
      </defs>
      <use xlink:href="#DejaVuSans-46" transform="translate(0 0.015625)"/>
      <use xlink:href="#DejaVuSans-43" transform="translate(57.519531 0.015625)"/>
      <use xlink:href="#DejaVuSans-4e" transform="translate(127.34375 0.015625)"/>
      <use xlink:href="#DejaVuSans-4e" transform="translate(202.148438 0.015625)"/>
      <use xlink:href="#DejaVuSans-2c" transform="translate(276.953125 0.015625)"/>
      <use xlink:href="#DejaVuSans-20" transform="translate(308.740234 0.015625)"/>
      <use xlink:href="#DejaVuSans-50" transform="translate(340.527344 0.015625)"/>
      <use xlink:href="#DejaVuSans-72" transform="translate(400.830078 0.015625)"/>
      <use xlink:href="#DejaVuSans-65" transform="translate(441.943359 0.015625)"/>
      <use xlink:href="#DejaVuSans-73" transform="translate(503.466797 0.015625)"/>
      <use xlink:href="#DejaVuSans-73" transform="translate(555.566406 0.015625)"/>
      <use xlink:href="#DejaVuSans-75" transform="translate(607.666016 0.015625)"/>
      <use xlink:href="#DejaVuSans-72" transform="translate(671.044922 0.015625)"/>
      <use xlink:href="#DejaVuSans-65" transform="translate(712.158203 0.015625)"/>
      <use xlink:href="#DejaVuSans-20" transform="translate(773.681641 0.015625)"/>
      <use xlink:href="#DejaVuSans-44" transform="translate(805.46875 0.015625)"/>
      <use xlink:href="#DejaVuSans-61" transform="translate(882.470703 0.015625)"/>
      <use xlink:href="#DejaVuSans-74" transform="translate(943.75 0.015625)"/>
      <use xlink:href="#DejaVuSans-61" transform="translate(982.958984 0.015625)"/>
      <use xlink:href="#DejaVuSans-2b" transform="translate(1044.238281 0.015625)"/>
      <use xlink:href="#DejaVuSans-50" transform="translate(1128.027344 0.015625)"/>
      <use xlink:href="#DejaVuSans-68" transform="translate(1188.330078 0.015625)"/>
      <use xlink:href="#DejaVuSans-79" transform="translate(1251.708984 0.015625)"/>
      <use xlink:href="#DejaVuSans-73" transform="translate(1310.888672 0.015625)"/>
      <use xlink:href="#DejaVuSans-69" transform="translate(1362.988281 0.015625)"/>
      <use xlink:href="#DejaVuSans-63" transform="translate(1390.771484 0.015625)"/>
      <use xlink:href="#DejaVuSans-73" transform="translate(1445.751953 0.015625)"/>
      <use xlink:href="#DejaVuSans-2c" transform="translate(1497.851562 0.015625)"/>
      <use xlink:href="#DejaVuSans-20" transform="translate(1529.638672 0.015625)"/>
      <use xlink:href="#DejaVuSans-Oblique-57" transform="translate(1561.425781 0.015625)"/>
      <use xlink:href="#DejaVuSans-Oblique-64" transform="translate(1660.302734 -16.390625) scale(0.7)"/>
      <use xlink:href="#DejaVuSans-3d" transform="translate(1726.953125 0.015625)"/>
      <use xlink:href="#DejaVuSans-30" transform="translate(1830.224609 0.015625)"/>
      <use xlink:href="#DejaVuSans-2e" transform="translate(1893.847656 0.015625)"/>
      <use xlink:href="#DejaVuSans-31" transform="translate(1925.634766 0.015625)"/>
     </g>
    </g>
    <g id="line2d_45">
     <path d="M 60.378125 273.830125 
L 70.378125 273.830125 
L 80.378125 273.830125 
" style="fill: none; stroke: #8c564b; stroke-width: 1.5; stroke-linecap: square"/>
    </g>
    <g id="text_18">
     <!-- FCNN, Pressure Data+Physics, $W_d=1$ -->
     <g transform="translate(88.378125 277.330125) scale(0.1 -0.1)">
      <use xlink:href="#DejaVuSans-46" transform="translate(0 0.015625)"/>
      <use xlink:href="#DejaVuSans-43" transform="translate(57.519531 0.015625)"/>
      <use xlink:href="#DejaVuSans-4e" transform="translate(127.34375 0.015625)"/>
      <use xlink:href="#DejaVuSans-4e" transform="translate(202.148438 0.015625)"/>
      <use xlink:href="#DejaVuSans-2c" transform="translate(276.953125 0.015625)"/>
      <use xlink:href="#DejaVuSans-20" transform="translate(308.740234 0.015625)"/>
      <use xlink:href="#DejaVuSans-50" transform="translate(340.527344 0.015625)"/>
      <use xlink:href="#DejaVuSans-72" transform="translate(400.830078 0.015625)"/>
      <use xlink:href="#DejaVuSans-65" transform="translate(441.943359 0.015625)"/>
      <use xlink:href="#DejaVuSans-73" transform="translate(503.466797 0.015625)"/>
      <use xlink:href="#DejaVuSans-73" transform="translate(555.566406 0.015625)"/>
      <use xlink:href="#DejaVuSans-75" transform="translate(607.666016 0.015625)"/>
      <use xlink:href="#DejaVuSans-72" transform="translate(671.044922 0.015625)"/>
      <use xlink:href="#DejaVuSans-65" transform="translate(712.158203 0.015625)"/>
      <use xlink:href="#DejaVuSans-20" transform="translate(773.681641 0.015625)"/>
      <use xlink:href="#DejaVuSans-44" transform="translate(805.46875 0.015625)"/>
      <use xlink:href="#DejaVuSans-61" transform="translate(882.470703 0.015625)"/>
      <use xlink:href="#DejaVuSans-74" transform="translate(943.75 0.015625)"/>
      <use xlink:href="#DejaVuSans-61" transform="translate(982.958984 0.015625)"/>
      <use xlink:href="#DejaVuSans-2b" transform="translate(1044.238281 0.015625)"/>
      <use xlink:href="#DejaVuSans-50" transform="translate(1128.027344 0.015625)"/>
      <use xlink:href="#DejaVuSans-68" transform="translate(1188.330078 0.015625)"/>
      <use xlink:href="#DejaVuSans-79" transform="translate(1251.708984 0.015625)"/>
      <use xlink:href="#DejaVuSans-73" transform="translate(1310.888672 0.015625)"/>
      <use xlink:href="#DejaVuSans-69" transform="translate(1362.988281 0.015625)"/>
      <use xlink:href="#DejaVuSans-63" transform="translate(1390.771484 0.015625)"/>
      <use xlink:href="#DejaVuSans-73" transform="translate(1445.751953 0.015625)"/>
      <use xlink:href="#DejaVuSans-2c" transform="translate(1497.851562 0.015625)"/>
      <use xlink:href="#DejaVuSans-20" transform="translate(1529.638672 0.015625)"/>
      <use xlink:href="#DejaVuSans-Oblique-57" transform="translate(1561.425781 0.015625)"/>
      <use xlink:href="#DejaVuSans-Oblique-64" transform="translate(1660.302734 -16.390625) scale(0.7)"/>
      <use xlink:href="#DejaVuSans-3d" transform="translate(1726.953125 0.015625)"/>
      <use xlink:href="#DejaVuSans-31" transform="translate(1830.224609 0.015625)"/>
     </g>
    </g>
   </g>
  </g>
 </g>
 <defs>
  <clipPath id="p3ff3a8fe30">
   <rect x="51.378125" y="22.318125" width="357.12" height="266.112"/>
  </clipPath>
 </defs>
</svg>
