<?xml version="1.0" encoding="utf-8" standalone="no"?>
<!DOCTYPE svg PUBLIC "-//W3C//DTD SVG 1.1//EN"
  "http://www.w3.org/Graphics/SVG/1.1/DTD/svg11.dtd">
<svg xmlns:xlink="http://www.w3.org/1999/xlink" width="415.698125pt" height="327.50825pt" viewBox="0 0 415.698125 327.50825" xmlns="http://www.w3.org/2000/svg" version="1.1">
 <metadata>
  <rdf:RDF xmlns:dc="http://purl.org/dc/elements/1.1/" xmlns:cc="http://creativecommons.org/ns#" xmlns:rdf="http://www.w3.org/1999/02/22-rdf-syntax-ns#">
   <cc:Work>
    <dc:type rdf:resource="http://purl.org/dc/dcmitype/StillImage"/>
    <dc:date>2024-09-25T14:16:35.067129</dc:date>
    <dc:format>image/svg+xml</dc:format>
    <dc:creator>
     <cc:Agent>
      <dc:title>Matplotlib v3.8.2, https://matplotlib.org/</dc:title>
     </cc:Agent>
    </dc:creator>
   </cc:Work>
  </rdf:RDF>
 </metadata>
 <defs>
  <style type="text/css">*{stroke-linejoin: round; stroke-linecap: butt}</style>
 </defs>
 <g id="figure_1">
  <g id="patch_1">
   <path d="M 0 327.50825 
L 415.698125 327.50825 
L 415.698125 0 
L 0 0 
z
" style="fill: #ffffff"/>
  </g>
  <g id="axes_1">
   <g id="patch_2">
    <path d="M 51.378125 288.430125 
L 408.498125 288.430125 
L 408.498125 22.318125 
L 51.378125 22.318125 
z
" style="fill: #ffffff"/>
   </g>
   <g id="matplotlib.axis_1">
    <g id="xtick_1">
     <g id="line2d_1">
      <defs>
       <path id="m9ff3c28a6a" d="M 0 0 
L 0 3.5 
" style="stroke: #000000; stroke-width: 0.8"/>
      </defs>
      <g>
       <use xlink:href="#m9ff3c28a6a" x="67.610852" y="288.430125" style="stroke: #000000; stroke-width: 0.8"/>
      </g>
     </g>
     <g id="text_1">
      <!-- 0 -->
      <g transform="translate(64.429602 303.028562) scale(0.1 -0.1)">
       <defs>
        <path id="DejaVuSans-30" d="M 2034 4250 
Q 1547 4250 1301 3770 
Q 1056 3291 1056 2328 
Q 1056 1369 1301 889 
Q 1547 409 2034 409 
Q 2525 409 2770 889 
Q 3016 1369 3016 2328 
Q 3016 3291 2770 3770 
Q 2525 4250 2034 4250 
z
M 2034 4750 
Q 2819 4750 3233 4129 
Q 3647 3509 3647 2328 
Q 3647 1150 3233 529 
Q 2819 -91 2034 -91 
Q 1250 -91 836 529 
Q 422 1150 422 2328 
Q 422 3509 836 4129 
Q 1250 4750 2034 4750 
z
" transform="scale(0.015625)"/>
       </defs>
       <use xlink:href="#DejaVuSans-30"/>
      </g>
     </g>
    </g>
    <g id="xtick_2">
     <g id="line2d_2">
      <g>
       <use xlink:href="#m9ff3c28a6a" x="132.541761" y="288.430125" style="stroke: #000000; stroke-width: 0.8"/>
      </g>
     </g>
     <g id="text_2">
      <!-- 100 -->
      <g transform="translate(122.998011 303.028562) scale(0.1 -0.1)">
       <defs>
        <path id="DejaVuSans-31" d="M 794 531 
L 1825 531 
L 1825 4091 
L 703 3866 
L 703 4441 
L 1819 4666 
L 2450 4666 
L 2450 531 
L 3481 531 
L 3481 0 
L 794 0 
L 794 531 
z
" transform="scale(0.015625)"/>
       </defs>
       <use xlink:href="#DejaVuSans-31"/>
       <use xlink:href="#DejaVuSans-30" x="63.623047"/>
       <use xlink:href="#DejaVuSans-30" x="127.246094"/>
      </g>
     </g>
    </g>
    <g id="xtick_3">
     <g id="line2d_3">
      <g>
       <use xlink:href="#m9ff3c28a6a" x="197.47267" y="288.430125" style="stroke: #000000; stroke-width: 0.8"/>
      </g>
     </g>
     <g id="text_3">
      <!-- 200 -->
      <g transform="translate(187.92892 303.028562) scale(0.1 -0.1)">
       <defs>
        <path id="DejaVuSans-32" d="M 1228 531 
L 3431 531 
L 3431 0 
L 469 0 
L 469 531 
Q 828 903 1448 1529 
Q 2069 2156 2228 2338 
Q 2531 2678 2651 2914 
Q 2772 3150 2772 3378 
Q 2772 3750 2511 3984 
Q 2250 4219 1831 4219 
Q 1534 4219 1204 4116 
Q 875 4013 500 3803 
L 500 4441 
Q 881 4594 1212 4672 
Q 1544 4750 1819 4750 
Q 2544 4750 2975 4387 
Q 3406 4025 3406 3419 
Q 3406 3131 3298 2873 
Q 3191 2616 2906 2266 
Q 2828 2175 2409 1742 
Q 1991 1309 1228 531 
z
" transform="scale(0.015625)"/>
       </defs>
       <use xlink:href="#DejaVuSans-32"/>
       <use xlink:href="#DejaVuSans-30" x="63.623047"/>
       <use xlink:href="#DejaVuSans-30" x="127.246094"/>
      </g>
     </g>
    </g>
    <g id="xtick_4">
     <g id="line2d_4">
      <g>
       <use xlink:href="#m9ff3c28a6a" x="262.40358" y="288.430125" style="stroke: #000000; stroke-width: 0.8"/>
      </g>
     </g>
     <g id="text_4">
      <!-- 300 -->
      <g transform="translate(252.85983 303.028562) scale(0.1 -0.1)">
       <defs>
        <path id="DejaVuSans-33" d="M 2597 2516 
Q 3050 2419 3304 2112 
Q 3559 1806 3559 1356 
Q 3559 666 3084 287 
Q 2609 -91 1734 -91 
Q 1441 -91 1130 -33 
Q 819 25 488 141 
L 488 750 
Q 750 597 1062 519 
Q 1375 441 1716 441 
Q 2309 441 2620 675 
Q 2931 909 2931 1356 
Q 2931 1769 2642 2001 
Q 2353 2234 1838 2234 
L 1294 2234 
L 1294 2753 
L 1863 2753 
Q 2328 2753 2575 2939 
Q 2822 3125 2822 3475 
Q 2822 3834 2567 4026 
Q 2313 4219 1838 4219 
Q 1578 4219 1281 4162 
Q 984 4106 628 3988 
L 628 4550 
Q 988 4650 1302 4700 
Q 1616 4750 1894 4750 
Q 2613 4750 3031 4423 
Q 3450 4097 3450 3541 
Q 3450 3153 3228 2886 
Q 3006 2619 2597 2516 
z
" transform="scale(0.015625)"/>
       </defs>
       <use xlink:href="#DejaVuSans-33"/>
       <use xlink:href="#DejaVuSans-30" x="63.623047"/>
       <use xlink:href="#DejaVuSans-30" x="127.246094"/>
      </g>
     </g>
    </g>
    <g id="xtick_5">
     <g id="line2d_5">
      <g>
       <use xlink:href="#m9ff3c28a6a" x="327.334489" y="288.430125" style="stroke: #000000; stroke-width: 0.8"/>
      </g>
     </g>
     <g id="text_5">
      <!-- 400 -->
      <g transform="translate(317.790739 303.028562) scale(0.1 -0.1)">
       <defs>
        <path id="DejaVuSans-34" d="M 2419 4116 
L 825 1625 
L 2419 1625 
L 2419 4116 
z
M 2253 4666 
L 3047 4666 
L 3047 1625 
L 3713 1625 
L 3713 1100 
L 3047 1100 
L 3047 0 
L 2419 0 
L 2419 1100 
L 313 1100 
L 313 1709 
L 2253 4666 
z
" transform="scale(0.015625)"/>
       </defs>
       <use xlink:href="#DejaVuSans-34"/>
       <use xlink:href="#DejaVuSans-30" x="63.623047"/>
       <use xlink:href="#DejaVuSans-30" x="127.246094"/>
      </g>
     </g>
    </g>
    <g id="xtick_6">
     <g id="line2d_6">
      <g>
       <use xlink:href="#m9ff3c28a6a" x="392.265398" y="288.430125" style="stroke: #000000; stroke-width: 0.8"/>
      </g>
     </g>
     <g id="text_6">
      <!-- 500 -->
      <g transform="translate(382.721648 303.028562) scale(0.1 -0.1)">
       <defs>
        <path id="DejaVuSans-35" d="M 691 4666 
L 3169 4666 
L 3169 4134 
L 1269 4134 
L 1269 2991 
Q 1406 3038 1543 3061 
Q 1681 3084 1819 3084 
Q 2600 3084 3056 2656 
Q 3513 2228 3513 1497 
Q 3513 744 3044 326 
Q 2575 -91 1722 -91 
Q 1428 -91 1123 -41 
Q 819 9 494 109 
L 494 744 
Q 775 591 1075 516 
Q 1375 441 1709 441 
Q 2250 441 2565 725 
Q 2881 1009 2881 1497 
Q 2881 1984 2565 2268 
Q 2250 2553 1709 2553 
Q 1456 2553 1204 2497 
Q 953 2441 691 2322 
L 691 4666 
z
" transform="scale(0.015625)"/>
       </defs>
       <use xlink:href="#DejaVuSans-35"/>
       <use xlink:href="#DejaVuSans-30" x="63.623047"/>
       <use xlink:href="#DejaVuSans-30" x="127.246094"/>
      </g>
     </g>
    </g>
    <g id="text_7">
     <!-- Step ($x10^3$) -->
     <g transform="translate(201.288125 318.20825) scale(0.1 -0.1)">
      <defs>
       <path id="DejaVuSans-53" d="M 3425 4513 
L 3425 3897 
Q 3066 4069 2747 4153 
Q 2428 4238 2131 4238 
Q 1616 4238 1336 4038 
Q 1056 3838 1056 3469 
Q 1056 3159 1242 3001 
Q 1428 2844 1947 2747 
L 2328 2669 
Q 3034 2534 3370 2195 
Q 3706 1856 3706 1288 
Q 3706 609 3251 259 
Q 2797 -91 1919 -91 
Q 1588 -91 1214 -16 
Q 841 59 441 206 
L 441 856 
Q 825 641 1194 531 
Q 1563 422 1919 422 
Q 2459 422 2753 634 
Q 3047 847 3047 1241 
Q 3047 1584 2836 1778 
Q 2625 1972 2144 2069 
L 1759 2144 
Q 1053 2284 737 2584 
Q 422 2884 422 3419 
Q 422 4038 858 4394 
Q 1294 4750 2059 4750 
Q 2388 4750 2728 4690 
Q 3069 4631 3425 4513 
z
" transform="scale(0.015625)"/>
       <path id="DejaVuSans-74" d="M 1172 4494 
L 1172 3500 
L 2356 3500 
L 2356 3053 
L 1172 3053 
L 1172 1153 
Q 1172 725 1289 603 
Q 1406 481 1766 481 
L 2356 481 
L 2356 0 
L 1766 0 
Q 1100 0 847 248 
Q 594 497 594 1153 
L 594 3053 
L 172 3053 
L 172 3500 
L 594 3500 
L 594 4494 
L 1172 4494 
z
" transform="scale(0.015625)"/>
       <path id="DejaVuSans-65" d="M 3597 1894 
L 3597 1613 
L 953 1613 
Q 991 1019 1311 708 
Q 1631 397 2203 397 
Q 2534 397 2845 478 
Q 3156 559 3463 722 
L 3463 178 
Q 3153 47 2828 -22 
Q 2503 -91 2169 -91 
Q 1331 -91 842 396 
Q 353 884 353 1716 
Q 353 2575 817 3079 
Q 1281 3584 2069 3584 
Q 2775 3584 3186 3129 
Q 3597 2675 3597 1894 
z
M 3022 2063 
Q 3016 2534 2758 2815 
Q 2500 3097 2075 3097 
Q 1594 3097 1305 2825 
Q 1016 2553 972 2059 
L 3022 2063 
z
" transform="scale(0.015625)"/>
       <path id="DejaVuSans-70" d="M 1159 525 
L 1159 -1331 
L 581 -1331 
L 581 3500 
L 1159 3500 
L 1159 2969 
Q 1341 3281 1617 3432 
Q 1894 3584 2278 3584 
Q 2916 3584 3314 3078 
Q 3713 2572 3713 1747 
Q 3713 922 3314 415 
Q 2916 -91 2278 -91 
Q 1894 -91 1617 61 
Q 1341 213 1159 525 
z
M 3116 1747 
Q 3116 2381 2855 2742 
Q 2594 3103 2138 3103 
Q 1681 3103 1420 2742 
Q 1159 2381 1159 1747 
Q 1159 1113 1420 752 
Q 1681 391 2138 391 
Q 2594 391 2855 752 
Q 3116 1113 3116 1747 
z
" transform="scale(0.015625)"/>
       <path id="DejaVuSans-20" transform="scale(0.015625)"/>
       <path id="DejaVuSans-28" d="M 1984 4856 
Q 1566 4138 1362 3434 
Q 1159 2731 1159 2009 
Q 1159 1288 1364 580 
Q 1569 -128 1984 -844 
L 1484 -844 
Q 1016 -109 783 600 
Q 550 1309 550 2009 
Q 550 2706 781 3412 
Q 1013 4119 1484 4856 
L 1984 4856 
z
" transform="scale(0.015625)"/>
       <path id="DejaVuSans-Oblique-78" d="M 3841 3500 
L 2234 1784 
L 3219 0 
L 2559 0 
L 1819 1388 
L 531 0 
L -166 0 
L 1556 1844 
L 641 3500 
L 1300 3500 
L 1972 2234 
L 3144 3500 
L 3841 3500 
z
" transform="scale(0.015625)"/>
       <path id="DejaVuSans-29" d="M 513 4856 
L 1013 4856 
Q 1481 4119 1714 3412 
Q 1947 2706 1947 2009 
Q 1947 1309 1714 600 
Q 1481 -109 1013 -844 
L 513 -844 
Q 928 -128 1133 580 
Q 1338 1288 1338 2009 
Q 1338 2731 1133 3434 
Q 928 4138 513 4856 
z
" transform="scale(0.015625)"/>
      </defs>
      <use xlink:href="#DejaVuSans-53" transform="translate(0 0.765625)"/>
      <use xlink:href="#DejaVuSans-74" transform="translate(63.476562 0.765625)"/>
      <use xlink:href="#DejaVuSans-65" transform="translate(102.685547 0.765625)"/>
      <use xlink:href="#DejaVuSans-70" transform="translate(164.208984 0.765625)"/>
      <use xlink:href="#DejaVuSans-20" transform="translate(227.685547 0.765625)"/>
      <use xlink:href="#DejaVuSans-28" transform="translate(259.472656 0.765625)"/>
      <use xlink:href="#DejaVuSans-Oblique-78" transform="translate(298.486328 0.765625)"/>
      <use xlink:href="#DejaVuSans-31" transform="translate(357.666016 0.765625)"/>
      <use xlink:href="#DejaVuSans-30" transform="translate(421.289062 0.765625)"/>
      <use xlink:href="#DejaVuSans-33" transform="translate(485.869141 39.046875) scale(0.7)"/>
      <use xlink:href="#DejaVuSans-29" transform="translate(533.139648 0.765625)"/>
     </g>
    </g>
   </g>
   <g id="matplotlib.axis_2">
    <g id="ytick_1">
     <g id="line2d_7">
      <defs>
       <path id="m643d8e27c7" d="M 0 0 
L -3.5 0 
" style="stroke: #000000; stroke-width: 0.8"/>
      </defs>
      <g>
       <use xlink:href="#m643d8e27c7" x="51.378125" y="239.156469" style="stroke: #000000; stroke-width: 0.8"/>
      </g>
     </g>
     <g id="text_8">
      <!-- $\mathdefault{10^{-2}}$ -->
      <g transform="translate(20.878125 242.955687) scale(0.1 -0.1)">
       <defs>
        <path id="DejaVuSans-2212" d="M 678 2272 
L 4684 2272 
L 4684 1741 
L 678 1741 
L 678 2272 
z
" transform="scale(0.015625)"/>
       </defs>
       <use xlink:href="#DejaVuSans-31" transform="translate(0 0.765625)"/>
       <use xlink:href="#DejaVuSans-30" transform="translate(63.623047 0.765625)"/>
       <use xlink:href="#DejaVuSans-2212" transform="translate(128.203125 39.046875) scale(0.7)"/>
       <use xlink:href="#DejaVuSans-32" transform="translate(186.855469 39.046875) scale(0.7)"/>
      </g>
     </g>
    </g>
    <g id="ytick_2">
     <g id="line2d_8">
      <g>
       <use xlink:href="#m643d8e27c7" x="51.378125" y="144.921129" style="stroke: #000000; stroke-width: 0.8"/>
      </g>
     </g>
     <g id="text_9">
      <!-- $\mathdefault{10^{-1}}$ -->
      <g transform="translate(20.878125 148.720348) scale(0.1 -0.1)">
       <use xlink:href="#DejaVuSans-31" transform="translate(0 0.684375)"/>
       <use xlink:href="#DejaVuSans-30" transform="translate(63.623047 0.684375)"/>
       <use xlink:href="#DejaVuSans-2212" transform="translate(128.203125 38.965625) scale(0.7)"/>
       <use xlink:href="#DejaVuSans-31" transform="translate(186.855469 38.965625) scale(0.7)"/>
      </g>
     </g>
    </g>
    <g id="ytick_3">
     <g id="line2d_9">
      <g>
       <use xlink:href="#m643d8e27c7" x="51.378125" y="50.685789" style="stroke: #000000; stroke-width: 0.8"/>
      </g>
     </g>
     <g id="text_10">
      <!-- $\mathdefault{10^{0}}$ -->
      <g transform="translate(26.778125 54.485008) scale(0.1 -0.1)">
       <use xlink:href="#DejaVuSans-31" transform="translate(0 0.765625)"/>
       <use xlink:href="#DejaVuSans-30" transform="translate(63.623047 0.765625)"/>
       <use xlink:href="#DejaVuSans-30" transform="translate(128.203125 39.046875) scale(0.7)"/>
      </g>
     </g>
    </g>
    <g id="ytick_4">
     <g id="line2d_10">
      <defs>
       <path id="m12f60b785a" d="M 0 0 
L -2 0 
" style="stroke: #000000; stroke-width: 0.6"/>
      </defs>
      <g>
       <use xlink:href="#m12f60b785a" x="51.378125" y="288.430125" style="stroke: #000000; stroke-width: 0.6"/>
      </g>
     </g>
    </g>
    <g id="ytick_5">
     <g id="line2d_11">
      <g>
       <use xlink:href="#m12f60b785a" x="51.378125" y="276.656481" style="stroke: #000000; stroke-width: 0.6"/>
      </g>
     </g>
    </g>
    <g id="ytick_6">
     <g id="line2d_12">
      <g>
       <use xlink:href="#m12f60b785a" x="51.378125" y="267.524133" style="stroke: #000000; stroke-width: 0.6"/>
      </g>
     </g>
    </g>
    <g id="ytick_7">
     <g id="line2d_13">
      <g>
       <use xlink:href="#m12f60b785a" x="51.378125" y="260.062461" style="stroke: #000000; stroke-width: 0.6"/>
      </g>
     </g>
    </g>
    <g id="ytick_8">
     <g id="line2d_14">
      <g>
       <use xlink:href="#m12f60b785a" x="51.378125" y="253.753708" style="stroke: #000000; stroke-width: 0.6"/>
      </g>
     </g>
    </g>
    <g id="ytick_9">
     <g id="line2d_15">
      <g>
       <use xlink:href="#m12f60b785a" x="51.378125" y="248.288817" style="stroke: #000000; stroke-width: 0.6"/>
      </g>
     </g>
    </g>
    <g id="ytick_10">
     <g id="line2d_16">
      <g>
       <use xlink:href="#m12f60b785a" x="51.378125" y="243.468441" style="stroke: #000000; stroke-width: 0.6"/>
      </g>
     </g>
    </g>
    <g id="ytick_11">
     <g id="line2d_17">
      <g>
       <use xlink:href="#m12f60b785a" x="51.378125" y="210.788805" style="stroke: #000000; stroke-width: 0.6"/>
      </g>
     </g>
    </g>
    <g id="ytick_12">
     <g id="line2d_18">
      <g>
       <use xlink:href="#m12f60b785a" x="51.378125" y="194.194785" style="stroke: #000000; stroke-width: 0.6"/>
      </g>
     </g>
    </g>
    <g id="ytick_13">
     <g id="line2d_19">
      <g>
       <use xlink:href="#m12f60b785a" x="51.378125" y="182.421141" style="stroke: #000000; stroke-width: 0.6"/>
      </g>
     </g>
    </g>
    <g id="ytick_14">
     <g id="line2d_20">
      <g>
       <use xlink:href="#m12f60b785a" x="51.378125" y="173.288793" style="stroke: #000000; stroke-width: 0.6"/>
      </g>
     </g>
    </g>
    <g id="ytick_15">
     <g id="line2d_21">
      <g>
       <use xlink:href="#m12f60b785a" x="51.378125" y="165.827121" style="stroke: #000000; stroke-width: 0.6"/>
      </g>
     </g>
    </g>
    <g id="ytick_16">
     <g id="line2d_22">
      <g>
       <use xlink:href="#m12f60b785a" x="51.378125" y="159.518368" style="stroke: #000000; stroke-width: 0.6"/>
      </g>
     </g>
    </g>
    <g id="ytick_17">
     <g id="line2d_23">
      <g>
       <use xlink:href="#m12f60b785a" x="51.378125" y="154.053477" style="stroke: #000000; stroke-width: 0.6"/>
      </g>
     </g>
    </g>
    <g id="ytick_18">
     <g id="line2d_24">
      <g>
       <use xlink:href="#m12f60b785a" x="51.378125" y="149.233102" style="stroke: #000000; stroke-width: 0.6"/>
      </g>
     </g>
    </g>
    <g id="ytick_19">
     <g id="line2d_25">
      <g>
       <use xlink:href="#m12f60b785a" x="51.378125" y="116.553465" style="stroke: #000000; stroke-width: 0.6"/>
      </g>
     </g>
    </g>
    <g id="ytick_20">
     <g id="line2d_26">
      <g>
       <use xlink:href="#m12f60b785a" x="51.378125" y="99.959445" style="stroke: #000000; stroke-width: 0.6"/>
      </g>
     </g>
    </g>
    <g id="ytick_21">
     <g id="line2d_27">
      <g>
       <use xlink:href="#m12f60b785a" x="51.378125" y="88.185801" style="stroke: #000000; stroke-width: 0.6"/>
      </g>
     </g>
    </g>
    <g id="ytick_22">
     <g id="line2d_28">
      <g>
       <use xlink:href="#m12f60b785a" x="51.378125" y="79.053453" style="stroke: #000000; stroke-width: 0.6"/>
      </g>
     </g>
    </g>
    <g id="ytick_23">
     <g id="line2d_29">
      <g>
       <use xlink:href="#m12f60b785a" x="51.378125" y="71.591781" style="stroke: #000000; stroke-width: 0.6"/>
      </g>
     </g>
    </g>
    <g id="ytick_24">
     <g id="line2d_30">
      <g>
       <use xlink:href="#m12f60b785a" x="51.378125" y="65.283028" style="stroke: #000000; stroke-width: 0.6"/>
      </g>
     </g>
    </g>
    <g id="ytick_25">
     <g id="line2d_31">
      <g>
       <use xlink:href="#m12f60b785a" x="51.378125" y="59.818137" style="stroke: #000000; stroke-width: 0.6"/>
      </g>
     </g>
    </g>
    <g id="ytick_26">
     <g id="line2d_32">
      <g>
       <use xlink:href="#m12f60b785a" x="51.378125" y="54.997762" style="stroke: #000000; stroke-width: 0.6"/>
      </g>
     </g>
    </g>
    <g id="ytick_27">
     <g id="line2d_33">
      <g>
       <use xlink:href="#m12f60b785a" x="51.378125" y="22.318125" style="stroke: #000000; stroke-width: 0.6"/>
      </g>
     </g>
    </g>
    <g id="text_11">
     <!-- Mean $L^2$ Error -->
     <g transform="translate(14.798438 190.074125) rotate(-90) scale(0.1 -0.1)">
      <defs>
       <path id="DejaVuSans-4d" d="M 628 4666 
L 1569 4666 
L 2759 1491 
L 3956 4666 
L 4897 4666 
L 4897 0 
L 4281 0 
L 4281 4097 
L 3078 897 
L 2444 897 
L 1241 4097 
L 1241 0 
L 628 0 
L 628 4666 
z
" transform="scale(0.015625)"/>
       <path id="DejaVuSans-61" d="M 2194 1759 
Q 1497 1759 1228 1600 
Q 959 1441 959 1056 
Q 959 750 1161 570 
Q 1363 391 1709 391 
Q 2188 391 2477 730 
Q 2766 1069 2766 1631 
L 2766 1759 
L 2194 1759 
z
M 3341 1997 
L 3341 0 
L 2766 0 
L 2766 531 
Q 2569 213 2275 61 
Q 1981 -91 1556 -91 
Q 1019 -91 701 211 
Q 384 513 384 1019 
Q 384 1609 779 1909 
Q 1175 2209 1959 2209 
L 2766 2209 
L 2766 2266 
Q 2766 2663 2505 2880 
Q 2244 3097 1772 3097 
Q 1472 3097 1187 3025 
Q 903 2953 641 2809 
L 641 3341 
Q 956 3463 1253 3523 
Q 1550 3584 1831 3584 
Q 2591 3584 2966 3190 
Q 3341 2797 3341 1997 
z
" transform="scale(0.015625)"/>
       <path id="DejaVuSans-6e" d="M 3513 2113 
L 3513 0 
L 2938 0 
L 2938 2094 
Q 2938 2591 2744 2837 
Q 2550 3084 2163 3084 
Q 1697 3084 1428 2787 
Q 1159 2491 1159 1978 
L 1159 0 
L 581 0 
L 581 3500 
L 1159 3500 
L 1159 2956 
Q 1366 3272 1645 3428 
Q 1925 3584 2291 3584 
Q 2894 3584 3203 3211 
Q 3513 2838 3513 2113 
z
" transform="scale(0.015625)"/>
       <path id="DejaVuSans-Oblique-4c" d="M 1075 4666 
L 1709 4666 
L 909 525 
L 3181 525 
L 3078 0 
L 172 0 
L 1075 4666 
z
" transform="scale(0.015625)"/>
       <path id="DejaVuSans-45" d="M 628 4666 
L 3578 4666 
L 3578 4134 
L 1259 4134 
L 1259 2753 
L 3481 2753 
L 3481 2222 
L 1259 2222 
L 1259 531 
L 3634 531 
L 3634 0 
L 628 0 
L 628 4666 
z
" transform="scale(0.015625)"/>
       <path id="DejaVuSans-72" d="M 2631 2963 
Q 2534 3019 2420 3045 
Q 2306 3072 2169 3072 
Q 1681 3072 1420 2755 
Q 1159 2438 1159 1844 
L 1159 0 
L 581 0 
L 581 3500 
L 1159 3500 
L 1159 2956 
Q 1341 3275 1631 3429 
Q 1922 3584 2338 3584 
Q 2397 3584 2469 3576 
Q 2541 3569 2628 3553 
L 2631 2963 
z
" transform="scale(0.015625)"/>
       <path id="DejaVuSans-6f" d="M 1959 3097 
Q 1497 3097 1228 2736 
Q 959 2375 959 1747 
Q 959 1119 1226 758 
Q 1494 397 1959 397 
Q 2419 397 2687 759 
Q 2956 1122 2956 1747 
Q 2956 2369 2687 2733 
Q 2419 3097 1959 3097 
z
M 1959 3584 
Q 2709 3584 3137 3096 
Q 3566 2609 3566 1747 
Q 3566 888 3137 398 
Q 2709 -91 1959 -91 
Q 1206 -91 779 398 
Q 353 888 353 1747 
Q 353 2609 779 3096 
Q 1206 3584 1959 3584 
z
" transform="scale(0.015625)"/>
      </defs>
      <use xlink:href="#DejaVuSans-4d" transform="translate(0 0.765625)"/>
      <use xlink:href="#DejaVuSans-65" transform="translate(86.279297 0.765625)"/>
      <use xlink:href="#DejaVuSans-61" transform="translate(147.802734 0.765625)"/>
      <use xlink:href="#DejaVuSans-6e" transform="translate(209.082031 0.765625)"/>
      <use xlink:href="#DejaVuSans-20" transform="translate(272.460938 0.765625)"/>
      <use xlink:href="#DejaVuSans-Oblique-4c" transform="translate(304.248047 0.765625)"/>
      <use xlink:href="#DejaVuSans-32" transform="translate(366.977708 39.046875) scale(0.7)"/>
      <use xlink:href="#DejaVuSans-20" transform="translate(414.248216 0.765625)"/>
      <use xlink:href="#DejaVuSans-45" transform="translate(446.035326 0.765625)"/>
      <use xlink:href="#DejaVuSans-72" transform="translate(509.218919 0.765625)"/>
      <use xlink:href="#DejaVuSans-72" transform="translate(550.332201 0.765625)"/>
      <use xlink:href="#DejaVuSans-6f" transform="translate(591.445482 0.765625)"/>
      <use xlink:href="#DejaVuSans-72" transform="translate(652.627122 0.765625)"/>
     </g>
    </g>
   </g>
   <g id="line2d_34">
    <path d="M 67.610852 22.743648 
L 68.260161 22.756731 
L 68.90947 22.644918 
L 69.55878 24.081996 
L 70.208089 26.975816 
L 71.506707 36.299092 
L 72.156016 46.409486 
L 72.805325 54.120734 
L 73.454634 54.110037 
L 74.103943 59.389494 
L 74.753252 60.183704 
L 75.402561 59.225372 
L 76.05187 62.067657 
L 76.70118 62.611297 
L 77.350489 62.52708 
L 77.999798 63.174018 
L 78.649107 63.313937 
L 79.298416 63.166858 
L 79.947725 63.270307 
L 80.597034 63.146298 
L 81.246343 63.379916 
L 82.544961 65.425721 
L 83.19427 63.87503 
L 83.84358 65.941359 
L 85.142198 66.394015 
L 87.090125 68.408388 
L 87.739434 68.064195 
L 88.388743 69.489605 
L 89.038052 69.290311 
L 89.687361 69.257492 
L 90.33667 70.601558 
L 90.98598 70.450766 
L 91.635289 70.785918 
L 92.284598 71.519807 
L 92.933907 71.11484 
L 93.583216 72.917108 
L 94.881834 71.962063 
L 95.531143 72.768265 
L 96.180452 72.612126 
L 96.829761 73.630374 
L 97.47907 73.533249 
L 98.12838 73.656953 
L 98.777689 73.981568 
L 99.426998 74.873356 
L 100.076307 75.188242 
L 100.725616 75.640517 
L 101.374925 75.466848 
L 102.024234 75.567292 
L 102.673543 75.227888 
L 103.322852 76.268233 
L 104.62147 76.975092 
L 105.920089 77.703396 
L 106.569398 76.68173 
L 107.218707 77.718568 
L 107.868016 78.114765 
L 108.517325 77.895826 
L 109.166634 78.809337 
L 109.815943 78.234509 
L 111.76387 79.656824 
L 112.41318 78.675156 
L 113.062489 79.292586 
L 115.010416 79.806646 
L 115.659725 79.828836 
L 116.309034 79.503602 
L 116.958343 79.91118 
L 117.607652 79.872297 
L 118.256961 79.991324 
L 118.90627 80.518567 
L 119.55558 80.084014 
L 120.204889 80.568104 
L 120.854198 80.241468 
L 121.503507 80.894465 
L 122.802125 80.53427 
L 123.451434 80.991952 
L 125.399361 81.206451 
L 126.04867 81.611783 
L 126.69798 81.380629 
L 127.347289 81.797562 
L 127.996598 81.793303 
L 128.645907 81.606966 
L 129.944525 81.939225 
L 130.593834 82.229101 
L 131.243143 81.884955 
L 131.892452 81.918307 
L 133.19107 82.4986 
L 133.84038 82.418535 
L 134.489689 82.637038 
L 135.138998 82.367041 
L 135.788307 82.605577 
L 136.437616 82.678909 
L 137.736234 83.130974 
L 139.034852 82.560814 
L 139.684161 82.739812 
L 140.33347 83.882697 
L 140.98278 83.042914 
L 141.632089 83.674127 
L 142.281398 83.32396 
L 142.930707 83.158113 
L 143.580016 83.472089 
L 145.527943 83.471674 
L 146.177252 83.627184 
L 146.826561 83.338885 
L 147.47587 83.433702 
L 148.12518 83.911762 
L 148.774489 83.647606 
L 149.423798 83.97775 
L 150.073107 83.702194 
L 150.722416 83.575219 
L 152.021034 84.452497 
L 152.670343 83.700723 
L 153.319652 84.192963 
L 153.968961 84.094026 
L 154.61827 84.454205 
L 155.916889 84.05859 
L 156.566198 84.404514 
L 157.215507 84.608929 
L 159.163434 84.423283 
L 159.812743 84.254029 
L 160.462052 84.940475 
L 161.111361 84.325746 
L 161.76067 84.320494 
L 162.40998 84.898133 
L 163.059289 84.547925 
L 163.708598 84.896058 
L 164.357907 84.996232 
L 165.007216 85.297521 
L 165.656525 85.03456 
L 166.305834 85.263013 
L 166.955143 85.284465 
L 168.253761 84.670295 
L 169.55238 85.493582 
L 170.201689 85.060347 
L 171.500307 85.028153 
L 172.149616 85.312487 
L 172.798925 85.282082 
L 174.097543 85.54438 
L 174.746852 85.506286 
L 175.396161 85.649014 
L 176.04547 86.059318 
L 176.69478 85.970522 
L 177.344089 85.303624 
L 177.993398 85.422438 
L 178.642707 85.765145 
L 179.941325 86.022909 
L 180.590634 85.905675 
L 181.239943 85.656514 
L 181.889252 85.953949 
L 183.18787 86.075327 
L 183.83718 86.519975 
L 184.486489 86.027973 
L 185.135798 86.092409 
L 185.785107 85.873876 
L 186.434416 86.355488 
L 187.083725 86.502676 
L 187.733034 86.289284 
L 189.031652 86.29421 
L 190.33027 86.502973 
L 191.628889 86.271563 
L 192.278198 86.669422 
L 194.226125 86.563263 
L 195.524743 86.937479 
L 196.174052 86.545096 
L 197.47267 86.73745 
L 198.12198 86.671018 
L 199.420598 87.207076 
L 200.069907 86.922161 
L 202.017834 86.95689 
L 202.667143 86.696913 
L 203.316452 87.078572 
L 204.61507 87.160531 
L 205.26438 87.626352 
L 205.913689 87.114767 
L 206.562998 86.907496 
L 207.212307 87.527394 
L 207.861616 87.640117 
L 208.510925 87.314731 
L 209.160234 87.704164 
L 209.809543 87.140785 
L 210.458852 87.467697 
L 211.108161 87.936214 
L 211.75747 87.692142 
L 212.40678 87.323994 
L 213.056089 87.694423 
L 213.705398 87.560079 
L 214.354707 87.703998 
L 215.004016 87.971096 
L 215.653325 87.736913 
L 216.302634 87.694044 
L 216.951943 87.942836 
L 217.601252 87.42297 
L 218.250561 87.916214 
L 218.89987 87.871132 
L 219.54918 88.011875 
L 220.198489 87.918958 
L 221.497107 88.081629 
L 222.146416 87.923521 
L 223.445034 88.363969 
L 224.094343 88.197669 
L 224.743652 88.234764 
L 225.392961 88.412612 
L 226.04227 88.324135 
L 228.639507 88.783319 
L 229.288816 88.43321 
L 229.938125 88.46761 
L 230.587434 88.187968 
L 231.236743 88.658975 
L 231.886052 88.661142 
L 232.535361 88.840364 
L 233.18467 88.701298 
L 233.83398 88.832537 
L 235.132598 88.919254 
L 235.781907 88.986945 
L 236.431216 89.201693 
L 237.729834 88.836701 
L 238.379143 88.970286 
L 239.028452 89.241461 
L 239.677761 88.997598 
L 241.625689 89.122938 
L 242.274998 89.381666 
L 242.924307 89.189486 
L 244.222925 89.514868 
L 245.521543 89.092566 
L 246.170852 89.480448 
L 246.820161 89.335234 
L 247.46947 89.816661 
L 248.768089 89.476751 
L 249.417398 89.591598 
L 250.066707 89.909641 
L 250.716016 89.896318 
L 251.365325 89.714009 
L 252.014634 89.800569 
L 252.663943 89.539903 
L 253.313252 89.96474 
L 253.962561 89.904206 
L 254.61187 90.029307 
L 255.26118 90.2909 
L 255.910489 90.132834 
L 256.559798 90.180334 
L 257.209107 90.012265 
L 261.104961 90.456764 
L 261.75427 90.037359 
L 263.052889 90.487778 
L 263.702198 90.543055 
L 265.000816 90.312076 
L 265.650125 90.531413 
L 266.299434 90.615189 
L 267.598052 90.44319 
L 268.247361 90.362512 
L 268.89667 90.559355 
L 269.54598 90.490214 
L 270.195289 90.817779 
L 270.844598 90.700361 
L 271.493907 91.091578 
L 272.143216 90.721108 
L 272.792525 90.587354 
L 273.441834 90.795411 
L 274.091143 90.857919 
L 274.740452 90.719416 
L 276.03907 91.01341 
L 276.68838 90.810445 
L 277.337689 90.752543 
L 277.986998 90.990116 
L 278.636307 90.716131 
L 279.285616 91.043812 
L 279.934925 90.866828 
L 280.584234 90.84768 
L 281.233543 91.070636 
L 281.882852 91.135994 
L 282.532161 90.940554 
L 283.18147 91.054402 
L 283.83078 91.049537 
L 284.480089 91.256453 
L 285.129398 91.233484 
L 285.778707 91.026651 
L 286.428016 91.267822 
L 288.375943 91.260944 
L 289.025252 91.376558 
L 289.674561 91.19094 
L 290.32387 91.428737 
L 290.97318 91.141045 
L 292.271798 91.422336 
L 292.921107 91.31997 
L 293.570416 91.564094 
L 296.167652 91.655511 
L 298.11558 91.432472 
L 298.764889 91.63343 
L 299.414198 91.632755 
L 300.063507 91.434634 
L 300.712816 91.537267 
L 302.011434 91.476691 
L 303.959361 91.790433 
L 305.907289 91.754982 
L 306.556598 91.746796 
L 307.205907 91.537226 
L 307.855216 91.570867 
L 308.504525 91.835793 
L 309.153834 91.771902 
L 309.803143 91.919918 
L 310.452452 91.716657 
L 311.101761 91.722682 
L 312.40038 91.922587 
L 313.049689 91.886048 
L 313.698998 92.126888 
L 314.348307 92.039211 
L 314.997616 92.177328 
L 316.296234 92.105315 
L 317.594852 92.10622 
L 318.244161 92.059732 
L 319.54278 92.187852 
L 320.192089 92.156772 
L 320.841398 92.29647 
L 321.490707 92.202281 
L 325.386561 92.435025 
L 326.68518 92.300163 
L 329.931725 92.540759 
L 330.581034 92.358442 
L 334.476889 92.392446 
L 335.126198 92.70197 
L 336.424816 92.508889 
L 337.074125 92.65799 
L 340.32067 92.534178 
L 341.619289 92.713252 
L 343.567216 92.613765 
L 344.216525 92.717942 
L 348.11238 92.670871 
L 351.358925 92.71492 
L 352.008234 92.620416 
L 353.306852 92.806731 
L 355.25478 92.762498 
L 364.994416 92.92503 
L 366.293034 93.013283 
L 373.435434 93.0422 
L 374.084743 93.080081 
L 375.383361 92.910269 
L 377.331289 93.026598 
L 379.279216 92.973309 
L 381.876452 93.108174 
L 382.525761 93.012088 
L 383.17507 93.110348 
L 385.122998 93.14463 
L 392.265398 93.17922 
L 392.265398 93.17922 
" clip-path="url(#p1b8de9ecef)" style="fill: none; stroke: #1f77b4; stroke-width: 1.5; stroke-linecap: square"/>
   </g>
   <g id="line2d_35">
    <path d="M 67.610852 35.876121 
L 68.260161 125.060504 
L 68.90947 137.785064 
L 69.55878 157.174295 
L 71.506707 180.083311 
L 72.156016 185.006455 
L 72.805325 184.831216 
L 73.454634 186.426643 
L 74.103943 202.082704 
L 74.753252 190.226513 
L 75.402561 31.823236 
L 76.05187 159.533824 
L 76.70118 181.520421 
L 77.350489 190.695492 
L 77.999798 197.323847 
L 78.649107 200.298468 
L 79.298416 208.268983 
L 79.947725 212.378181 
L 80.597034 214.812174 
L 81.246343 211.998432 
L 81.895652 199.283528 
L 82.544961 224.188798 
L 83.19427 209.881463 
L 83.84358 193.025129 
L 84.492889 219.057727 
L 85.142198 217.799687 
L 85.791507 203.437614 
L 86.440816 231.916818 
L 87.090125 225.744947 
L 87.739434 192.752294 
L 88.388743 229.942012 
L 89.038052 208.720341 
L 89.687361 232.514225 
L 90.33667 222.38367 
L 90.98598 225.581074 
L 91.635289 199.507132 
L 92.284598 228.318184 
L 92.933907 241.273009 
L 93.583216 239.772463 
L 94.232525 224.755296 
L 94.881834 241.511901 
L 95.531143 220.215262 
L 96.180452 220.272732 
L 97.47907 244.870554 
L 98.12838 243.715542 
L 98.777689 225.245773 
L 99.426998 230.739432 
L 100.076307 209.765397 
L 100.725616 235.146938 
L 101.374925 230.712373 
L 102.024234 230.095953 
L 102.673543 207.347286 
L 103.322852 220.331022 
L 103.972161 216.495248 
L 104.62147 217.750879 
L 105.27078 231.923962 
L 105.920089 238.329281 
L 106.569398 225.881396 
L 107.218707 240.72715 
L 107.868016 224.158219 
L 108.517325 233.414715 
L 109.166634 223.725074 
L 109.815943 220.287503 
L 110.465252 233.154507 
L 111.114561 233.717767 
L 111.76387 229.37047 
L 112.41318 228.345878 
L 113.062489 236.203077 
L 113.711798 232.50292 
L 114.361107 233.777642 
L 115.010416 238.632034 
L 115.659725 227.942978 
L 116.309034 238.058762 
L 116.958343 227.519112 
L 117.607652 233.999835 
L 118.256961 234.569822 
L 118.90627 236.080563 
L 119.55558 232.008093 
L 120.204889 229.356683 
L 120.854198 211.449516 
L 121.503507 224.530152 
L 122.152816 225.723088 
L 122.802125 232.64599 
L 123.451434 233.478388 
L 124.100743 235.350504 
L 124.750052 234.099355 
L 126.04867 233.690639 
L 126.69798 224.170367 
L 127.347289 231.016743 
L 127.996598 230.071541 
L 128.645907 235.215445 
L 129.944525 233.956925 
L 130.593834 231.250605 
L 131.243143 235.380778 
L 131.892452 235.529346 
L 132.541761 233.349352 
L 133.19107 232.843058 
L 133.84038 226.461486 
L 134.489689 227.965358 
L 135.138998 231.090827 
L 135.788307 222.982161 
L 136.437616 223.491628 
L 137.086925 233.860764 
L 137.736234 234.08679 
L 138.385543 233.304599 
L 139.034852 235.03921 
L 139.684161 230.69523 
L 140.98278 229.439334 
L 141.632089 233.518941 
L 142.281398 232.553061 
L 142.930707 226.527785 
L 143.580016 229.825429 
L 144.229325 234.38734 
L 144.878634 229.968306 
L 145.527943 230.60314 
L 146.177252 233.628639 
L 146.826561 233.237764 
L 147.47587 232.446302 
L 148.12518 232.041671 
L 148.774489 214.783638 
L 149.423798 233.281317 
L 150.073107 232.411498 
L 150.722416 229.323544 
L 151.371725 229.907031 
L 152.021034 228.601995 
L 152.670343 220.129352 
L 153.319652 232.469516 
L 153.968961 230.924032 
L 154.61827 231.192508 
L 155.26758 220.744823 
L 155.916889 232.928822 
L 156.566198 216.448792 
L 157.215507 227.191922 
L 157.864816 227.852838 
L 158.514125 230.937658 
L 159.163434 233.34299 
L 159.812743 231.781966 
L 160.462052 234.132939 
L 161.111361 233.251004 
L 161.76067 232.702616 
L 162.40998 232.611035 
L 163.059289 233.091308 
L 163.708598 231.316901 
L 164.357907 233.128018 
L 165.007216 231.995895 
L 165.656525 233.597699 
L 166.305834 233.1994 
L 166.955143 222.687135 
L 167.604452 229.789189 
L 168.253761 233.282496 
L 168.90307 231.402935 
L 169.55238 230.257845 
L 170.201689 232.339256 
L 170.850998 233.537412 
L 171.500307 231.721479 
L 172.149616 233.343033 
L 172.798925 222.354462 
L 173.448234 233.047714 
L 174.097543 232.254148 
L 174.746852 232.43467 
L 175.396161 228.954006 
L 176.04547 232.148962 
L 176.69478 232.903498 
L 177.344089 233.274871 
L 177.993398 232.144778 
L 178.642707 231.279033 
L 179.292016 227.307931 
L 179.941325 233.145323 
L 180.590634 227.089783 
L 181.239943 231.977433 
L 181.889252 232.34184 
L 182.538561 230.342629 
L 183.18787 232.147857 
L 183.83718 233.444199 
L 184.486489 230.612679 
L 185.135798 232.662316 
L 185.785107 231.133066 
L 187.083725 231.978117 
L 187.733034 232.622829 
L 188.382343 232.326673 
L 189.031652 232.372978 
L 189.680961 232.158146 
L 190.33027 231.590255 
L 190.97958 233.212906 
L 191.628889 232.572998 
L 192.278198 232.648494 
L 192.927507 232.934339 
L 193.576816 233.070991 
L 194.226125 231.002708 
L 194.875434 230.164995 
L 195.524743 232.928635 
L 196.174052 232.339401 
L 196.823361 232.397209 
L 197.47267 232.276325 
L 198.12198 232.868012 
L 198.771289 233.047961 
L 199.420598 232.61825 
L 200.069907 233.058702 
L 200.719216 232.048167 
L 201.368525 231.483004 
L 202.667143 232.901695 
L 203.316452 232.403885 
L 203.965761 232.1088 
L 204.61507 233.049873 
L 205.26438 232.458525 
L 206.562998 232.61975 
L 207.212307 230.458133 
L 207.861616 232.709956 
L 208.510925 232.77752 
L 209.160234 232.957593 
L 209.809543 232.409013 
L 210.458852 231.5249 
L 211.108161 232.703687 
L 211.75747 233.072832 
L 212.40678 232.900437 
L 213.056089 232.940407 
L 213.705398 231.692399 
L 214.354707 230.993986 
L 215.004016 232.619301 
L 215.653325 232.924595 
L 216.302634 232.853369 
L 216.951943 232.922938 
L 218.250561 232.424243 
L 218.89987 232.682773 
L 219.54918 232.437258 
L 220.198489 233.021211 
L 221.497107 232.412827 
L 222.146416 232.67125 
L 222.795725 232.419412 
L 223.445034 233.092736 
L 224.094343 233.294428 
L 224.743652 232.629804 
L 225.392961 232.826153 
L 226.04227 232.788711 
L 226.69158 233.163396 
L 227.340889 232.750899 
L 227.990198 231.49968 
L 228.639507 231.929407 
L 229.288816 233.076309 
L 229.938125 232.895968 
L 230.587434 232.43055 
L 231.236743 232.73169 
L 232.535361 232.337057 
L 233.18467 233.139823 
L 233.83398 232.760902 
L 235.132598 232.689809 
L 235.781907 232.940608 
L 236.431216 232.30787 
L 239.028452 232.681044 
L 239.677761 232.55593 
L 240.32707 233.106986 
L 240.97638 232.69255 
L 241.625689 232.951614 
L 242.274998 232.798866 
L 243.573616 232.695459 
L 244.222925 232.953871 
L 244.872234 232.679846 
L 245.521543 233.006306 
L 246.170852 229.237694 
L 246.820161 232.413354 
L 247.46947 232.508396 
L 248.11878 232.271231 
L 248.768089 232.771341 
L 249.417398 232.797966 
L 250.066707 233.202858 
L 250.716016 232.755123 
L 251.365325 232.006994 
L 252.014634 232.727466 
L 253.313252 232.851257 
L 253.962561 232.391512 
L 254.61187 232.53727 
L 255.26118 232.549603 
L 255.910489 232.436775 
L 256.559798 233.000076 
L 257.209107 232.837348 
L 257.858416 233.065082 
L 258.507725 232.533688 
L 259.806343 232.753935 
L 260.455652 232.577133 
L 261.104961 233.00151 
L 261.75427 232.905327 
L 262.40358 232.688801 
L 263.052889 232.6021 
L 263.702198 232.808264 
L 264.351507 232.729199 
L 265.000816 232.781811 
L 265.650125 232.06516 
L 266.299434 232.874945 
L 266.948743 232.36347 
L 267.598052 232.689256 
L 268.247361 232.503726 
L 268.89667 232.74097 
L 269.54598 232.585906 
L 270.195289 232.76672 
L 270.844598 232.538197 
L 271.493907 232.698093 
L 272.792525 232.610372 
L 273.441834 232.803904 
L 274.740452 232.476916 
L 276.68838 233.043596 
L 277.337689 232.848394 
L 277.986998 232.770838 
L 278.636307 232.944715 
L 279.285616 232.432626 
L 279.934925 232.733121 
L 281.882852 232.855539 
L 282.532161 232.703141 
L 283.18147 232.678724 
L 284.480089 232.777736 
L 285.129398 232.5981 
L 285.778707 232.731816 
L 286.428016 232.527323 
L 287.077325 232.71671 
L 287.726634 232.634387 
L 288.375943 232.714294 
L 290.32387 232.46163 
L 290.97318 232.89264 
L 292.271798 232.350461 
L 294.219725 232.85318 
L 295.518343 232.338944 
L 296.167652 232.7455 
L 296.816961 232.998093 
L 297.46627 232.656932 
L 299.414198 232.690337 
L 301.362125 232.574212 
L 304.60867 232.843638 
L 305.25798 232.646384 
L 305.907289 232.751456 
L 306.556598 232.521807 
L 308.504525 232.804384 
L 309.153834 232.595146 
L 309.803143 233.000313 
L 312.40038 232.704312 
L 313.698998 232.76497 
L 314.348307 232.863139 
L 316.296234 232.765821 
L 316.945543 232.937955 
L 318.244161 232.74093 
L 318.89347 232.751233 
L 319.54278 232.905655 
L 320.192089 232.60428 
L 320.841398 232.797136 
L 322.140016 232.726782 
L 322.789325 232.865429 
L 324.087943 232.628817 
L 324.737252 232.778917 
L 325.386561 232.578262 
L 326.03587 232.809556 
L 329.931725 232.757556 
L 330.581034 232.896849 
L 331.230343 232.67088 
L 331.879652 232.810723 
L 333.17827 232.683644 
L 334.476889 232.827889 
L 337.074125 232.738603 
L 337.723434 232.817186 
L 338.372743 232.718911 
L 339.022052 232.865279 
L 340.32067 232.645988 
L 340.96998 232.852995 
L 341.619289 232.912225 
L 342.268598 232.730568 
L 342.917907 232.849141 
L 343.567216 232.665593 
L 344.216525 232.803377 
L 345.515143 232.636607 
L 346.164452 232.895374 
L 347.46307 232.757099 
L 348.11238 232.665517 
L 348.761689 232.881631 
L 350.709616 232.790893 
L 352.008234 232.717625 
L 353.956161 232.65778 
L 354.60547 232.86189 
L 355.25478 232.68504 
L 355.904089 232.817533 
L 356.553398 232.660915 
L 359.799943 232.713483 
L 360.449252 232.63491 
L 362.39718 232.76227 
L 367.591652 232.705399 
L 368.240961 232.887984 
L 371.487507 232.761056 
L 372.786125 232.771182 
L 373.435434 232.627216 
L 374.734052 232.793705 
L 375.383361 232.815957 
L 376.03267 232.721767 
L 376.68198 232.778727 
L 377.331289 232.636466 
L 377.980598 232.758842 
L 379.928525 232.74804 
L 385.122998 232.670577 
L 385.772307 232.798602 
L 386.421616 232.724258 
L 387.070925 232.83163 
L 389.018852 232.681514 
L 390.96678 232.808067 
L 392.265398 232.788421 
L 392.265398 232.788421 
" clip-path="url(#p1b8de9ecef)" style="fill: none; stroke: #ff7f0e; stroke-width: 1.5; stroke-linecap: square"/>
   </g>
   <g id="line2d_36">
    <path d="M 67.610852 35.796282 
L 68.260161 128.190358 
L 69.55878 155.123986 
L 70.208089 161.430398 
L 70.857398 162.104373 
L 71.506707 176.744388 
L 72.156016 174.899826 
L 72.805325 189.506938 
L 73.454634 189.392293 
L 74.103943 190.048457 
L 74.753252 190.462002 
L 75.402561 213.094491 
L 76.05187 204.207002 
L 76.70118 211.40823 
L 77.350489 209.974558 
L 77.999798 196.266806 
L 78.649107 215.354287 
L 79.298416 218.071632 
L 79.947725 221.998348 
L 80.597034 214.315968 
L 81.246343 216.215028 
L 81.895652 223.735143 
L 82.544961 201.89617 
L 83.19427 204.868456 
L 83.84358 226.30933 
L 84.492889 224.740814 
L 85.142198 229.297068 
L 85.791507 214.469897 
L 86.440816 215.33988 
L 87.090125 212.032221 
L 87.739434 209.7574 
L 88.388743 210.835429 
L 89.038052 232.356009 
L 89.687361 225.123137 
L 90.33667 224.643311 
L 90.98598 184.508184 
L 91.635289 218.090664 
L 92.284598 214.704932 
L 92.933907 232.380254 
L 93.583216 232.820854 
L 94.232525 227.917154 
L 94.881834 204.377643 
L 95.531143 227.147283 
L 96.180452 231.26171 
L 96.829761 227.302277 
L 97.47907 208.406981 
L 98.12838 235.002243 
L 98.777689 240.514149 
L 99.426998 236.695707 
L 100.076307 225.664668 
L 100.725616 224.150031 
L 101.374925 227.724081 
L 102.024234 228.716923 
L 102.673543 220.940149 
L 103.322852 233.139787 
L 103.972161 240.718802 
L 104.62147 231.873129 
L 105.27078 230.968342 
L 105.920089 240.423566 
L 107.218707 223.208883 
L 107.868016 242.32355 
L 108.517325 210.218337 
L 109.166634 229.45638 
L 109.815943 219.425549 
L 110.465252 202.881539 
L 111.114561 145.648553 
L 111.76387 228.711622 
L 112.41318 239.232769 
L 113.062489 243.492792 
L 113.711798 203.730742 
L 114.361107 227.597335 
L 115.010416 226.385036 
L 115.659725 240.02821 
L 116.309034 243.350857 
L 116.958343 232.219154 
L 117.607652 248.363632 
L 118.256961 245.983018 
L 118.90627 244.23208 
L 119.55558 251.027247 
L 120.204889 242.092791 
L 120.854198 234.834288 
L 121.503507 230.735431 
L 122.152816 234.047038 
L 122.802125 235.720461 
L 123.451434 220.162873 
L 124.100743 234.074919 
L 124.750052 224.581574 
L 125.399361 239.312925 
L 126.04867 248.858848 
L 126.69798 244.950081 
L 127.347289 246.806229 
L 127.996598 248.185626 
L 128.645907 248.069251 
L 129.295216 246.190318 
L 129.944525 227.027793 
L 130.593834 248.215607 
L 131.243143 251.200859 
L 131.892452 251.595143 
L 132.541761 249.945158 
L 133.19107 249.224771 
L 133.84038 248.821216 
L 134.489689 247.824011 
L 135.138998 242.925573 
L 135.788307 251.256694 
L 136.437616 233.342906 
L 137.086925 244.543584 
L 137.736234 243.234719 
L 138.385543 249.899199 
L 139.034852 241.962205 
L 139.684161 232.04756 
L 140.33347 247.771347 
L 140.98278 233.293803 
L 141.632089 226.555204 
L 142.281398 243.04871 
L 142.930707 250.617915 
L 143.580016 250.772986 
L 144.229325 233.956526 
L 144.878634 244.204438 
L 145.527943 247.024821 
L 146.177252 252.133496 
L 146.826561 238.325644 
L 147.47587 243.591203 
L 148.12518 253.820448 
L 148.774489 245.191088 
L 149.423798 252.263742 
L 150.073107 230.054208 
L 150.722416 251.358192 
L 151.371725 254.097249 
L 152.021034 245.863413 
L 152.670343 227.799129 
L 153.319652 244.962623 
L 153.968961 251.641929 
L 154.61827 253.620396 
L 155.26758 233.011121 
L 155.916889 251.255608 
L 156.566198 194.915722 
L 157.215507 252.287353 
L 157.864816 250.258225 
L 158.514125 237.319429 
L 159.163434 244.795567 
L 159.812743 247.519581 
L 160.462052 249.194051 
L 161.111361 255.832414 
L 161.76067 229.446769 
L 162.40998 254.827677 
L 163.708598 248.056314 
L 164.357907 249.280151 
L 165.007216 253.900038 
L 165.656525 254.838478 
L 166.305834 249.792861 
L 167.604452 256.968175 
L 168.253761 254.529897 
L 168.90307 252.570064 
L 169.55238 253.677178 
L 170.201689 255.395361 
L 170.850998 250.85663 
L 171.500307 258.658151 
L 172.149616 254.970166 
L 172.798925 252.980738 
L 173.448234 255.484249 
L 174.097543 250.567214 
L 174.746852 240.659019 
L 175.396161 256.218291 
L 176.04547 239.230555 
L 176.69478 256.556485 
L 177.344089 247.564172 
L 177.993398 256.536107 
L 178.642707 243.453919 
L 179.292016 256.722512 
L 179.941325 257.240668 
L 180.590634 256.359571 
L 181.239943 249.586464 
L 181.889252 256.078901 
L 182.538561 258.339522 
L 183.18787 258.812612 
L 184.486489 256.041659 
L 185.135798 258.3411 
L 185.785107 229.903283 
L 186.434416 249.571999 
L 187.083725 258.341997 
L 187.733034 247.767018 
L 188.382343 255.990517 
L 189.031652 259.293043 
L 189.680961 243.177419 
L 190.33027 242.138833 
L 190.97958 255.136482 
L 191.628889 255.628103 
L 192.278198 240.855264 
L 192.927507 257.260431 
L 193.576816 258.748436 
L 194.226125 258.840689 
L 194.875434 255.009131 
L 195.524743 258.727334 
L 196.174052 256.712265 
L 196.823361 259.555801 
L 197.47267 259.444956 
L 198.12198 258.743293 
L 198.771289 249.724669 
L 199.420598 256.666631 
L 200.069907 257.818055 
L 200.719216 250.588571 
L 201.368525 258.734739 
L 202.017834 257.471968 
L 202.667143 252.118214 
L 203.316452 253.71552 
L 203.965761 257.194928 
L 204.61507 260.039249 
L 205.913689 249.918016 
L 206.562998 259.581717 
L 207.212307 258.607091 
L 207.861616 254.692019 
L 208.510925 259.346175 
L 209.160234 257.192665 
L 209.809543 259.028616 
L 210.458852 257.984 
L 211.108161 257.60803 
L 211.75747 260.108667 
L 212.40678 258.246855 
L 213.056089 258.997239 
L 213.705398 255.226337 
L 214.354707 258.017698 
L 215.004016 257.5308 
L 215.653325 257.429632 
L 216.302634 231.189532 
L 216.951943 259.809393 
L 217.601252 258.528712 
L 218.250561 260.017857 
L 218.89987 257.988295 
L 219.54918 259.667365 
L 220.198489 258.081087 
L 220.847798 260.350096 
L 221.497107 258.161442 
L 222.146416 255.149501 
L 222.795725 261.170094 
L 223.445034 261.19793 
L 224.094343 259.379601 
L 224.743652 259.564768 
L 225.392961 252.527599 
L 226.04227 247.858357 
L 226.69158 259.529442 
L 227.340889 257.979623 
L 227.990198 259.954656 
L 228.639507 255.209776 
L 229.288816 258.301914 
L 229.938125 254.389089 
L 230.587434 260.947366 
L 231.236743 260.97365 
L 231.886052 260.212466 
L 232.535361 260.628415 
L 233.18467 258.886285 
L 233.83398 260.332055 
L 234.483289 259.089169 
L 235.132598 261.425289 
L 235.781907 257.106421 
L 236.431216 242.59882 
L 237.080525 256.163449 
L 238.379143 261.249786 
L 239.028452 259.259828 
L 239.677761 260.250671 
L 240.32707 258.272744 
L 240.97638 258.093858 
L 241.625689 260.563696 
L 242.274998 260.868155 
L 242.924307 260.650191 
L 243.573616 256.05452 
L 244.222925 260.739464 
L 244.872234 261.085666 
L 245.521543 245.069642 
L 246.170852 260.779246 
L 246.820161 262.166264 
L 247.46947 260.198254 
L 248.11878 261.060442 
L 248.768089 260.171756 
L 249.417398 259.937307 
L 250.066707 261.309658 
L 250.716016 260.339113 
L 251.365325 261.198653 
L 252.014634 261.354881 
L 252.663943 261.699821 
L 253.313252 261.403934 
L 253.962561 260.90572 
L 254.61187 259.376002 
L 255.26118 246.825568 
L 255.910489 261.742825 
L 256.559798 261.820698 
L 257.209107 260.760234 
L 257.858416 262.336874 
L 258.507725 256.940026 
L 259.157034 258.035783 
L 259.806343 261.869722 
L 260.455652 253.549321 
L 261.104961 261.537446 
L 261.75427 261.448311 
L 262.40358 261.718079 
L 263.052889 261.457838 
L 263.702198 262.318226 
L 264.351507 261.689451 
L 265.000816 262.792645 
L 265.650125 260.657215 
L 266.299434 261.959484 
L 268.247361 262.29664 
L 268.89667 262.171166 
L 269.54598 260.806321 
L 270.195289 260.035393 
L 270.844598 260.95029 
L 271.493907 262.653431 
L 272.143216 259.12365 
L 272.792525 261.696283 
L 273.441834 261.644476 
L 274.091143 260.037402 
L 274.740452 261.112353 
L 275.389761 260.455713 
L 276.03907 262.113965 
L 276.68838 262.086488 
L 277.337689 262.38927 
L 278.636307 261.418182 
L 279.285616 259.983189 
L 279.934925 257.338306 
L 280.584234 262.247795 
L 281.233543 262.867716 
L 281.882852 261.405756 
L 282.532161 262.368229 
L 283.18147 262.728162 
L 283.83078 262.828093 
L 285.129398 262.310274 
L 285.778707 261.099325 
L 286.428016 262.841153 
L 287.077325 262.229996 
L 287.726634 262.595721 
L 288.375943 262.421204 
L 289.025252 262.819199 
L 289.674561 262.056658 
L 290.97318 262.766441 
L 291.622489 262.730153 
L 292.271798 262.019281 
L 292.921107 262.294755 
L 293.570416 262.717557 
L 294.219725 262.298581 
L 294.869034 262.684564 
L 295.518343 262.734764 
L 296.167652 262.441999 
L 296.816961 262.643241 
L 297.46627 260.678646 
L 298.11558 262.561796 
L 298.764889 262.291417 
L 299.414198 261.236647 
L 300.063507 263.164994 
L 300.712816 260.492784 
L 301.362125 263.110303 
L 302.011434 262.44941 
L 302.660743 260.181197 
L 303.310052 262.663936 
L 303.959361 263.314615 
L 304.60867 261.891627 
L 305.25798 263.448164 
L 305.907289 262.508011 
L 307.205907 263.093426 
L 307.855216 262.487749 
L 308.504525 262.504818 
L 309.153834 263.093216 
L 309.803143 262.709053 
L 310.452452 263.186487 
L 311.101761 263.369503 
L 311.75107 263.237767 
L 313.049689 263.156111 
L 313.698998 262.899109 
L 314.348307 262.823397 
L 314.997616 263.116354 
L 315.646925 261.986184 
L 316.296234 263.276581 
L 316.945543 263.453581 
L 317.594852 262.768753 
L 318.244161 263.31904 
L 318.89347 263.405312 
L 319.54278 261.163091 
L 320.192089 263.002506 
L 320.841398 263.131556 
L 321.490707 263.128616 
L 322.140016 261.424323 
L 322.789325 263.382852 
L 323.438634 263.31822 
L 324.737252 262.968803 
L 325.386561 263.127923 
L 326.03587 263.049948 
L 326.68518 263.240075 
L 327.334489 263.06196 
L 328.633107 263.085139 
L 329.282416 263.296028 
L 329.931725 263.626992 
L 331.230343 262.760182 
L 331.879652 262.908466 
L 332.528961 263.465169 
L 333.17827 263.590208 
L 333.82758 263.337309 
L 334.476889 263.633321 
L 335.126198 263.340525 
L 335.775507 263.231345 
L 337.074125 263.39065 
L 337.723434 263.518724 
L 338.372743 263.824786 
L 339.671361 263.371448 
L 340.32067 263.590488 
L 340.96998 263.213497 
L 342.917907 263.682895 
L 343.567216 261.195484 
L 344.216525 263.419477 
L 344.865834 263.734812 
L 345.515143 263.295813 
L 346.164452 263.294213 
L 346.813761 263.531695 
L 349.410998 263.591716 
L 350.060307 263.115783 
L 350.709616 263.666998 
L 351.358925 263.562406 
L 352.008234 263.061773 
L 352.657543 263.209764 
L 353.306852 263.872431 
L 353.956161 263.540642 
L 354.60547 262.491763 
L 355.25478 263.451941 
L 355.904089 263.623384 
L 356.553398 263.584757 
L 357.202707 263.371748 
L 358.501325 263.671593 
L 359.150634 263.428152 
L 362.39718 263.764555 
L 363.046489 263.519771 
L 363.695798 263.657282 
L 364.345107 263.476477 
L 364.994416 263.753124 
L 365.643725 263.344296 
L 366.942343 263.787011 
L 367.591652 263.306637 
L 368.240961 263.885444 
L 368.89027 263.499858 
L 370.188889 263.547284 
L 371.487507 263.742699 
L 372.136816 263.684349 
L 372.786125 263.853295 
L 373.435434 263.465123 
L 374.084743 263.718209 
L 374.734052 263.459344 
L 375.383361 263.707842 
L 376.03267 263.557586 
L 376.68198 263.732948 
L 377.331289 263.5628 
L 377.980598 263.61778 
L 378.629907 263.259544 
L 379.279216 263.686282 
L 379.928525 263.155362 
L 380.577834 263.741866 
L 381.876452 263.709243 
L 382.525761 263.553785 
L 383.82438 263.595724 
L 384.473689 263.246599 
L 385.122998 263.815269 
L 388.369543 263.690153 
L 389.018852 263.47875 
L 389.668161 263.828733 
L 390.31747 263.112864 
L 390.96678 263.747899 
L 391.616089 263.504549 
L 392.265398 263.468414 
L 392.265398 263.468414 
" clip-path="url(#p1b8de9ecef)" style="fill: none; stroke: #2ca02c; stroke-width: 1.5; stroke-linecap: square"/>
   </g>
   <g id="line2d_37">
    <path d="M 67.610852 35.872412 
L 68.260161 125.17844 
L 68.90947 138.586898 
L 69.55878 143.693603 
L 70.208089 153.521914 
L 70.857398 169.218049 
L 71.506707 180.265636 
L 72.156016 183.983347 
L 72.805325 184.452007 
L 73.454634 138.238982 
L 74.103943 167.368233 
L 74.753252 180.634719 
L 75.402561 188.360303 
L 76.05187 190.852332 
L 76.70118 177.779585 
L 77.350489 203.335145 
L 77.999798 209.058563 
L 78.649107 216.957367 
L 79.298416 219.158316 
L 79.947725 217.831064 
L 80.597034 216.201015 
L 81.246343 227.020358 
L 81.895652 211.972496 
L 82.544961 190.866964 
L 83.19427 212.375847 
L 83.84358 227.126352 
L 84.492889 205.925901 
L 85.142198 222.94048 
L 85.791507 208.387378 
L 86.440816 236.38939 
L 87.090125 218.748973 
L 87.739434 211.193722 
L 88.388743 237.992332 
L 89.038052 237.058242 
L 89.687361 221.923268 
L 90.33667 220.359856 
L 90.98598 223.982807 
L 91.635289 239.947938 
L 92.284598 221.960618 
L 92.933907 239.148188 
L 93.583216 230.263034 
L 94.232525 224.736395 
L 94.881834 207.032659 
L 96.180452 233.809169 
L 96.829761 234.341718 
L 97.47907 233.84226 
L 98.12838 242.94995 
L 98.777689 234.823257 
L 99.426998 233.412288 
L 100.076307 227.383568 
L 100.725616 245.684575 
L 101.374925 227.085618 
L 102.024234 231.114367 
L 102.673543 225.279596 
L 103.322852 222.275206 
L 103.972161 248.707695 
L 104.62147 247.012008 
L 105.27078 236.40001 
L 105.920089 238.633055 
L 106.569398 238.884172 
L 107.218707 228.140692 
L 107.868016 244.225071 
L 108.517325 218.018445 
L 109.166634 240.05454 
L 109.815943 245.69141 
L 110.465252 239.5247 
L 111.114561 247.376613 
L 111.76387 231.905455 
L 112.41318 230.588081 
L 113.062489 226.061571 
L 113.711798 224.842069 
L 114.361107 251.432129 
L 115.010416 230.331856 
L 115.659725 242.996198 
L 116.309034 240.727701 
L 116.958343 235.974109 
L 117.607652 236.132709 
L 118.256961 248.765002 
L 118.90627 245.866116 
L 119.55558 246.055204 
L 120.204889 245.141856 
L 121.503507 238.299865 
L 122.152816 232.267802 
L 122.802125 241.222078 
L 123.451434 243.995691 
L 124.100743 228.80304 
L 124.750052 246.119884 
L 125.399361 227.27387 
L 126.04867 238.748238 
L 126.69798 245.031291 
L 127.347289 242.079173 
L 127.996598 236.719323 
L 128.645907 241.186064 
L 129.295216 248.728355 
L 129.944525 248.476917 
L 130.593834 248.919441 
L 131.243143 247.009854 
L 131.892452 241.648915 
L 132.541761 248.12014 
L 133.19107 238.450158 
L 133.84038 249.187215 
L 134.489689 240.385042 
L 135.788307 245.917721 
L 136.437616 249.722004 
L 137.086925 231.927619 
L 137.736234 247.604855 
L 138.385543 247.174861 
L 139.034852 252.93206 
L 139.684161 242.752334 
L 140.98278 239.051711 
L 141.632089 247.199615 
L 142.281398 250.288352 
L 142.930707 241.963801 
L 143.580016 252.687097 
L 144.229325 244.709738 
L 144.878634 243.551641 
L 145.527943 251.651861 
L 146.177252 249.701207 
L 146.826561 250.422213 
L 147.47587 224.760628 
L 148.12518 246.369655 
L 148.774489 251.570052 
L 149.423798 235.533391 
L 150.073107 239.580206 
L 150.722416 250.925464 
L 151.371725 252.583557 
L 152.021034 247.424731 
L 152.670343 248.781414 
L 153.319652 230.664479 
L 153.968961 243.803871 
L 154.61827 245.691948 
L 155.26758 250.125153 
L 155.916889 248.369271 
L 156.566198 252.757585 
L 157.215507 246.29139 
L 157.864816 249.406981 
L 158.514125 248.408573 
L 159.812743 250.111391 
L 160.462052 255.116403 
L 161.111361 250.921542 
L 161.76067 253.422094 
L 162.40998 251.620817 
L 163.059289 248.011123 
L 163.708598 252.291624 
L 164.357907 254.629465 
L 165.007216 251.511917 
L 165.656525 251.092513 
L 166.305834 250.383006 
L 166.955143 253.518062 
L 167.604452 252.544383 
L 168.253761 251.8316 
L 168.90307 255.366266 
L 169.55238 241.337799 
L 170.201689 254.913369 
L 170.850998 249.898261 
L 171.500307 255.030629 
L 172.149616 249.430557 
L 172.798925 248.892745 
L 173.448234 247.655188 
L 174.097543 251.535597 
L 174.746852 241.061873 
L 175.396161 245.770157 
L 176.04547 246.698851 
L 176.69478 250.342191 
L 177.344089 251.960984 
L 177.993398 248.994476 
L 178.642707 252.263319 
L 179.292016 248.780927 
L 179.941325 255.379728 
L 180.590634 253.87683 
L 181.239943 254.756179 
L 181.889252 251.346958 
L 182.538561 255.20671 
L 183.18787 255.605057 
L 183.83718 243.797615 
L 184.486489 252.714956 
L 185.135798 254.04865 
L 185.785107 251.314354 
L 186.434416 255.673226 
L 187.083725 255.346778 
L 187.733034 255.637738 
L 188.382343 253.444932 
L 189.031652 254.515284 
L 189.680961 252.908911 
L 190.33027 253.529632 
L 190.97958 255.513405 
L 191.628889 250.175621 
L 192.278198 253.176512 
L 193.576816 255.162635 
L 194.226125 255.89844 
L 194.875434 253.673539 
L 195.524743 254.489047 
L 196.174052 257.036866 
L 196.823361 255.889402 
L 197.47267 256.645841 
L 198.12198 253.879295 
L 198.771289 255.052051 
L 199.420598 255.474834 
L 200.719216 252.198909 
L 201.368525 250.02591 
L 202.017834 255.081063 
L 202.667143 250.828151 
L 203.316452 255.843466 
L 203.965761 255.431343 
L 204.61507 255.467157 
L 205.26438 255.647096 
L 205.913689 255.407435 
L 206.562998 254.033906 
L 207.212307 256.000178 
L 207.861616 256.054489 
L 208.510925 256.479657 
L 209.160234 256.303559 
L 209.809543 248.09877 
L 210.458852 257.078418 
L 211.108161 257.337751 
L 211.75747 256.970733 
L 212.40678 255.115967 
L 213.056089 255.94522 
L 213.705398 254.914245 
L 214.354707 256.524428 
L 215.004016 256.872836 
L 215.653325 255.617488 
L 216.302634 257.500347 
L 216.951943 256.382093 
L 217.601252 256.100945 
L 218.250561 256.826755 
L 218.89987 255.78736 
L 219.54918 257.368052 
L 220.198489 256.579976 
L 220.847798 257.757171 
L 221.497107 256.690182 
L 222.146416 256.9339 
L 222.795725 256.82308 
L 223.445034 256.921906 
L 224.094343 257.245609 
L 225.392961 255.991294 
L 226.04227 256.295866 
L 226.69158 256.018345 
L 227.340889 253.846803 
L 227.990198 257.427837 
L 228.639507 257.657892 
L 229.288816 256.746429 
L 229.938125 255.560981 
L 230.587434 256.942261 
L 231.236743 257.381729 
L 231.886052 255.964018 
L 232.535361 257.098278 
L 233.18467 257.942598 
L 233.83398 257.088613 
L 234.483289 256.701802 
L 235.132598 257.470907 
L 235.781907 257.437966 
L 236.431216 256.396273 
L 237.080525 256.118133 
L 238.379143 257.12508 
L 239.028452 254.004299 
L 239.677761 257.156633 
L 240.32707 256.938225 
L 240.97638 255.169614 
L 241.625689 257.26984 
L 242.274998 256.739555 
L 242.924307 257.326568 
L 243.573616 255.193972 
L 244.222925 257.439567 
L 244.872234 258.255717 
L 245.521543 255.037303 
L 246.170852 256.927631 
L 246.820161 256.767863 
L 247.46947 256.491655 
L 248.11878 256.794344 
L 248.768089 256.933461 
L 249.417398 256.094375 
L 250.716016 257.207516 
L 251.365325 255.672298 
L 252.014634 257.704899 
L 252.663943 256.953774 
L 253.313252 256.712015 
L 253.962561 257.026428 
L 254.61187 256.626768 
L 255.26118 256.987586 
L 255.910489 257.698697 
L 256.559798 256.758467 
L 257.209107 257.194504 
L 257.858416 256.764919 
L 258.507725 256.135169 
L 259.157034 256.2555 
L 259.806343 257.073861 
L 260.455652 254.79407 
L 261.104961 256.956921 
L 261.75427 257.215523 
L 262.40358 256.893488 
L 263.052889 256.161033 
L 263.702198 257.156228 
L 264.351507 256.795875 
L 265.000816 257.303559 
L 265.650125 256.786165 
L 266.299434 257.050038 
L 266.948743 257.118887 
L 267.598052 256.591235 
L 268.247361 257.117663 
L 269.54598 256.965417 
L 270.195289 256.207253 
L 270.844598 256.651694 
L 271.493907 256.817468 
L 272.143216 256.320547 
L 272.792525 256.496427 
L 274.091143 257.110339 
L 274.740452 256.009652 
L 275.389761 256.799123 
L 276.03907 256.89447 
L 276.68838 256.177964 
L 277.337689 256.378928 
L 277.986998 257.259154 
L 278.636307 256.810746 
L 279.285616 255.043879 
L 280.584234 256.686079 
L 281.233543 256.45108 
L 281.882852 256.446478 
L 282.532161 256.982627 
L 283.18147 257.007732 
L 283.83078 256.360066 
L 284.480089 256.515226 
L 285.129398 256.03805 
L 285.778707 256.614697 
L 287.077325 256.908317 
L 287.726634 256.352298 
L 288.375943 257.141323 
L 289.025252 256.715924 
L 289.674561 256.605992 
L 290.32387 255.874046 
L 290.97318 256.179901 
L 291.622489 255.868792 
L 292.271798 256.201562 
L 292.921107 255.485661 
L 293.570416 256.54607 
L 294.219725 256.996787 
L 294.869034 256.680095 
L 296.167652 256.526149 
L 296.816961 256.657453 
L 297.46627 256.007186 
L 298.764889 256.590432 
L 299.414198 256.67292 
L 300.063507 256.439329 
L 300.712816 255.878702 
L 301.362125 256.916587 
L 302.011434 256.393474 
L 302.660743 256.884104 
L 303.310052 256.665067 
L 303.959361 256.9538 
L 304.60867 255.975201 
L 305.25798 256.682861 
L 305.907289 256.227343 
L 306.556598 256.52593 
L 307.205907 256.249817 
L 307.855216 256.418943 
L 308.504525 256.434498 
L 309.153834 256.636346 
L 311.101761 256.816635 
L 311.75107 256.300912 
L 312.40038 256.616454 
L 313.049689 256.719097 
L 314.348307 256.306712 
L 314.997616 256.489533 
L 315.646925 255.794806 
L 316.296234 256.521912 
L 317.594852 256.826299 
L 318.244161 256.349476 
L 318.89347 256.898301 
L 319.54278 255.987804 
L 320.192089 256.469157 
L 320.841398 256.443012 
L 321.490707 256.718345 
L 322.789325 256.906605 
L 324.087943 256.629994 
L 324.737252 256.792442 
L 325.386561 256.267469 
L 326.03587 256.386346 
L 327.334489 256.408048 
L 328.633107 256.533899 
L 329.282416 256.313921 
L 329.931725 256.228938 
L 330.581034 256.384189 
L 331.230343 256.24175 
L 331.879652 256.723984 
L 333.17827 256.150147 
L 333.82758 256.782521 
L 334.476889 256.432904 
L 336.424816 256.411386 
L 337.074125 256.740193 
L 337.723434 256.426016 
L 338.372743 256.603988 
L 339.022052 256.355105 
L 340.32067 256.795538 
L 341.619289 256.42829 
L 342.268598 256.672825 
L 343.567216 255.90001 
L 344.865834 256.613853 
L 345.515143 256.577176 
L 346.164452 256.671375 
L 346.813761 256.514584 
L 347.46307 256.594138 
L 348.761689 256.35579 
L 349.410998 256.643343 
L 350.060307 256.087478 
L 350.709616 256.427936 
L 352.008234 256.448843 
L 352.657543 256.277433 
L 353.306852 256.558946 
L 353.956161 256.617796 
L 354.60547 256.243449 
L 355.25478 256.508567 
L 355.904089 256.287495 
L 356.553398 256.47644 
L 357.202707 256.190694 
L 357.852016 256.456727 
L 358.501325 256.506847 
L 359.150634 256.703407 
L 359.799943 256.59355 
L 360.449252 256.272383 
L 361.098561 256.357327 
L 361.74787 256.645644 
L 362.39718 256.419447 
L 363.046489 256.352838 
L 363.695798 256.64504 
L 364.345107 256.371562 
L 364.994416 256.60742 
L 365.643725 256.425956 
L 366.942343 256.740991 
L 367.591652 256.233386 
L 368.89027 256.519462 
L 369.53958 256.484636 
L 370.188889 256.56523 
L 370.838198 256.396729 
L 371.487507 256.465226 
L 372.136816 256.283411 
L 372.786125 256.466613 
L 374.084743 256.486007 
L 374.734052 256.304583 
L 375.383361 256.463853 
L 376.03267 256.40081 
L 376.68198 256.49572 
L 377.331289 256.367183 
L 378.629907 256.36526 
L 379.279216 256.604893 
L 379.928525 256.378726 
L 380.577834 256.580637 
L 381.876452 256.143647 
L 382.525761 256.516383 
L 383.17507 256.23401 
L 383.82438 256.502733 
L 384.473689 256.320251 
L 385.122998 256.451907 
L 386.421616 256.240597 
L 387.070925 256.470706 
L 388.369543 256.283296 
L 389.668161 256.328183 
L 390.31747 256.589865 
L 390.96678 256.430695 
L 391.616089 256.50145 
L 392.265398 256.36128 
L 392.265398 256.36128 
" clip-path="url(#p1b8de9ecef)" style="fill: none; stroke: #d62728; stroke-width: 1.5; stroke-linecap: square"/>
   </g>
   <g id="line2d_38">
    <path d="M 67.610852 34.976786 
L 68.260161 104.719775 
L 68.90947 109.088287 
L 69.55878 106.942845 
L 70.208089 108.834831 
L 71.506707 108.671748 
L 72.156016 108.371195 
L 72.805325 108.205781 
L 73.454634 109.981822 
L 74.103943 109.480068 
L 74.753252 109.340966 
L 75.402561 107.449409 
L 76.05187 109.058111 
L 76.70118 108.427322 
L 77.350489 109.217775 
L 77.999798 110.85076 
L 78.649107 111.235459 
L 79.298416 111.43187 
L 79.947725 108.507241 
L 80.597034 111.086264 
L 81.246343 110.664752 
L 81.895652 110.819075 
L 82.544961 111.648309 
L 83.19427 109.789297 
L 83.84358 110.528568 
L 84.492889 110.815334 
L 85.142198 110.949662 
L 85.791507 111.22632 
L 87.090125 110.446654 
L 88.388743 110.273315 
L 89.038052 109.226496 
L 89.687361 109.51531 
L 90.33667 108.531913 
L 90.98598 108.018738 
L 91.635289 106.84954 
L 92.933907 105.333921 
L 93.583216 104.902973 
L 94.232525 103.888562 
L 94.881834 103.315825 
L 95.531143 103.725375 
L 96.180452 102.980896 
L 96.829761 103.128547 
L 97.47907 102.421939 
L 98.12838 102.359604 
L 98.777689 102.475906 
L 100.076307 101.838231 
L 100.725616 101.928889 
L 101.374925 102.218077 
L 102.024234 101.932409 
L 102.673543 101.889832 
L 103.322852 102.190246 
L 103.972161 102.150812 
L 104.62147 102.431988 
L 105.27078 102.349358 
L 106.569398 102.838047 
L 107.218707 103.754079 
L 107.868016 103.828819 
L 108.517325 104.412968 
L 109.166634 104.196041 
L 109.815943 105.193688 
L 111.114561 106.550439 
L 111.76387 107.092776 
L 112.41318 108.004032 
L 113.062489 108.319239 
L 113.711798 109.014537 
L 115.010416 110.000579 
L 115.659725 110.073418 
L 116.309034 110.891871 
L 116.958343 110.756631 
L 118.256961 110.824802 
L 118.90627 111.12948 
L 119.55558 111.119345 
L 120.204889 110.950522 
L 121.503507 111.277412 
L 122.802125 110.970981 
L 123.451434 110.964926 
L 124.100743 110.813403 
L 124.750052 110.825763 
L 125.399361 110.679299 
L 126.04867 110.736142 
L 127.347289 110.153013 
L 127.996598 110.246906 
L 129.295216 109.716965 
L 129.944525 109.64534 
L 131.243143 109.169267 
L 131.892452 109.160435 
L 132.541761 108.929638 
L 133.19107 108.431097 
L 133.84038 108.526059 
L 135.138998 107.797999 
L 135.788307 108.077965 
L 136.437616 107.666099 
L 137.086925 107.471311 
L 137.736234 107.588425 
L 138.385543 107.039196 
L 139.034852 107.11099 
L 139.684161 106.897562 
L 140.98278 106.798437 
L 141.632089 106.634263 
L 142.281398 106.081823 
L 142.930707 106.473956 
L 143.580016 105.944683 
L 144.229325 106.061036 
L 144.878634 105.763378 
L 148.12518 105.430826 
L 148.774489 105.141792 
L 149.423798 105.364575 
L 150.073107 104.831901 
L 150.722416 105.019332 
L 151.371725 104.917965 
L 152.021034 105.139328 
L 152.670343 104.951363 
L 155.26758 104.660477 
L 155.916889 104.455375 
L 156.566198 104.46073 
L 157.215507 104.349631 
L 157.864816 104.794676 
L 158.514125 104.357966 
L 159.163434 104.392168 
L 159.812743 104.267007 
L 160.462052 104.459725 
L 162.40998 104.320666 
L 163.708598 104.600771 
L 165.007216 104.487368 
L 165.656525 104.27983 
L 166.305834 104.513284 
L 166.955143 104.191624 
L 167.604452 104.437337 
L 168.253761 104.209695 
L 168.90307 104.361686 
L 171.500307 104.283787 
L 172.798925 104.030829 
L 173.448234 104.323526 
L 174.097543 104.424299 
L 174.746852 104.326739 
L 175.396161 104.598062 
L 177.993398 104.610166 
L 178.642707 104.697887 
L 179.941325 104.498959 
L 180.590634 104.36343 
L 181.239943 104.824499 
L 181.889252 104.826695 
L 183.18787 104.536665 
L 183.83718 104.708504 
L 184.486489 104.499181 
L 185.785107 105.000729 
L 186.434416 104.906598 
L 188.382343 104.940118 
L 189.031652 105.183561 
L 190.33027 105.208618 
L 190.97958 105.374869 
L 192.278198 105.341975 
L 192.927507 105.593267 
L 193.576816 105.665147 
L 194.226125 105.527382 
L 194.875434 105.739415 
L 195.524743 105.616244 
L 196.174052 105.759474 
L 196.823361 105.6854 
L 198.771289 105.991026 
L 199.420598 106.241745 
L 200.069907 106.167205 
L 201.368525 106.428772 
L 202.017834 106.400237 
L 202.667143 106.574764 
L 203.965761 106.557479 
L 204.61507 106.837016 
L 205.26438 106.875974 
L 206.562998 106.651345 
L 207.212307 107.167522 
L 207.861616 107.191351 
L 208.510925 107.098188 
L 209.160234 107.280333 
L 209.809543 107.308739 
L 210.458852 107.20983 
L 211.75747 107.783697 
L 212.40678 107.439196 
L 213.056089 107.536687 
L 213.705398 107.812619 
L 215.004016 107.881139 
L 215.653325 107.925529 
L 216.951943 108.166863 
L 217.601252 108.286633 
L 218.89987 108.270368 
L 219.54918 108.534756 
L 220.198489 108.488127 
L 220.847798 108.741701 
L 221.497107 108.668699 
L 223.445034 109.029339 
L 224.094343 108.888981 
L 224.743652 109.294179 
L 225.392961 109.247616 
L 228.639507 109.769537 
L 229.288816 109.578774 
L 229.938125 109.635011 
L 230.587434 109.822801 
L 232.535361 110.055933 
L 233.83398 110.259634 
L 234.483289 110.173639 
L 235.132598 110.405573 
L 237.729834 110.742178 
L 238.379143 110.83474 
L 239.028452 110.791687 
L 239.677761 110.923989 
L 240.32707 110.860399 
L 240.97638 111.021894 
L 241.625689 111.007134 
L 242.274998 111.186334 
L 243.573616 111.277591 
L 244.222925 111.349448 
L 244.872234 111.207781 
L 246.820161 111.579055 
L 248.11878 111.609371 
L 248.768089 111.724016 
L 249.417398 111.623476 
L 250.066707 111.716497 
L 250.716016 112.001971 
L 251.365325 111.874348 
L 252.663943 111.960191 
L 253.313252 112.288067 
L 254.61187 112.1449 
L 255.26118 112.415712 
L 256.559798 112.326693 
L 257.209107 112.25709 
L 257.858416 112.399095 
L 258.507725 112.719577 
L 260.455652 112.572956 
L 261.104961 112.769933 
L 261.75427 112.695216 
L 265.650125 113.122118 
L 266.299434 113.0146 
L 266.948743 113.148141 
L 268.247361 113.063042 
L 268.89667 113.293469 
L 272.143216 113.443333 
L 272.792525 113.6185 
L 274.091143 113.662507 
L 274.740452 113.446278 
L 275.389761 113.72292 
L 276.68838 113.672523 
L 277.337689 113.556062 
L 277.986998 113.739065 
L 280.584234 113.923674 
L 281.233543 114.0909 
L 283.18147 114.081785 
L 283.83078 114.180712 
L 284.480089 114.053039 
L 285.129398 114.245368 
L 286.428016 114.165778 
L 287.077325 114.351878 
L 292.921107 114.484934 
L 294.219725 114.713726 
L 296.167652 114.773682 
L 296.816961 114.815841 
L 298.11558 114.733161 
L 299.414198 114.929579 
L 300.063507 114.821187 
L 309.803143 115.272456 
L 310.452452 115.171962 
L 311.101761 115.214231 
L 311.75107 115.402264 
L 313.049689 115.375662 
L 313.698998 115.459582 
L 314.348307 115.370088 
L 316.296234 115.543362 
L 316.945543 115.471993 
L 317.594852 115.587414 
L 318.244161 115.491387 
L 318.89347 115.584971 
L 320.192089 115.551161 
L 320.841398 115.698328 
L 321.490707 115.624256 
L 323.438634 115.775127 
L 324.087943 115.712261 
L 325.386561 115.917239 
L 326.68518 115.744069 
L 329.931725 115.956275 
L 331.230343 115.93133 
L 333.82758 115.943153 
L 334.476889 116.031774 
L 336.424816 115.972072 
L 337.723434 116.097305 
L 338.372743 116.031733 
L 339.022052 116.114846 
L 339.671361 116.024786 
L 340.96998 116.183824 
L 342.917907 116.141706 
L 343.567216 116.21876 
L 344.216525 116.093542 
L 344.865834 116.183751 
L 346.164452 116.167558 
L 347.46307 116.23417 
L 381.876452 116.763685 
L 383.82438 116.745421 
L 385.122998 116.859703 
L 387.720234 116.853594 
L 389.018852 116.899547 
L 390.31747 116.850167 
L 390.96678 116.933338 
L 392.265398 116.872816 
L 392.265398 116.872816 
" clip-path="url(#p1b8de9ecef)" style="fill: none; stroke: #9467bd; stroke-width: 1.5; stroke-linecap: square"/>
   </g>
   <g id="line2d_39">
    <path d="M 67.610852 35.11359 
L 68.260161 90.147457 
L 68.90947 102.656872 
L 69.55878 106.554484 
L 70.208089 107.446835 
L 72.156016 109.089995 
L 72.805325 109.987954 
L 73.454634 81.009974 
L 74.103943 106.803401 
L 74.753252 109.955705 
L 75.402561 111.248369 
L 76.05187 111.498455 
L 76.70118 111.974899 
L 77.350489 111.356116 
L 78.649107 110.998503 
L 80.597034 109.841919 
L 81.246343 109.322307 
L 81.895652 109.765037 
L 82.544961 109.533724 
L 83.19427 109.905937 
L 83.84358 110.44405 
L 85.142198 110.382288 
L 86.440816 109.974763 
L 87.090125 110.244665 
L 87.739434 110.246185 
L 88.388743 110.439235 
L 89.038052 110.448387 
L 89.687361 110.925885 
L 90.33667 111.076485 
L 90.98598 111.410068 
L 91.635289 111.108653 
L 92.284598 111.192554 
L 92.933907 111.136156 
L 93.583216 111.594773 
L 94.881834 111.585656 
L 95.531143 111.809677 
L 96.829761 111.894015 
L 98.12838 111.792908 
L 98.777689 111.932041 
L 99.426998 111.682915 
L 100.076307 111.636728 
L 100.725616 111.843527 
L 101.374925 111.763587 
L 102.024234 112.039282 
L 102.673543 111.834727 
L 104.62147 111.649137 
L 105.27078 111.478011 
L 106.569398 111.668962 
L 107.218707 111.338741 
L 107.868016 111.46326 
L 108.517325 111.353769 
L 109.166634 111.398246 
L 109.815943 111.228569 
L 110.465252 110.891921 
L 111.76387 111.156259 
L 113.711798 110.454166 
L 114.361107 110.515803 
L 115.010416 110.083907 
L 116.309034 109.815021 
L 116.958343 109.345909 
L 118.256961 109.41094 
L 119.55558 108.633687 
L 120.204889 107.935177 
L 120.854198 108.326499 
L 121.503507 108.429502 
L 122.152816 107.676519 
L 122.802125 107.388983 
L 123.451434 107.533301 
L 124.750052 106.71432 
L 126.69798 106.375572 
L 127.347289 106.051088 
L 127.996598 106.314934 
L 129.944525 105.562249 
L 130.593834 105.787291 
L 131.243143 105.723336 
L 131.892452 105.788101 
L 132.541761 105.599745 
L 133.84038 105.429661 
L 134.489689 105.718242 
L 135.138998 105.570978 
L 135.788307 105.597238 
L 136.437616 105.143051 
L 137.086925 105.310566 
L 137.736234 105.216193 
L 138.385543 105.449671 
L 139.034852 105.350632 
L 139.684161 105.477569 
L 140.33347 105.417925 
L 140.98278 105.745808 
L 141.632089 105.352226 
L 142.930707 105.61231 
L 143.580016 105.438311 
L 144.229325 105.576673 
L 144.878634 105.829221 
L 145.527943 105.528931 
L 146.177252 105.922022 
L 146.826561 105.953748 
L 147.47587 106.112579 
L 148.12518 106.081824 
L 148.774489 106.270312 
L 150.073107 106.31216 
L 150.722416 106.616678 
L 152.021034 106.41407 
L 152.670343 106.80215 
L 153.319652 106.581332 
L 153.968961 107.082624 
L 154.61827 107.119962 
L 156.566198 107.576419 
L 158.514125 107.791637 
L 159.163434 107.889039 
L 159.812743 107.845817 
L 160.462052 108.016016 
L 161.111361 108.478744 
L 163.059289 108.647555 
L 163.708598 108.807804 
L 164.357907 108.816934 
L 166.305834 109.248548 
L 166.955143 109.136639 
L 167.604452 109.356918 
L 168.90307 109.402528 
L 170.850998 109.93884 
L 171.500307 109.783818 
L 174.097543 110.261685 
L 174.746852 110.189301 
L 175.396161 110.403955 
L 176.04547 110.323337 
L 176.69478 110.634163 
L 177.344089 110.78042 
L 178.642707 110.690371 
L 179.292016 110.939058 
L 181.889252 110.958958 
L 182.538561 111.197133 
L 183.18787 111.274731 
L 183.83718 111.222725 
L 185.785107 111.525935 
L 186.434416 111.533147 
L 187.083725 111.654638 
L 188.382343 111.647138 
L 189.680961 111.954793 
L 191.628889 111.918893 
L 193.576816 112.201612 
L 194.226125 112.270723 
L 194.875434 112.218392 
L 195.524743 112.310878 
L 196.174052 112.252515 
L 197.47267 112.595219 
L 198.771289 112.577771 
L 210.458852 113.328825 
L 211.108161 113.215195 
L 211.75747 113.37244 
L 213.056089 113.483961 
L 213.705398 113.600803 
L 215.004016 113.535694 
L 215.653325 113.648945 
L 216.951943 113.6834 
L 217.601252 113.879606 
L 218.250561 113.730534 
L 219.54918 113.899449 
L 221.497107 113.932693 
L 222.795725 114.121059 
L 225.392961 114.070555 
L 226.69158 114.317677 
L 227.340889 114.148964 
L 227.990198 114.365283 
L 229.288816 114.29182 
L 229.938125 114.398872 
L 231.886052 114.463771 
L 234.483289 114.594713 
L 235.132598 114.571718 
L 235.781907 114.703699 
L 237.729834 114.699374 
L 238.379143 114.780895 
L 239.677761 114.751378 
L 242.274998 114.935497 
L 242.924307 114.905406 
L 243.573616 115.016457 
L 248.11878 115.018924 
L 252.014634 115.204425 
L 252.663943 115.156432 
L 254.61187 115.306548 
L 262.40358 115.455345 
L 263.052889 115.524141 
L 263.702198 115.451754 
L 264.351507 115.559503 
L 265.000816 115.488929 
L 265.650125 115.594332 
L 267.598052 115.517017 
L 269.54598 115.630806 
L 270.195289 115.548097 
L 272.143216 115.619637 
L 276.68838 115.761832 
L 277.986998 115.701241 
L 281.882852 115.733871 
L 283.18147 115.786126 
L 283.83078 115.834139 
L 285.129398 115.762497 
L 287.077325 115.766154 
L 288.375943 115.794938 
L 301.362125 115.836698 
L 302.011434 115.745459 
L 302.660743 115.858562 
L 313.049689 115.87765 
L 316.945543 115.89988 
L 318.244161 115.882039 
L 322.140016 115.864602 
L 322.789325 115.914861 
L 324.737252 115.829323 
L 326.03587 115.813696 
L 334.476889 115.790812 
L 338.372743 115.78642 
L 339.671361 115.775541 
L 341.619289 115.765486 
L 343.567216 115.788996 
L 346.813761 115.757849 
L 350.060307 115.759189 
L 353.956161 115.707484 
L 359.150634 115.731219 
L 360.449252 115.659644 
L 362.39718 115.704862 
L 364.994416 115.664574 
L 366.942343 115.701026 
L 371.487507 115.6613 
L 392.265398 115.577185 
L 392.265398 115.577185 
" clip-path="url(#p1b8de9ecef)" style="fill: none; stroke: #8c564b; stroke-width: 1.5; stroke-linecap: square"/>
   </g>
   <g id="patch_3">
    <path d="M 51.378125 288.430125 
L 51.378125 22.318125 
" style="fill: none; stroke: #000000; stroke-width: 0.8; stroke-linejoin: miter; stroke-linecap: square"/>
   </g>
   <g id="patch_4">
    <path d="M 408.498125 288.430125 
L 408.498125 22.318125 
" style="fill: none; stroke: #000000; stroke-width: 0.8; stroke-linejoin: miter; stroke-linecap: square"/>
   </g>
   <g id="patch_5">
    <path d="M 51.378125 288.430125 
L 408.498125 288.430125 
" style="fill: none; stroke: #000000; stroke-width: 0.8; stroke-linejoin: miter; stroke-linecap: square"/>
   </g>
   <g id="patch_6">
    <path d="M 51.378125 22.318125 
L 408.498125 22.318125 
" style="fill: none; stroke: #000000; stroke-width: 0.8; stroke-linejoin: miter; stroke-linecap: square"/>
   </g>
   <g id="text_12">
    <!-- Validation Error $P$ -->
    <g transform="translate(177.498125 16.318125) scale(0.12 -0.12)">
     <defs>
      <path id="DejaVuSans-56" d="M 1831 0 
L 50 4666 
L 709 4666 
L 2188 738 
L 3669 4666 
L 4325 4666 
L 2547 0 
L 1831 0 
z
" transform="scale(0.015625)"/>
      <path id="DejaVuSans-6c" d="M 603 4863 
L 1178 4863 
L 1178 0 
L 603 0 
L 603 4863 
z
" transform="scale(0.015625)"/>
      <path id="DejaVuSans-69" d="M 603 3500 
L 1178 3500 
L 1178 0 
L 603 0 
L 603 3500 
z
M 603 4863 
L 1178 4863 
L 1178 4134 
L 603 4134 
L 603 4863 
z
" transform="scale(0.015625)"/>
      <path id="DejaVuSans-64" d="M 2906 2969 
L 2906 4863 
L 3481 4863 
L 3481 0 
L 2906 0 
L 2906 525 
Q 2725 213 2448 61 
Q 2172 -91 1784 -91 
Q 1150 -91 751 415 
Q 353 922 353 1747 
Q 353 2572 751 3078 
Q 1150 3584 1784 3584 
Q 2172 3584 2448 3432 
Q 2725 3281 2906 2969 
z
M 947 1747 
Q 947 1113 1208 752 
Q 1469 391 1925 391 
Q 2381 391 2643 752 
Q 2906 1113 2906 1747 
Q 2906 2381 2643 2742 
Q 2381 3103 1925 3103 
Q 1469 3103 1208 2742 
Q 947 2381 947 1747 
z
" transform="scale(0.015625)"/>
      <path id="DejaVuSans-Oblique-50" d="M 1081 4666 
L 2541 4666 
Q 3178 4666 3512 4369 
Q 3847 4072 3847 3500 
Q 3847 2731 3353 2303 
Q 2859 1875 1966 1875 
L 1172 1875 
L 806 0 
L 172 0 
L 1081 4666 
z
M 1613 4147 
L 1275 2394 
L 2069 2394 
Q 2606 2394 2893 2669 
Q 3181 2944 3181 3456 
Q 3181 3784 2986 3965 
Q 2791 4147 2438 4147 
L 1613 4147 
z
" transform="scale(0.015625)"/>
     </defs>
     <use xlink:href="#DejaVuSans-56" transform="translate(0 0.015625)"/>
     <use xlink:href="#DejaVuSans-61" transform="translate(68.408203 0.015625)"/>
     <use xlink:href="#DejaVuSans-6c" transform="translate(129.6875 0.015625)"/>
     <use xlink:href="#DejaVuSans-69" transform="translate(157.470703 0.015625)"/>
     <use xlink:href="#DejaVuSans-64" transform="translate(185.253906 0.015625)"/>
     <use xlink:href="#DejaVuSans-61" transform="translate(248.730469 0.015625)"/>
     <use xlink:href="#DejaVuSans-74" transform="translate(310.009766 0.015625)"/>
     <use xlink:href="#DejaVuSans-69" transform="translate(349.21875 0.015625)"/>
     <use xlink:href="#DejaVuSans-6f" transform="translate(377.001953 0.015625)"/>
     <use xlink:href="#DejaVuSans-6e" transform="translate(438.183594 0.015625)"/>
     <use xlink:href="#DejaVuSans-20" transform="translate(501.5625 0.015625)"/>
     <use xlink:href="#DejaVuSans-45" transform="translate(533.349609 0.015625)"/>
     <use xlink:href="#DejaVuSans-72" transform="translate(596.533203 0.015625)"/>
     <use xlink:href="#DejaVuSans-72" transform="translate(637.646484 0.015625)"/>
     <use xlink:href="#DejaVuSans-6f" transform="translate(678.759766 0.015625)"/>
     <use xlink:href="#DejaVuSans-72" transform="translate(739.941406 0.015625)"/>
     <use xlink:href="#DejaVuSans-20" transform="translate(781.054688 0.015625)"/>
     <use xlink:href="#DejaVuSans-Oblique-50" transform="translate(812.841797 0.015625)"/>
    </g>
   </g>
   <g id="legend_1">
    <g id="patch_7">
     <path d="M 58.378125 200.95225 
L 289.378125 200.95225 
Q 291.378125 200.95225 291.378125 198.95225 
L 291.378125 111.796 
Q 291.378125 109.796 289.378125 109.796 
L 58.378125 109.796 
Q 56.378125 109.796 56.378125 111.796 
L 56.378125 198.95225 
Q 56.378125 200.95225 58.378125 200.95225 
z
" style="fill: #ffffff; opacity: 0.8; stroke: #cccccc; stroke-linejoin: miter"/>
    </g>
    <g id="line2d_40">
     <path d="M 60.378125 117.894437 
L 70.378125 117.894437 
L 80.378125 117.894437 
" style="fill: none; stroke: #1f77b4; stroke-width: 1.5; stroke-linecap: square"/>
    </g>
    <g id="text_13">
     <!-- FCNN, Physics -->
     <g transform="translate(88.378125 121.394437) scale(0.1 -0.1)">
      <defs>
       <path id="DejaVuSans-46" d="M 628 4666 
L 3309 4666 
L 3309 4134 
L 1259 4134 
L 1259 2759 
L 3109 2759 
L 3109 2228 
L 1259 2228 
L 1259 0 
L 628 0 
L 628 4666 
z
" transform="scale(0.015625)"/>
       <path id="DejaVuSans-43" d="M 4122 4306 
L 4122 3641 
Q 3803 3938 3442 4084 
Q 3081 4231 2675 4231 
Q 1875 4231 1450 3742 
Q 1025 3253 1025 2328 
Q 1025 1406 1450 917 
Q 1875 428 2675 428 
Q 3081 428 3442 575 
Q 3803 722 4122 1019 
L 4122 359 
Q 3791 134 3420 21 
Q 3050 -91 2638 -91 
Q 1578 -91 968 557 
Q 359 1206 359 2328 
Q 359 3453 968 4101 
Q 1578 4750 2638 4750 
Q 3056 4750 3426 4639 
Q 3797 4528 4122 4306 
z
" transform="scale(0.015625)"/>
       <path id="DejaVuSans-4e" d="M 628 4666 
L 1478 4666 
L 3547 763 
L 3547 4666 
L 4159 4666 
L 4159 0 
L 3309 0 
L 1241 3903 
L 1241 0 
L 628 0 
L 628 4666 
z
" transform="scale(0.015625)"/>
       <path id="DejaVuSans-2c" d="M 750 794 
L 1409 794 
L 1409 256 
L 897 -744 
L 494 -744 
L 750 256 
L 750 794 
z
" transform="scale(0.015625)"/>
       <path id="DejaVuSans-50" d="M 1259 4147 
L 1259 2394 
L 2053 2394 
Q 2494 2394 2734 2622 
Q 2975 2850 2975 3272 
Q 2975 3691 2734 3919 
Q 2494 4147 2053 4147 
L 1259 4147 
z
M 628 4666 
L 2053 4666 
Q 2838 4666 3239 4311 
Q 3641 3956 3641 3272 
Q 3641 2581 3239 2228 
Q 2838 1875 2053 1875 
L 1259 1875 
L 1259 0 
L 628 0 
L 628 4666 
z
" transform="scale(0.015625)"/>
       <path id="DejaVuSans-68" d="M 3513 2113 
L 3513 0 
L 2938 0 
L 2938 2094 
Q 2938 2591 2744 2837 
Q 2550 3084 2163 3084 
Q 1697 3084 1428 2787 
Q 1159 2491 1159 1978 
L 1159 0 
L 581 0 
L 581 4863 
L 1159 4863 
L 1159 2956 
Q 1366 3272 1645 3428 
Q 1925 3584 2291 3584 
Q 2894 3584 3203 3211 
Q 3513 2838 3513 2113 
z
" transform="scale(0.015625)"/>
       <path id="DejaVuSans-79" d="M 2059 -325 
Q 1816 -950 1584 -1140 
Q 1353 -1331 966 -1331 
L 506 -1331 
L 506 -850 
L 844 -850 
Q 1081 -850 1212 -737 
Q 1344 -625 1503 -206 
L 1606 56 
L 191 3500 
L 800 3500 
L 1894 763 
L 2988 3500 
L 3597 3500 
L 2059 -325 
z
" transform="scale(0.015625)"/>
       <path id="DejaVuSans-73" d="M 2834 3397 
L 2834 2853 
Q 2591 2978 2328 3040 
Q 2066 3103 1784 3103 
Q 1356 3103 1142 2972 
Q 928 2841 928 2578 
Q 928 2378 1081 2264 
Q 1234 2150 1697 2047 
L 1894 2003 
Q 2506 1872 2764 1633 
Q 3022 1394 3022 966 
Q 3022 478 2636 193 
Q 2250 -91 1575 -91 
Q 1294 -91 989 -36 
Q 684 19 347 128 
L 347 722 
Q 666 556 975 473 
Q 1284 391 1588 391 
Q 1994 391 2212 530 
Q 2431 669 2431 922 
Q 2431 1156 2273 1281 
Q 2116 1406 1581 1522 
L 1381 1569 
Q 847 1681 609 1914 
Q 372 2147 372 2553 
Q 372 3047 722 3315 
Q 1072 3584 1716 3584 
Q 2034 3584 2315 3537 
Q 2597 3491 2834 3397 
z
" transform="scale(0.015625)"/>
       <path id="DejaVuSans-63" d="M 3122 3366 
L 3122 2828 
Q 2878 2963 2633 3030 
Q 2388 3097 2138 3097 
Q 1578 3097 1268 2742 
Q 959 2388 959 1747 
Q 959 1106 1268 751 
Q 1578 397 2138 397 
Q 2388 397 2633 464 
Q 2878 531 3122 666 
L 3122 134 
Q 2881 22 2623 -34 
Q 2366 -91 2075 -91 
Q 1284 -91 818 406 
Q 353 903 353 1747 
Q 353 2603 823 3093 
Q 1294 3584 2113 3584 
Q 2378 3584 2631 3529 
Q 2884 3475 3122 3366 
z
" transform="scale(0.015625)"/>
      </defs>
      <use xlink:href="#DejaVuSans-46"/>
      <use xlink:href="#DejaVuSans-43" x="57.519531"/>
      <use xlink:href="#DejaVuSans-4e" x="127.34375"/>
      <use xlink:href="#DejaVuSans-4e" x="202.148438"/>
      <use xlink:href="#DejaVuSans-2c" x="276.953125"/>
      <use xlink:href="#DejaVuSans-20" x="308.740234"/>
      <use xlink:href="#DejaVuSans-50" x="340.527344"/>
      <use xlink:href="#DejaVuSans-68" x="400.830078"/>
      <use xlink:href="#DejaVuSans-79" x="464.208984"/>
      <use xlink:href="#DejaVuSans-73" x="523.388672"/>
      <use xlink:href="#DejaVuSans-69" x="575.488281"/>
      <use xlink:href="#DejaVuSans-63" x="603.271484"/>
      <use xlink:href="#DejaVuSans-73" x="658.251953"/>
     </g>
    </g>
    <g id="line2d_41">
     <path d="M 60.378125 132.572562 
L 70.378125 132.572562 
L 80.378125 132.572562 
" style="fill: none; stroke: #ff7f0e; stroke-width: 1.5; stroke-linecap: square"/>
    </g>
    <g id="text_14">
     <!-- FCNN, Data -->
     <g transform="translate(88.378125 136.072562) scale(0.1 -0.1)">
      <defs>
       <path id="DejaVuSans-44" d="M 1259 4147 
L 1259 519 
L 2022 519 
Q 2988 519 3436 956 
Q 3884 1394 3884 2338 
Q 3884 3275 3436 3711 
Q 2988 4147 2022 4147 
L 1259 4147 
z
M 628 4666 
L 1925 4666 
Q 3281 4666 3915 4102 
Q 4550 3538 4550 2338 
Q 4550 1131 3912 565 
Q 3275 0 1925 0 
L 628 0 
L 628 4666 
z
" transform="scale(0.015625)"/>
      </defs>
      <use xlink:href="#DejaVuSans-46"/>
      <use xlink:href="#DejaVuSans-43" x="57.519531"/>
      <use xlink:href="#DejaVuSans-4e" x="127.34375"/>
      <use xlink:href="#DejaVuSans-4e" x="202.148438"/>
      <use xlink:href="#DejaVuSans-2c" x="276.953125"/>
      <use xlink:href="#DejaVuSans-20" x="308.740234"/>
      <use xlink:href="#DejaVuSans-44" x="340.527344"/>
      <use xlink:href="#DejaVuSans-61" x="417.529297"/>
      <use xlink:href="#DejaVuSans-74" x="478.808594"/>
      <use xlink:href="#DejaVuSans-61" x="518.017578"/>
     </g>
    </g>
    <g id="line2d_42">
     <path d="M 60.378125 147.25225 
L 70.378125 147.25225 
L 80.378125 147.25225 
" style="fill: none; stroke: #2ca02c; stroke-width: 1.5; stroke-linecap: square"/>
    </g>
    <g id="text_15">
     <!-- FCNN, Data+Physics, $W_d=0.1$ -->
     <g transform="translate(88.378125 150.75225) scale(0.1 -0.1)">
      <defs>
       <path id="DejaVuSans-2b" d="M 2944 4013 
L 2944 2272 
L 4684 2272 
L 4684 1741 
L 2944 1741 
L 2944 0 
L 2419 0 
L 2419 1741 
L 678 1741 
L 678 2272 
L 2419 2272 
L 2419 4013 
L 2944 4013 
z
" transform="scale(0.015625)"/>
       <path id="DejaVuSans-Oblique-57" d="M 616 4666 
L 1228 4666 
L 1453 697 
L 3213 4666 
L 3916 4666 
L 4147 697 
L 5888 4666 
L 6528 4666 
L 4453 0 
L 3659 0 
L 3444 3891 
L 1697 0 
L 903 0 
L 616 4666 
z
" transform="scale(0.015625)"/>
       <path id="DejaVuSans-Oblique-64" d="M 2675 525 
Q 2444 222 2128 65 
Q 1813 -91 1428 -91 
Q 903 -91 598 267 
Q 294 625 294 1247 
Q 294 1766 478 2236 
Q 663 2706 1013 3078 
Q 1244 3325 1534 3454 
Q 1825 3584 2144 3584 
Q 2481 3584 2739 3421 
Q 2997 3259 3138 2956 
L 3513 4863 
L 4091 4863 
L 3144 0 
L 2566 0 
L 2675 525 
z
M 891 1350 
Q 891 897 1095 644 
Q 1300 391 1663 391 
Q 1931 391 2161 520 
Q 2391 650 2566 903 
Q 2750 1166 2856 1509 
Q 2963 1853 2963 2188 
Q 2963 2622 2758 2865 
Q 2553 3109 2194 3109 
Q 1922 3109 1687 2981 
Q 1453 2853 1288 2613 
Q 1106 2353 998 2009 
Q 891 1666 891 1350 
z
" transform="scale(0.015625)"/>
       <path id="DejaVuSans-3d" d="M 678 2906 
L 4684 2906 
L 4684 2381 
L 678 2381 
L 678 2906 
z
M 678 1631 
L 4684 1631 
L 4684 1100 
L 678 1100 
L 678 1631 
z
" transform="scale(0.015625)"/>
       <path id="DejaVuSans-2e" d="M 684 794 
L 1344 794 
L 1344 0 
L 684 0 
L 684 794 
z
" transform="scale(0.015625)"/>
      </defs>
      <use xlink:href="#DejaVuSans-46" transform="translate(0 0.015625)"/>
      <use xlink:href="#DejaVuSans-43" transform="translate(57.519531 0.015625)"/>
      <use xlink:href="#DejaVuSans-4e" transform="translate(127.34375 0.015625)"/>
      <use xlink:href="#DejaVuSans-4e" transform="translate(202.148438 0.015625)"/>
      <use xlink:href="#DejaVuSans-2c" transform="translate(276.953125 0.015625)"/>
      <use xlink:href="#DejaVuSans-20" transform="translate(308.740234 0.015625)"/>
      <use xlink:href="#DejaVuSans-44" transform="translate(340.527344 0.015625)"/>
      <use xlink:href="#DejaVuSans-61" transform="translate(417.529297 0.015625)"/>
      <use xlink:href="#DejaVuSans-74" transform="translate(478.808594 0.015625)"/>
      <use xlink:href="#DejaVuSans-61" transform="translate(518.017578 0.015625)"/>
      <use xlink:href="#DejaVuSans-2b" transform="translate(579.296875 0.015625)"/>
      <use xlink:href="#DejaVuSans-50" transform="translate(663.085938 0.015625)"/>
      <use xlink:href="#DejaVuSans-68" transform="translate(723.388672 0.015625)"/>
      <use xlink:href="#DejaVuSans-79" transform="translate(786.767578 0.015625)"/>
      <use xlink:href="#DejaVuSans-73" transform="translate(845.947266 0.015625)"/>
      <use xlink:href="#DejaVuSans-69" transform="translate(898.046875 0.015625)"/>
      <use xlink:href="#DejaVuSans-63" transform="translate(925.830078 0.015625)"/>
      <use xlink:href="#DejaVuSans-73" transform="translate(980.810547 0.015625)"/>
      <use xlink:href="#DejaVuSans-2c" transform="translate(1032.910156 0.015625)"/>
      <use xlink:href="#DejaVuSans-20" transform="translate(1064.697266 0.015625)"/>
      <use xlink:href="#DejaVuSans-Oblique-57" transform="translate(1096.484375 0.015625)"/>
      <use xlink:href="#DejaVuSans-Oblique-64" transform="translate(1195.361328 -16.390625) scale(0.7)"/>
      <use xlink:href="#DejaVuSans-3d" transform="translate(1262.011719 0.015625)"/>
      <use xlink:href="#DejaVuSans-30" transform="translate(1365.283203 0.015625)"/>
      <use xlink:href="#DejaVuSans-2e" transform="translate(1428.90625 0.015625)"/>
      <use xlink:href="#DejaVuSans-31" transform="translate(1460.693359 0.015625)"/>
     </g>
    </g>
    <g id="line2d_43">
     <path d="M 60.378125 161.95225 
L 70.378125 161.95225 
L 80.378125 161.95225 
" style="fill: none; stroke: #d62728; stroke-width: 1.5; stroke-linecap: square"/>
    </g>
    <g id="text_16">
     <!-- FCNN, Data+Physics, $W_d=1$ -->
     <g transform="translate(88.378125 165.45225) scale(0.1 -0.1)">
      <use xlink:href="#DejaVuSans-46" transform="translate(0 0.015625)"/>
      <use xlink:href="#DejaVuSans-43" transform="translate(57.519531 0.015625)"/>
      <use xlink:href="#DejaVuSans-4e" transform="translate(127.34375 0.015625)"/>
      <use xlink:href="#DejaVuSans-4e" transform="translate(202.148438 0.015625)"/>
      <use xlink:href="#DejaVuSans-2c" transform="translate(276.953125 0.015625)"/>
      <use xlink:href="#DejaVuSans-20" transform="translate(308.740234 0.015625)"/>
      <use xlink:href="#DejaVuSans-44" transform="translate(340.527344 0.015625)"/>
      <use xlink:href="#DejaVuSans-61" transform="translate(417.529297 0.015625)"/>
      <use xlink:href="#DejaVuSans-74" transform="translate(478.808594 0.015625)"/>
      <use xlink:href="#DejaVuSans-61" transform="translate(518.017578 0.015625)"/>
      <use xlink:href="#DejaVuSans-2b" transform="translate(579.296875 0.015625)"/>
      <use xlink:href="#DejaVuSans-50" transform="translate(663.085938 0.015625)"/>
      <use xlink:href="#DejaVuSans-68" transform="translate(723.388672 0.015625)"/>
      <use xlink:href="#DejaVuSans-79" transform="translate(786.767578 0.015625)"/>
      <use xlink:href="#DejaVuSans-73" transform="translate(845.947266 0.015625)"/>
      <use xlink:href="#DejaVuSans-69" transform="translate(898.046875 0.015625)"/>
      <use xlink:href="#DejaVuSans-63" transform="translate(925.830078 0.015625)"/>
      <use xlink:href="#DejaVuSans-73" transform="translate(980.810547 0.015625)"/>
      <use xlink:href="#DejaVuSans-2c" transform="translate(1032.910156 0.015625)"/>
      <use xlink:href="#DejaVuSans-20" transform="translate(1064.697266 0.015625)"/>
      <use xlink:href="#DejaVuSans-Oblique-57" transform="translate(1096.484375 0.015625)"/>
      <use xlink:href="#DejaVuSans-Oblique-64" transform="translate(1195.361328 -16.390625) scale(0.7)"/>
      <use xlink:href="#DejaVuSans-3d" transform="translate(1262.011719 0.015625)"/>
      <use xlink:href="#DejaVuSans-31" transform="translate(1365.283203 0.015625)"/>
     </g>
    </g>
    <g id="line2d_44">
     <path d="M 60.378125 176.65225 
L 70.378125 176.65225 
L 80.378125 176.65225 
" style="fill: none; stroke: #9467bd; stroke-width: 1.5; stroke-linecap: square"/>
    </g>
    <g id="text_17">
     <!-- FCNN, Pressure Data+Physics, $W_d=0.1$ -->
     <g transform="translate(88.378125 180.15225) scale(0.1 -0.1)">
      <defs>
       <path id="DejaVuSans-75" d="M 544 1381 
L 544 3500 
L 1119 3500 
L 1119 1403 
Q 1119 906 1312 657 
Q 1506 409 1894 409 
Q 2359 409 2629 706 
Q 2900 1003 2900 1516 
L 2900 3500 
L 3475 3500 
L 3475 0 
L 2900 0 
L 2900 538 
Q 2691 219 2414 64 
Q 2138 -91 1772 -91 
Q 1169 -91 856 284 
Q 544 659 544 1381 
z
M 1991 3584 
L 1991 3584 
z
" transform="scale(0.015625)"/>
      </defs>
      <use xlink:href="#DejaVuSans-46" transform="translate(0 0.015625)"/>
      <use xlink:href="#DejaVuSans-43" transform="translate(57.519531 0.015625)"/>
      <use xlink:href="#DejaVuSans-4e" transform="translate(127.34375 0.015625)"/>
      <use xlink:href="#DejaVuSans-4e" transform="translate(202.148438 0.015625)"/>
      <use xlink:href="#DejaVuSans-2c" transform="translate(276.953125 0.015625)"/>
      <use xlink:href="#DejaVuSans-20" transform="translate(308.740234 0.015625)"/>
      <use xlink:href="#DejaVuSans-50" transform="translate(340.527344 0.015625)"/>
      <use xlink:href="#DejaVuSans-72" transform="translate(400.830078 0.015625)"/>
      <use xlink:href="#DejaVuSans-65" transform="translate(441.943359 0.015625)"/>
      <use xlink:href="#DejaVuSans-73" transform="translate(503.466797 0.015625)"/>
      <use xlink:href="#DejaVuSans-73" transform="translate(555.566406 0.015625)"/>
      <use xlink:href="#DejaVuSans-75" transform="translate(607.666016 0.015625)"/>
      <use xlink:href="#DejaVuSans-72" transform="translate(671.044922 0.015625)"/>
      <use xlink:href="#DejaVuSans-65" transform="translate(712.158203 0.015625)"/>
      <use xlink:href="#DejaVuSans-20" transform="translate(773.681641 0.015625)"/>
      <use xlink:href="#DejaVuSans-44" transform="translate(805.46875 0.015625)"/>
      <use xlink:href="#DejaVuSans-61" transform="translate(882.470703 0.015625)"/>
      <use xlink:href="#DejaVuSans-74" transform="translate(943.75 0.015625)"/>
      <use xlink:href="#DejaVuSans-61" transform="translate(982.958984 0.015625)"/>
      <use xlink:href="#DejaVuSans-2b" transform="translate(1044.238281 0.015625)"/>
      <use xlink:href="#DejaVuSans-50" transform="translate(1128.027344 0.015625)"/>
      <use xlink:href="#DejaVuSans-68" transform="translate(1188.330078 0.015625)"/>
      <use xlink:href="#DejaVuSans-79" transform="translate(1251.708984 0.015625)"/>
      <use xlink:href="#DejaVuSans-73" transform="translate(1310.888672 0.015625)"/>
      <use xlink:href="#DejaVuSans-69" transform="translate(1362.988281 0.015625)"/>
      <use xlink:href="#DejaVuSans-63" transform="translate(1390.771484 0.015625)"/>
      <use xlink:href="#DejaVuSans-73" transform="translate(1445.751953 0.015625)"/>
      <use xlink:href="#DejaVuSans-2c" transform="translate(1497.851562 0.015625)"/>
      <use xlink:href="#DejaVuSans-20" transform="translate(1529.638672 0.015625)"/>
      <use xlink:href="#DejaVuSans-Oblique-57" transform="translate(1561.425781 0.015625)"/>
      <use xlink:href="#DejaVuSans-Oblique-64" transform="translate(1660.302734 -16.390625) scale(0.7)"/>
      <use xlink:href="#DejaVuSans-3d" transform="translate(1726.953125 0.015625)"/>
      <use xlink:href="#DejaVuSans-30" transform="translate(1830.224609 0.015625)"/>
      <use xlink:href="#DejaVuSans-2e" transform="translate(1893.847656 0.015625)"/>
      <use xlink:href="#DejaVuSans-31" transform="translate(1925.634766 0.015625)"/>
     </g>
    </g>
    <g id="line2d_45">
     <path d="M 60.378125 191.35225 
L 70.378125 191.35225 
L 80.378125 191.35225 
" style="fill: none; stroke: #8c564b; stroke-width: 1.5; stroke-linecap: square"/>
    </g>
    <g id="text_18">
     <!-- FCNN, Pressure Data+Physics, $W_d=1$ -->
     <g transform="translate(88.378125 194.85225) scale(0.1 -0.1)">
      <use xlink:href="#DejaVuSans-46" transform="translate(0 0.015625)"/>
      <use xlink:href="#DejaVuSans-43" transform="translate(57.519531 0.015625)"/>
      <use xlink:href="#DejaVuSans-4e" transform="translate(127.34375 0.015625)"/>
      <use xlink:href="#DejaVuSans-4e" transform="translate(202.148438 0.015625)"/>
      <use xlink:href="#DejaVuSans-2c" transform="translate(276.953125 0.015625)"/>
      <use xlink:href="#DejaVuSans-20" transform="translate(308.740234 0.015625)"/>
      <use xlink:href="#DejaVuSans-50" transform="translate(340.527344 0.015625)"/>
      <use xlink:href="#DejaVuSans-72" transform="translate(400.830078 0.015625)"/>
      <use xlink:href="#DejaVuSans-65" transform="translate(441.943359 0.015625)"/>
      <use xlink:href="#DejaVuSans-73" transform="translate(503.466797 0.015625)"/>
      <use xlink:href="#DejaVuSans-73" transform="translate(555.566406 0.015625)"/>
      <use xlink:href="#DejaVuSans-75" transform="translate(607.666016 0.015625)"/>
      <use xlink:href="#DejaVuSans-72" transform="translate(671.044922 0.015625)"/>
      <use xlink:href="#DejaVuSans-65" transform="translate(712.158203 0.015625)"/>
      <use xlink:href="#DejaVuSans-20" transform="translate(773.681641 0.015625)"/>
      <use xlink:href="#DejaVuSans-44" transform="translate(805.46875 0.015625)"/>
      <use xlink:href="#DejaVuSans-61" transform="translate(882.470703 0.015625)"/>
      <use xlink:href="#DejaVuSans-74" transform="translate(943.75 0.015625)"/>
      <use xlink:href="#DejaVuSans-61" transform="translate(982.958984 0.015625)"/>
      <use xlink:href="#DejaVuSans-2b" transform="translate(1044.238281 0.015625)"/>
      <use xlink:href="#DejaVuSans-50" transform="translate(1128.027344 0.015625)"/>
      <use xlink:href="#DejaVuSans-68" transform="translate(1188.330078 0.015625)"/>
      <use xlink:href="#DejaVuSans-79" transform="translate(1251.708984 0.015625)"/>
      <use xlink:href="#DejaVuSans-73" transform="translate(1310.888672 0.015625)"/>
      <use xlink:href="#DejaVuSans-69" transform="translate(1362.988281 0.015625)"/>
      <use xlink:href="#DejaVuSans-63" transform="translate(1390.771484 0.015625)"/>
      <use xlink:href="#DejaVuSans-73" transform="translate(1445.751953 0.015625)"/>
      <use xlink:href="#DejaVuSans-2c" transform="translate(1497.851562 0.015625)"/>
      <use xlink:href="#DejaVuSans-20" transform="translate(1529.638672 0.015625)"/>
      <use xlink:href="#DejaVuSans-Oblique-57" transform="translate(1561.425781 0.015625)"/>
      <use xlink:href="#DejaVuSans-Oblique-64" transform="translate(1660.302734 -16.390625) scale(0.7)"/>
      <use xlink:href="#DejaVuSans-3d" transform="translate(1726.953125 0.015625)"/>
      <use xlink:href="#DejaVuSans-31" transform="translate(1830.224609 0.015625)"/>
     </g>
    </g>
   </g>
  </g>
 </g>
 <defs>
  <clipPath id="p1b8de9ecef">
   <rect x="51.378125" y="22.318125" width="357.12" height="266.112"/>
  </clipPath>
 </defs>
</svg>
