<?xml version="1.0" encoding="utf-8" standalone="no"?>
<!DOCTYPE svg PUBLIC "-//W3C//DTD SVG 1.1//EN"
  "http://www.w3.org/Graphics/SVG/1.1/DTD/svg11.dtd">
<svg xmlns:xlink="http://www.w3.org/1999/xlink" width="409.023125pt" height="325.986375pt" viewBox="0 0 409.023125 325.986375" xmlns="http://www.w3.org/2000/svg" version="1.1">
 <metadata>
  <rdf:RDF xmlns:dc="http://purl.org/dc/elements/1.1/" xmlns:cc="http://creativecommons.org/ns#" xmlns:rdf="http://www.w3.org/1999/02/22-rdf-syntax-ns#">
   <cc:Work>
    <dc:type rdf:resource="http://purl.org/dc/dcmitype/StillImage"/>
    <dc:date>2024-09-25T14:11:21.618227</dc:date>
    <dc:format>image/svg+xml</dc:format>
    <dc:creator>
     <cc:Agent>
      <dc:title>Matplotlib v3.8.2, https://matplotlib.org/</dc:title>
     </cc:Agent>
    </dc:creator>
   </cc:Work>
  </rdf:RDF>
 </metadata>
 <defs>
  <style type="text/css">*{stroke-linejoin: round; stroke-linecap: butt}</style>
 </defs>
 <g id="figure_1">
  <g id="patch_1">
   <path d="M 0 325.986375 
L 409.023125 325.986375 
L 409.023125 0 
L 0 0 
z
" style="fill: #ffffff"/>
  </g>
  <g id="axes_1">
   <g id="patch_2">
    <path d="M 44.703125 288.430125 
L 401.823125 288.430125 
L 401.823125 22.318125 
L 44.703125 22.318125 
z
" style="fill: #ffffff"/>
   </g>
   <g id="matplotlib.axis_1">
    <g id="xtick_1">
     <g id="line2d_1">
      <defs>
       <path id="mc2ce16e8cf" d="M 0 0 
L 0 3.5 
" style="stroke: #000000; stroke-width: 0.8"/>
      </defs>
      <g>
       <use xlink:href="#mc2ce16e8cf" x="60.935852" y="288.430125" style="stroke: #000000; stroke-width: 0.8"/>
      </g>
     </g>
     <g id="text_1">
      <!-- 0.2 -->
      <g transform="translate(52.98429 303.028562) scale(0.1 -0.1)">
       <defs>
        <path id="DejaVuSans-30" d="M 2034 4250 
Q 1547 4250 1301 3770 
Q 1056 3291 1056 2328 
Q 1056 1369 1301 889 
Q 1547 409 2034 409 
Q 2525 409 2770 889 
Q 3016 1369 3016 2328 
Q 3016 3291 2770 3770 
Q 2525 4250 2034 4250 
z
M 2034 4750 
Q 2819 4750 3233 4129 
Q 3647 3509 3647 2328 
Q 3647 1150 3233 529 
Q 2819 -91 2034 -91 
Q 1250 -91 836 529 
Q 422 1150 422 2328 
Q 422 3509 836 4129 
Q 1250 4750 2034 4750 
z
" transform="scale(0.015625)"/>
        <path id="DejaVuSans-2e" d="M 684 794 
L 1344 794 
L 1344 0 
L 684 0 
L 684 794 
z
" transform="scale(0.015625)"/>
        <path id="DejaVuSans-32" d="M 1228 531 
L 3431 531 
L 3431 0 
L 469 0 
L 469 531 
Q 828 903 1448 1529 
Q 2069 2156 2228 2338 
Q 2531 2678 2651 2914 
Q 2772 3150 2772 3378 
Q 2772 3750 2511 3984 
Q 2250 4219 1831 4219 
Q 1534 4219 1204 4116 
Q 875 4013 500 3803 
L 500 4441 
Q 881 4594 1212 4672 
Q 1544 4750 1819 4750 
Q 2544 4750 2975 4387 
Q 3406 4025 3406 3419 
Q 3406 3131 3298 2873 
Q 3191 2616 2906 2266 
Q 2828 2175 2409 1742 
Q 1991 1309 1228 531 
z
" transform="scale(0.015625)"/>
       </defs>
       <use xlink:href="#DejaVuSans-30"/>
       <use xlink:href="#DejaVuSans-2e" x="63.623047"/>
       <use xlink:href="#DejaVuSans-32" x="95.410156"/>
      </g>
     </g>
    </g>
    <g id="xtick_2">
     <g id="line2d_2">
      <g>
       <use xlink:href="#mc2ce16e8cf" x="138.465296" y="288.430125" style="stroke: #000000; stroke-width: 0.8"/>
      </g>
     </g>
     <g id="text_2">
      <!-- 0.4 -->
      <g transform="translate(130.513733 303.028562) scale(0.1 -0.1)">
       <defs>
        <path id="DejaVuSans-34" d="M 2419 4116 
L 825 1625 
L 2419 1625 
L 2419 4116 
z
M 2253 4666 
L 3047 4666 
L 3047 1625 
L 3713 1625 
L 3713 1100 
L 3047 1100 
L 3047 0 
L 2419 0 
L 2419 1100 
L 313 1100 
L 313 1709 
L 2253 4666 
z
" transform="scale(0.015625)"/>
       </defs>
       <use xlink:href="#DejaVuSans-30"/>
       <use xlink:href="#DejaVuSans-2e" x="63.623047"/>
       <use xlink:href="#DejaVuSans-34" x="95.410156"/>
      </g>
     </g>
    </g>
    <g id="xtick_3">
     <g id="line2d_3">
      <g>
       <use xlink:href="#mc2ce16e8cf" x="215.99474" y="288.430125" style="stroke: #000000; stroke-width: 0.8"/>
      </g>
     </g>
     <g id="text_3">
      <!-- 0.6 -->
      <g transform="translate(208.043177 303.028562) scale(0.1 -0.1)">
       <defs>
        <path id="DejaVuSans-36" d="M 2113 2584 
Q 1688 2584 1439 2293 
Q 1191 2003 1191 1497 
Q 1191 994 1439 701 
Q 1688 409 2113 409 
Q 2538 409 2786 701 
Q 3034 994 3034 1497 
Q 3034 2003 2786 2293 
Q 2538 2584 2113 2584 
z
M 3366 4563 
L 3366 3988 
Q 3128 4100 2886 4159 
Q 2644 4219 2406 4219 
Q 1781 4219 1451 3797 
Q 1122 3375 1075 2522 
Q 1259 2794 1537 2939 
Q 1816 3084 2150 3084 
Q 2853 3084 3261 2657 
Q 3669 2231 3669 1497 
Q 3669 778 3244 343 
Q 2819 -91 2113 -91 
Q 1303 -91 875 529 
Q 447 1150 447 2328 
Q 447 3434 972 4092 
Q 1497 4750 2381 4750 
Q 2619 4750 2861 4703 
Q 3103 4656 3366 4563 
z
" transform="scale(0.015625)"/>
       </defs>
       <use xlink:href="#DejaVuSans-30"/>
       <use xlink:href="#DejaVuSans-2e" x="63.623047"/>
       <use xlink:href="#DejaVuSans-36" x="95.410156"/>
      </g>
     </g>
    </g>
    <g id="xtick_4">
     <g id="line2d_4">
      <g>
       <use xlink:href="#mc2ce16e8cf" x="293.524183" y="288.430125" style="stroke: #000000; stroke-width: 0.8"/>
      </g>
     </g>
     <g id="text_4">
      <!-- 0.8 -->
      <g transform="translate(285.572621 303.028562) scale(0.1 -0.1)">
       <defs>
        <path id="DejaVuSans-38" d="M 2034 2216 
Q 1584 2216 1326 1975 
Q 1069 1734 1069 1313 
Q 1069 891 1326 650 
Q 1584 409 2034 409 
Q 2484 409 2743 651 
Q 3003 894 3003 1313 
Q 3003 1734 2745 1975 
Q 2488 2216 2034 2216 
z
M 1403 2484 
Q 997 2584 770 2862 
Q 544 3141 544 3541 
Q 544 4100 942 4425 
Q 1341 4750 2034 4750 
Q 2731 4750 3128 4425 
Q 3525 4100 3525 3541 
Q 3525 3141 3298 2862 
Q 3072 2584 2669 2484 
Q 3125 2378 3379 2068 
Q 3634 1759 3634 1313 
Q 3634 634 3220 271 
Q 2806 -91 2034 -91 
Q 1263 -91 848 271 
Q 434 634 434 1313 
Q 434 1759 690 2068 
Q 947 2378 1403 2484 
z
M 1172 3481 
Q 1172 3119 1398 2916 
Q 1625 2713 2034 2713 
Q 2441 2713 2670 2916 
Q 2900 3119 2900 3481 
Q 2900 3844 2670 4047 
Q 2441 4250 2034 4250 
Q 1625 4250 1398 4047 
Q 1172 3844 1172 3481 
z
" transform="scale(0.015625)"/>
       </defs>
       <use xlink:href="#DejaVuSans-30"/>
       <use xlink:href="#DejaVuSans-2e" x="63.623047"/>
       <use xlink:href="#DejaVuSans-38" x="95.410156"/>
      </g>
     </g>
    </g>
    <g id="xtick_5">
     <g id="line2d_5">
      <g>
       <use xlink:href="#mc2ce16e8cf" x="371.053627" y="288.430125" style="stroke: #000000; stroke-width: 0.8"/>
      </g>
     </g>
     <g id="text_5">
      <!-- 1.0 -->
      <g transform="translate(363.102065 303.028562) scale(0.1 -0.1)">
       <defs>
        <path id="DejaVuSans-31" d="M 794 531 
L 1825 531 
L 1825 4091 
L 703 3866 
L 703 4441 
L 1819 4666 
L 2450 4666 
L 2450 531 
L 3481 531 
L 3481 0 
L 794 0 
L 794 531 
z
" transform="scale(0.015625)"/>
       </defs>
       <use xlink:href="#DejaVuSans-31"/>
       <use xlink:href="#DejaVuSans-2e" x="63.623047"/>
       <use xlink:href="#DejaVuSans-30" x="95.410156"/>
      </g>
     </g>
    </g>
    <g id="text_6">
     <!-- Lo -->
     <g transform="translate(217.505313 316.706687) scale(0.1 -0.1)">
      <defs>
       <path id="DejaVuSans-4c" d="M 628 4666 
L 1259 4666 
L 1259 531 
L 3531 531 
L 3531 0 
L 628 0 
L 628 4666 
z
" transform="scale(0.015625)"/>
       <path id="DejaVuSans-6f" d="M 1959 3097 
Q 1497 3097 1228 2736 
Q 959 2375 959 1747 
Q 959 1119 1226 758 
Q 1494 397 1959 397 
Q 2419 397 2687 759 
Q 2956 1122 2956 1747 
Q 2956 2369 2687 2733 
Q 2419 3097 1959 3097 
z
M 1959 3584 
Q 2709 3584 3137 3096 
Q 3566 2609 3566 1747 
Q 3566 888 3137 398 
Q 2709 -91 1959 -91 
Q 1206 -91 779 398 
Q 353 888 353 1747 
Q 353 2609 779 3096 
Q 1206 3584 1959 3584 
z
" transform="scale(0.015625)"/>
      </defs>
      <use xlink:href="#DejaVuSans-4c"/>
      <use xlink:href="#DejaVuSans-6f" x="53.962891"/>
     </g>
    </g>
   </g>
   <g id="matplotlib.axis_2">
    <g id="ytick_1">
     <g id="line2d_6">
      <defs>
       <path id="m49370dfd6b" d="M 0 0 
L -3.5 0 
" style="stroke: #000000; stroke-width: 0.8"/>
      </defs>
      <g>
       <use xlink:href="#m49370dfd6b" x="44.703125" y="285.284036" style="stroke: #000000; stroke-width: 0.8"/>
      </g>
     </g>
     <g id="text_7">
      <!-- 8.6 -->
      <g transform="translate(21.8 289.083255) scale(0.1 -0.1)">
       <use xlink:href="#DejaVuSans-38"/>
       <use xlink:href="#DejaVuSans-2e" x="63.623047"/>
       <use xlink:href="#DejaVuSans-36" x="95.410156"/>
      </g>
     </g>
    </g>
    <g id="ytick_2">
     <g id="line2d_7">
      <g>
       <use xlink:href="#m49370dfd6b" x="44.703125" y="253.770043" style="stroke: #000000; stroke-width: 0.8"/>
      </g>
     </g>
     <g id="text_8">
      <!-- 8.7 -->
      <g transform="translate(21.8 257.569262) scale(0.1 -0.1)">
       <defs>
        <path id="DejaVuSans-37" d="M 525 4666 
L 3525 4666 
L 3525 4397 
L 1831 0 
L 1172 0 
L 2766 4134 
L 525 4134 
L 525 4666 
z
" transform="scale(0.015625)"/>
       </defs>
       <use xlink:href="#DejaVuSans-38"/>
       <use xlink:href="#DejaVuSans-2e" x="63.623047"/>
       <use xlink:href="#DejaVuSans-37" x="95.410156"/>
      </g>
     </g>
    </g>
    <g id="ytick_3">
     <g id="line2d_8">
      <g>
       <use xlink:href="#m49370dfd6b" x="44.703125" y="222.256051" style="stroke: #000000; stroke-width: 0.8"/>
      </g>
     </g>
     <g id="text_9">
      <!-- 8.8 -->
      <g transform="translate(21.8 226.05527) scale(0.1 -0.1)">
       <use xlink:href="#DejaVuSans-38"/>
       <use xlink:href="#DejaVuSans-2e" x="63.623047"/>
       <use xlink:href="#DejaVuSans-38" x="95.410156"/>
      </g>
     </g>
    </g>
    <g id="ytick_4">
     <g id="line2d_9">
      <g>
       <use xlink:href="#m49370dfd6b" x="44.703125" y="190.742058" style="stroke: #000000; stroke-width: 0.8"/>
      </g>
     </g>
     <g id="text_10">
      <!-- 8.9 -->
      <g transform="translate(21.8 194.541277) scale(0.1 -0.1)">
       <defs>
        <path id="DejaVuSans-39" d="M 703 97 
L 703 672 
Q 941 559 1184 500 
Q 1428 441 1663 441 
Q 2288 441 2617 861 
Q 2947 1281 2994 2138 
Q 2813 1869 2534 1725 
Q 2256 1581 1919 1581 
Q 1219 1581 811 2004 
Q 403 2428 403 3163 
Q 403 3881 828 4315 
Q 1253 4750 1959 4750 
Q 2769 4750 3195 4129 
Q 3622 3509 3622 2328 
Q 3622 1225 3098 567 
Q 2575 -91 1691 -91 
Q 1453 -91 1209 -44 
Q 966 3 703 97 
z
M 1959 2075 
Q 2384 2075 2632 2365 
Q 2881 2656 2881 3163 
Q 2881 3666 2632 3958 
Q 2384 4250 1959 4250 
Q 1534 4250 1286 3958 
Q 1038 3666 1038 3163 
Q 1038 2656 1286 2365 
Q 1534 2075 1959 2075 
z
" transform="scale(0.015625)"/>
       </defs>
       <use xlink:href="#DejaVuSans-38"/>
       <use xlink:href="#DejaVuSans-2e" x="63.623047"/>
       <use xlink:href="#DejaVuSans-39" x="95.410156"/>
      </g>
     </g>
    </g>
    <g id="ytick_5">
     <g id="line2d_10">
      <g>
       <use xlink:href="#m49370dfd6b" x="44.703125" y="159.228066" style="stroke: #000000; stroke-width: 0.8"/>
      </g>
     </g>
     <g id="text_11">
      <!-- 9.0 -->
      <g transform="translate(21.8 163.027284) scale(0.1 -0.1)">
       <use xlink:href="#DejaVuSans-39"/>
       <use xlink:href="#DejaVuSans-2e" x="63.623047"/>
       <use xlink:href="#DejaVuSans-30" x="95.410156"/>
      </g>
     </g>
    </g>
    <g id="ytick_6">
     <g id="line2d_11">
      <g>
       <use xlink:href="#m49370dfd6b" x="44.703125" y="127.714073" style="stroke: #000000; stroke-width: 0.8"/>
      </g>
     </g>
     <g id="text_12">
      <!-- 9.1 -->
      <g transform="translate(21.8 131.513292) scale(0.1 -0.1)">
       <use xlink:href="#DejaVuSans-39"/>
       <use xlink:href="#DejaVuSans-2e" x="63.623047"/>
       <use xlink:href="#DejaVuSans-31" x="95.410156"/>
      </g>
     </g>
    </g>
    <g id="ytick_7">
     <g id="line2d_12">
      <g>
       <use xlink:href="#m49370dfd6b" x="44.703125" y="96.200081" style="stroke: #000000; stroke-width: 0.8"/>
      </g>
     </g>
     <g id="text_13">
      <!-- 9.2 -->
      <g transform="translate(21.8 99.999299) scale(0.1 -0.1)">
       <use xlink:href="#DejaVuSans-39"/>
       <use xlink:href="#DejaVuSans-2e" x="63.623047"/>
       <use xlink:href="#DejaVuSans-32" x="95.410156"/>
      </g>
     </g>
    </g>
    <g id="ytick_8">
     <g id="line2d_13">
      <g>
       <use xlink:href="#m49370dfd6b" x="44.703125" y="64.686088" style="stroke: #000000; stroke-width: 0.8"/>
      </g>
     </g>
     <g id="text_14">
      <!-- 9.3 -->
      <g transform="translate(21.8 68.485307) scale(0.1 -0.1)">
       <defs>
        <path id="DejaVuSans-33" d="M 2597 2516 
Q 3050 2419 3304 2112 
Q 3559 1806 3559 1356 
Q 3559 666 3084 287 
Q 2609 -91 1734 -91 
Q 1441 -91 1130 -33 
Q 819 25 488 141 
L 488 750 
Q 750 597 1062 519 
Q 1375 441 1716 441 
Q 2309 441 2620 675 
Q 2931 909 2931 1356 
Q 2931 1769 2642 2001 
Q 2353 2234 1838 2234 
L 1294 2234 
L 1294 2753 
L 1863 2753 
Q 2328 2753 2575 2939 
Q 2822 3125 2822 3475 
Q 2822 3834 2567 4026 
Q 2313 4219 1838 4219 
Q 1578 4219 1281 4162 
Q 984 4106 628 3988 
L 628 4550 
Q 988 4650 1302 4700 
Q 1616 4750 1894 4750 
Q 2613 4750 3031 4423 
Q 3450 4097 3450 3541 
Q 3450 3153 3228 2886 
Q 3006 2619 2597 2516 
z
" transform="scale(0.015625)"/>
       </defs>
       <use xlink:href="#DejaVuSans-39"/>
       <use xlink:href="#DejaVuSans-2e" x="63.623047"/>
       <use xlink:href="#DejaVuSans-33" x="95.410156"/>
      </g>
     </g>
    </g>
    <g id="ytick_9">
     <g id="line2d_14">
      <g>
       <use xlink:href="#m49370dfd6b" x="44.703125" y="33.172096" style="stroke: #000000; stroke-width: 0.8"/>
      </g>
     </g>
     <g id="text_15">
      <!-- 9.4 -->
      <g transform="translate(21.8 36.971314) scale(0.1 -0.1)">
       <use xlink:href="#DejaVuSans-39"/>
       <use xlink:href="#DejaVuSans-2e" x="63.623047"/>
       <use xlink:href="#DejaVuSans-34" x="95.410156"/>
      </g>
     </g>
    </g>
    <g id="text_16">
     <!-- $\Delta C_p$ -->
     <g transform="translate(14.7 164.674125) rotate(-90) scale(0.1 -0.1)">
      <defs>
       <path id="DejaVuSans-394" d="M 2188 4044 
L 906 525 
L 3472 525 
L 2188 4044 
z
M 50 0 
L 1831 4666 
L 2547 4666 
L 4325 0 
L 50 0 
z
" transform="scale(0.015625)"/>
       <path id="DejaVuSans-Oblique-43" d="M 4447 4306 
L 4319 3641 
Q 4019 3944 3683 4091 
Q 3347 4238 2956 4238 
Q 2422 4238 2017 3981 
Q 1613 3725 1319 3200 
Q 1131 2863 1032 2486 
Q 934 2109 934 1728 
Q 934 1091 1264 756 
Q 1594 422 2222 422 
Q 2656 422 3056 561 
Q 3456 700 3834 978 
L 3688 231 
Q 3316 72 2936 -9 
Q 2556 -91 2175 -91 
Q 1278 -91 773 396 
Q 269 884 269 1753 
Q 269 2309 461 2846 
Q 653 3384 1013 3828 
Q 1394 4300 1883 4525 
Q 2372 4750 3022 4750 
Q 3422 4750 3780 4639 
Q 4138 4528 4447 4306 
z
" transform="scale(0.015625)"/>
       <path id="DejaVuSans-Oblique-70" d="M 3175 2156 
Q 3175 2616 2975 2859 
Q 2775 3103 2400 3103 
Q 2144 3103 1911 2972 
Q 1678 2841 1497 2591 
Q 1319 2344 1212 1994 
Q 1106 1644 1106 1300 
Q 1106 863 1306 627 
Q 1506 391 1875 391 
Q 2147 391 2380 519 
Q 2613 647 2778 891 
Q 2956 1147 3065 1494 
Q 3175 1841 3175 2156 
z
M 1394 2969 
Q 1625 3272 1939 3428 
Q 2253 3584 2638 3584 
Q 3175 3584 3472 3232 
Q 3769 2881 3769 2247 
Q 3769 1728 3584 1258 
Q 3400 788 3053 416 
Q 2822 169 2531 39 
Q 2241 -91 1919 -91 
Q 1547 -91 1294 64 
Q 1041 219 916 525 
L 556 -1331 
L -19 -1331 
L 922 3500 
L 1497 3500 
L 1394 2969 
z
" transform="scale(0.015625)"/>
      </defs>
      <use xlink:href="#DejaVuSans-394" transform="translate(0 0.78125)"/>
      <use xlink:href="#DejaVuSans-Oblique-43" transform="translate(68.408203 0.78125)"/>
      <use xlink:href="#DejaVuSans-Oblique-70" transform="translate(138.232422 -15.625) scale(0.7)"/>
     </g>
    </g>
   </g>
   <g id="line2d_15">
    <path d="M 60.935852 45.550008 
L 73.857426 60.732785 
L 86.779 72.349251 
L 99.700574 81.028479 
L 112.622148 87.338182 
L 125.543722 91.772427 
L 138.465296 94.745695 
L 151.38687 96.592851 
L 164.308444 97.57424 
L 177.230018 97.884737 
L 190.151592 97.665457 
L 203.073166 97.016687 
L 215.99474 96.01071 
L 228.916314 94.703309 
L 241.837888 93.142998 
L 254.759461 91.377356 
L 267.681035 89.456141 
L 280.602609 87.431225 
L 293.524183 85.353682 
L 306.445757 83.26862 
L 319.367331 81.208518 
L 332.288905 79.185937 
L 345.210479 77.186467 
L 358.132053 75.162747 
L 371.053627 73.030211 
" clip-path="url(#p87931c9dc8)" style="fill: none; stroke: #bcbd22; stroke-width: 1.5; stroke-linecap: square"/>
   </g>
   <g id="line2d_16">
    <path d="M 60.935852 76.518218 
L 73.857426 80.144505 
L 86.779 82.473028 
L 99.700574 83.857634 
L 112.622148 84.272051 
L 125.543722 83.920427 
L 138.465296 83.964344 
L 151.38687 85.310976 
L 164.308444 87.067875 
L 177.230018 88.449201 
L 190.151592 89.31011 
L 203.073166 89.848513 
L 215.99474 90.198042 
L 228.916314 90.102848 
L 241.837888 88.65663 
L 254.759461 86.683275 
L 267.681035 85.749833 
L 280.602609 85.493115 
L 293.524183 85.147219 
L 306.445757 83.426435 
L 319.367331 80.45513 
L 332.288905 77.342955 
L 345.210479 73.771303 
L 358.132053 69.079099 
L 371.053627 63.724873 
" clip-path="url(#p87931c9dc8)" style="fill: none; stroke: #17becf; stroke-width: 1.5; stroke-linecap: square"/>
   </g>
   <g id="line2d_17">
    <path d="M 60.935852 276.334125 
L 65.781443 275.61964 
L 70.627033 274.80639 
L 75.472623 274.275064 
L 80.318213 273.776638 
L 85.163803 273.074444 
L 90.009394 272.35416 
L 94.854984 271.636208 
L 99.700574 270.944917 
L 104.546164 270.575132 
L 109.391755 269.968235 
L 114.237345 269.390584 
L 119.082935 268.827933 
L 123.928525 268.199229 
L 128.774116 267.780849 
L 133.619706 267.086974 
L 138.465296 266.487326 
L 143.310886 266.32692 
L 148.156476 265.820994 
L 153.002067 265.227396 
L 157.847657 264.948183 
L 162.693247 264.604491 
L 167.538837 264.175585 
L 172.384428 263.436078 
L 177.230018 263.377336 
L 182.075608 262.753737 
L 186.921198 262.439101 
L 191.766789 261.829999 
L 196.612379 261.769807 
L 201.457969 261.0049 
L 206.303559 261.024312 
L 211.149149 260.891764 
L 215.99474 260.36983 
L 220.84033 259.856278 
L 225.68592 259.945525 
L 230.53151 259.628999 
L 235.377101 259.013909 
L 240.222691 259.233687 
L 245.068281 258.954977 
L 249.913871 258.412243 
L 254.759461 258.625971 
L 259.605052 258.314046 
L 264.450642 258.121054 
L 269.296232 258.001868 
L 274.141822 257.745344 
L 278.987413 257.409342 
L 283.833003 257.406191 
L 288.678593 257.472244 
L 293.524183 257.265575 
L 298.369774 257.569244 
L 303.215364 257.092185 
L 308.060954 256.974764 
L 312.906544 256.894278 
L 317.752134 256.882869 
L 322.597725 257.099749 
L 327.443315 257.228704 
L 332.288905 256.66662 
L 337.134495 257.098803 
L 341.980086 257.025376 
L 346.825676 257.26463 
L 351.671266 257.463231 
L 356.516856 257.032246 
L 361.362447 257.468841 
L 366.208037 257.623007 
L 371.053627 257.416843 
L 375.899217 257.844235 
L 380.744807 257.855959 
L 385.590398 258.076178 
" clip-path="url(#p87931c9dc8)" style="fill: none; stroke: #1f77b4; stroke-width: 1.5; stroke-linecap: square"/>
   </g>
   <g id="line2d_18">
    <path d="M 60.935852 49.051051 
L 65.781443 55.18027 
L 70.627033 60.756608 
L 75.472623 65.676636 
L 80.318213 69.910289 
L 85.163803 73.593014 
L 90.009394 76.802273 
L 94.854984 79.433124 
L 99.700574 81.693118 
L 104.546164 83.564293 
L 109.391755 85.17573 
L 114.237345 86.48022 
L 119.082935 87.752755 
L 123.928525 88.873582 
L 128.774116 89.82959 
L 133.619706 90.802238 
L 138.465296 91.745515 
L 143.310886 92.440146 
L 148.156476 93.229698 
L 153.002067 93.899811 
L 157.847657 94.439457 
L 162.693247 94.91847 
L 167.538837 95.329412 
L 172.384428 95.738527 
L 177.230018 95.895908 
L 182.075608 96.139889 
L 186.921198 96.264432 
L 191.766789 96.32891 
L 196.612379 96.252709 
L 201.457969 96.25731 
L 206.303559 96.031859 
L 211.149149 95.81 
L 215.99474 95.620349 
L 220.84033 95.374162 
L 225.68592 94.965047 
L 230.53151 94.557886 
L 235.377101 94.234049 
L 240.222691 93.661187 
L 245.068281 93.155073 
L 249.913871 92.672845 
L 254.759461 92.009098 
L 259.605052 91.380078 
L 264.450642 90.722129 
L 269.296232 90.004052 
L 274.141822 89.296751 
L 278.987413 88.61586 
L 283.833003 87.793408 
L 288.678593 86.840173 
L 293.524183 86.06934 
L 298.369774 85.037635 
L 303.215364 84.18493 
L 308.060954 83.285142 
L 312.906544 82.238058 
L 317.752134 81.261944 
L 322.597725 80.215301 
L 327.443315 79.035102 
L 332.288905 78.071404 
L 337.134495 76.923287 
L 341.980086 75.852441 
L 346.825676 74.471813 
L 351.671266 73.193858 
L 356.516856 72.205264 
L 361.362447 70.763751 
L 366.208037 69.58103 
L 371.053627 68.34543 
L 375.899217 66.924905 
L 380.744807 65.588964 
L 385.590398 64.150917 
" clip-path="url(#p87931c9dc8)" style="fill: none; stroke: #ff7f0e; stroke-width: 1.5; stroke-linecap: square"/>
   </g>
   <g id="line2d_19">
    <path d="M 60.935852 58.61164 
L 65.781443 61.953321 
L 70.627033 65.103459 
L 75.472623 68.087267 
L 80.318213 70.937267 
L 85.163803 73.770501 
L 90.009394 76.387549 
L 94.854984 78.852573 
L 99.700574 81.149439 
L 104.546164 83.286907 
L 109.391755 85.238695 
L 114.237345 87.155439 
L 119.082935 88.778851 
L 123.928525 90.340999 
L 128.774116 91.746712 
L 133.619706 92.983826 
L 138.465296 94.052528 
L 143.310886 94.942609 
L 148.156476 95.770734 
L 153.002067 96.485471 
L 157.847657 97.005011 
L 162.693247 97.411163 
L 167.538837 97.74143 
L 172.384428 98.027136 
L 177.230018 98.096404 
L 182.075608 98.199769 
L 186.921198 98.169201 
L 191.766789 98.142351 
L 196.612379 97.937321 
L 201.457969 97.798848 
L 206.303559 97.471355 
L 211.149149 97.140899 
L 215.99474 96.849332 
L 220.84033 96.527574 
L 225.68592 96.058016 
L 230.53151 95.646569 
L 235.377101 95.320462 
L 240.222691 94.720247 
L 245.068281 94.263735 
L 249.913871 93.877688 
L 254.759461 93.284217 
L 259.605052 92.793481 
L 264.450642 92.282639 
L 269.296232 91.82827 
L 274.141822 91.268456 
L 278.987413 90.834823 
L 283.833003 90.266122 
L 288.678593 89.674667 
L 293.524183 89.174981 
L 298.369774 88.540731 
L 303.215364 88.058125 
L 308.060954 87.517661 
L 312.906544 86.952426 
L 317.752134 86.374837 
L 322.597725 85.764159 
L 327.443315 85.098331 
L 332.288905 84.652913 
L 337.134495 83.941957 
L 341.980086 83.364431 
L 346.825676 82.661417 
L 351.671266 82.008258 
L 356.516856 81.466974 
L 361.362447 80.718328 
L 366.208037 80.036554 
L 371.053627 79.438986 
L 375.899217 78.650316 
L 380.744807 77.979888 
L 385.590398 77.232502 
" clip-path="url(#p87931c9dc8)" style="fill: none; stroke: #2ca02c; stroke-width: 1.5; stroke-linecap: square"/>
   </g>
   <g id="line2d_20">
    <path d="M 60.935852 63.980175 
L 65.781443 66.677709 
L 70.627033 69.20677 
L 75.472623 71.393652 
L 80.318213 73.472063 
L 85.163803 75.475092 
L 90.009394 77.306434 
L 94.854984 79.017454 
L 99.700574 80.632168 
L 104.546164 82.172887 
L 109.391755 83.629842 
L 114.237345 85.008264 
L 119.082935 86.371875 
L 123.928525 87.680714 
L 128.774116 88.883099 
L 133.619706 90.039914 
L 138.465296 91.15677 
L 143.310886 92.084857 
L 148.156476 93.000276 
L 153.002067 93.782894 
L 157.847657 94.413804 
L 162.693247 94.973682 
L 167.538837 95.396033 
L 172.384428 95.754473 
L 177.230018 95.910656 
L 182.075608 96.031418 
L 186.921198 96.006774 
L 191.766789 95.962843 
L 196.612379 95.769158 
L 201.457969 95.592617 
L 206.303559 95.231782 
L 211.149149 94.871514 
L 215.99474 94.5282 
L 220.84033 94.138687 
L 225.68592 93.661881 
L 230.53151 93.210663 
L 235.377101 92.780938 
L 240.222691 92.198182 
L 245.068281 91.666856 
L 249.913871 91.206752 
L 254.759461 90.578804 
L 259.605052 90.039788 
L 264.450642 89.476696 
L 269.296232 88.865514 
L 274.141822 88.289501 
L 278.987413 87.737943 
L 283.833003 87.091717 
L 288.678593 86.446248 
L 293.524183 85.826935 
L 298.369774 85.121526 
L 303.215364 84.54274 
L 308.060954 83.902375 
L 312.906544 83.252368 
L 317.752134 82.58799 
L 322.597725 81.913527 
L 327.443315 81.199609 
L 332.288905 80.610739 
L 337.134495 79.871736 
L 341.980086 79.213471 
L 346.825676 78.478754 
L 351.671266 77.807821 
L 356.516856 77.197773 
L 361.362447 76.451207 
L 366.208037 75.750273 
L 371.053627 75.162348 
L 375.899217 74.408911 
L 380.744807 73.76445 
L 385.590398 73.054755 
" clip-path="url(#p87931c9dc8)" style="fill: none; stroke: #d62728; stroke-width: 1.5; stroke-linecap: square"/>
   </g>
   <g id="line2d_21">
    <path d="M 60.935852 34.414125 
L 65.781443 37.558528 
L 70.627033 40.673056 
L 75.472623 43.625791 
L 80.318213 46.455243 
L 85.163803 49.284822 
L 90.009394 52.085911 
L 94.854984 54.742604 
L 99.700574 57.212734 
L 104.546164 59.316356 
L 109.391755 61.455147 
L 114.237345 63.383048 
L 119.082935 65.219746 
L 123.928525 66.870008 
L 128.774116 68.290343 
L 133.619706 69.75461 
L 138.465296 71.046305 
L 143.310886 71.79804 
L 148.156476 72.807811 
L 153.002067 73.716107 
L 157.847657 74.282603 
L 162.693247 74.942695 
L 167.538837 75.513603 
L 172.384428 76.181069 
L 177.230018 76.318974 
L 182.075608 76.942195 
L 186.921198 77.151259 
L 191.766789 77.543482 
L 196.612379 77.529616 
L 201.457969 78.014553 
L 206.303559 77.751222 
L 211.149149 77.845764 
L 215.99474 78.001065 
L 220.84033 78.120881 
L 225.68592 77.937407 
L 230.53151 77.84463 
L 235.377101 78.009259 
L 240.222691 77.566739 
L 245.068281 77.513922 
L 249.913871 77.495896 
L 254.759461 77.08571 
L 259.605052 76.915975 
L 264.450642 76.634997 
L 269.296232 76.275989 
L 274.141822 76.086275 
L 278.987413 75.756197 
L 283.833003 75.311157 
L 288.678593 74.756195 
L 293.524183 74.357165 
L 298.369774 73.638457 
L 303.215364 73.283231 
L 308.060954 72.710748 
L 312.906544 72.070132 
L 317.752134 71.378904 
L 322.597725 70.545044 
L 327.443315 69.767278 
L 332.288905 69.151306 
L 337.134495 68.16372 
L 341.980086 67.299606 
L 346.825676 66.315235 
L 351.671266 65.263361 
L 356.516856 64.434922 
L 361.362447 63.248861 
L 366.208037 62.133833 
L 371.053627 61.067336 
L 375.899217 59.756543 
L 380.744807 58.598215 
L 385.590398 57.249983 
" clip-path="url(#p87931c9dc8)" style="fill: none; stroke: #9467bd; stroke-width: 1.5; stroke-linecap: square"/>
   </g>
   <g id="line2d_22">
    <path d="M 60.935852 47.416231 
L 65.781443 49.370477 
L 70.627033 51.481158 
L 75.472623 52.610178 
L 80.318213 53.719849 
L 85.163803 55.528752 
L 90.009394 57.413793 
L 94.854984 59.069097 
L 99.700574 60.390416 
L 104.546164 60.983194 
L 109.391755 61.837475 
L 114.237345 63.275333 
L 119.082935 63.967506 
L 123.928525 64.93612 
L 128.774116 65.905427 
L 133.619706 67.318263 
L 138.465296 67.913751 
L 143.310886 67.351037 
L 148.156476 67.958312 
L 153.002067 69.19032 
L 157.847657 68.926926 
L 162.693247 69.052289 
L 167.538837 69.587711 
L 172.384428 70.796462 
L 177.230018 69.716289 
L 182.075608 71.198518 
L 186.921198 71.169273 
L 191.766789 72.155661 
L 196.612379 70.999853 
L 201.457969 72.850229 
L 206.303559 71.35489 
L 211.149149 71.24207 
L 215.99474 71.953341 
L 220.84033 72.582675 
L 225.68592 71.392329 
L 230.53151 71.097232 
L 235.377101 72.134609 
L 240.222691 70.388104 
L 245.068281 70.437266 
L 249.913871 71.067987 
L 254.759461 69.453399 
L 259.605052 69.251835 
L 264.450642 68.817131 
L 269.296232 68.072708 
L 274.141822 68.083549 
L 278.987413 68.245972 
L 283.833003 67.077748 
L 288.678593 65.471228 
L 293.524183 65.265819 
L 298.369774 62.74199 
L 303.215364 63.251697 
L 308.060954 62.544208 
L 312.906544 61.350962 
L 317.752134 60.203601 
L 322.597725 58.277276 
L 327.443315 56.447826 
L 332.288905 57.036003 
L 337.134495 54.325548 
L 341.980086 53.251173 
L 346.825676 50.931113 
L 351.671266 48.746122 
L 356.516856 48.943525 
L 361.362447 45.947742 
L 366.208037 44.062701 
L 371.053627 43.172998 
L 375.899217 40.112989 
L 380.744807 38.767153 
L 385.590398 36.258009 
" clip-path="url(#p87931c9dc8)" style="fill: none; stroke: #8c564b; stroke-width: 1.5; stroke-linecap: square"/>
   </g>
   <g id="patch_3">
    <path d="M 44.703125 288.430125 
L 44.703125 22.318125 
" style="fill: none; stroke: #000000; stroke-width: 0.8; stroke-linejoin: miter; stroke-linecap: square"/>
   </g>
   <g id="patch_4">
    <path d="M 401.823125 288.430125 
L 401.823125 22.318125 
" style="fill: none; stroke: #000000; stroke-width: 0.8; stroke-linejoin: miter; stroke-linecap: square"/>
   </g>
   <g id="patch_5">
    <path d="M 44.703125 288.430125 
L 401.823125 288.430125 
" style="fill: none; stroke: #000000; stroke-width: 0.8; stroke-linejoin: miter; stroke-linecap: square"/>
   </g>
   <g id="patch_6">
    <path d="M 44.703125 22.318125 
L 401.823125 22.318125 
" style="fill: none; stroke: #000000; stroke-width: 0.8; stroke-linejoin: miter; stroke-linecap: square"/>
   </g>
   <g id="text_17">
    <!-- FCNN -->
    <g transform="translate(206.645 16.318125) scale(0.12 -0.12)">
     <defs>
      <path id="DejaVuSans-46" d="M 628 4666 
L 3309 4666 
L 3309 4134 
L 1259 4134 
L 1259 2759 
L 3109 2759 
L 3109 2228 
L 1259 2228 
L 1259 0 
L 628 0 
L 628 4666 
z
" transform="scale(0.015625)"/>
      <path id="DejaVuSans-43" d="M 4122 4306 
L 4122 3641 
Q 3803 3938 3442 4084 
Q 3081 4231 2675 4231 
Q 1875 4231 1450 3742 
Q 1025 3253 1025 2328 
Q 1025 1406 1450 917 
Q 1875 428 2675 428 
Q 3081 428 3442 575 
Q 3803 722 4122 1019 
L 4122 359 
Q 3791 134 3420 21 
Q 3050 -91 2638 -91 
Q 1578 -91 968 557 
Q 359 1206 359 2328 
Q 359 3453 968 4101 
Q 1578 4750 2638 4750 
Q 3056 4750 3426 4639 
Q 3797 4528 4122 4306 
z
" transform="scale(0.015625)"/>
      <path id="DejaVuSans-4e" d="M 628 4666 
L 1478 4666 
L 3547 763 
L 3547 4666 
L 4159 4666 
L 4159 0 
L 3309 0 
L 1241 3903 
L 1241 0 
L 628 0 
L 628 4666 
z
" transform="scale(0.015625)"/>
     </defs>
     <use xlink:href="#DejaVuSans-46"/>
     <use xlink:href="#DejaVuSans-43" x="57.519531"/>
     <use xlink:href="#DejaVuSans-4e" x="127.34375"/>
     <use xlink:href="#DejaVuSans-4e" x="202.148438"/>
    </g>
   </g>
  </g>
 </g>
 <defs>
  <clipPath id="p87931c9dc8">
   <rect x="44.703125" y="22.318125" width="357.12" height="266.112"/>
  </clipPath>
 </defs>
</svg>
