<?xml version="1.0" encoding="utf-8" standalone="no"?>
<!DOCTYPE svg PUBLIC "-//W3C//DTD SVG 1.1//EN"
  "http://www.w3.org/Graphics/SVG/1.1/DTD/svg11.dtd">
<svg xmlns:xlink="http://www.w3.org/1999/xlink" width="415.385625pt" height="325.986375pt" viewBox="0 0 415.385625 325.986375" xmlns="http://www.w3.org/2000/svg" version="1.1">
 <metadata>
  <rdf:RDF xmlns:dc="http://purl.org/dc/elements/1.1/" xmlns:cc="http://creativecommons.org/ns#" xmlns:rdf="http://www.w3.org/1999/02/22-rdf-syntax-ns#">
   <cc:Work>
    <dc:type rdf:resource="http://purl.org/dc/dcmitype/StillImage"/>
    <dc:date>2024-09-25T14:11:56.453421</dc:date>
    <dc:format>image/svg+xml</dc:format>
    <dc:creator>
     <cc:Agent>
      <dc:title>Matplotlib v3.8.2, https://matplotlib.org/</dc:title>
     </cc:Agent>
    </dc:creator>
   </cc:Work>
  </rdf:RDF>
 </metadata>
 <defs>
  <style type="text/css">*{stroke-linejoin: round; stroke-linecap: butt}</style>
 </defs>
 <g id="figure_1">
  <g id="patch_1">
   <path d="M 0 325.986375 
L 415.385625 325.986375 
L 415.385625 0 
L 0 0 
z
" style="fill: #ffffff"/>
  </g>
  <g id="axes_1">
   <g id="patch_2">
    <path d="M 51.065625 288.430125 
L 408.185625 288.430125 
L 408.185625 22.318125 
L 51.065625 22.318125 
z
" style="fill: #ffffff"/>
   </g>
   <g id="matplotlib.axis_1">
    <g id="xtick_1">
     <g id="line2d_1">
      <defs>
       <path id="m07183bb34b" d="M 0 0 
L 0 3.5 
" style="stroke: #000000; stroke-width: 0.8"/>
      </defs>
      <g>
       <use xlink:href="#m07183bb34b" x="67.298352" y="288.430125" style="stroke: #000000; stroke-width: 0.8"/>
      </g>
     </g>
     <g id="text_1">
      <!-- 0.2 -->
      <g transform="translate(59.34679 303.028562) scale(0.1 -0.1)">
       <defs>
        <path id="DejaVuSans-30" d="M 2034 4250 
Q 1547 4250 1301 3770 
Q 1056 3291 1056 2328 
Q 1056 1369 1301 889 
Q 1547 409 2034 409 
Q 2525 409 2770 889 
Q 3016 1369 3016 2328 
Q 3016 3291 2770 3770 
Q 2525 4250 2034 4250 
z
M 2034 4750 
Q 2819 4750 3233 4129 
Q 3647 3509 3647 2328 
Q 3647 1150 3233 529 
Q 2819 -91 2034 -91 
Q 1250 -91 836 529 
Q 422 1150 422 2328 
Q 422 3509 836 4129 
Q 1250 4750 2034 4750 
z
" transform="scale(0.015625)"/>
        <path id="DejaVuSans-2e" d="M 684 794 
L 1344 794 
L 1344 0 
L 684 0 
L 684 794 
z
" transform="scale(0.015625)"/>
        <path id="DejaVuSans-32" d="M 1228 531 
L 3431 531 
L 3431 0 
L 469 0 
L 469 531 
Q 828 903 1448 1529 
Q 2069 2156 2228 2338 
Q 2531 2678 2651 2914 
Q 2772 3150 2772 3378 
Q 2772 3750 2511 3984 
Q 2250 4219 1831 4219 
Q 1534 4219 1204 4116 
Q 875 4013 500 3803 
L 500 4441 
Q 881 4594 1212 4672 
Q 1544 4750 1819 4750 
Q 2544 4750 2975 4387 
Q 3406 4025 3406 3419 
Q 3406 3131 3298 2873 
Q 3191 2616 2906 2266 
Q 2828 2175 2409 1742 
Q 1991 1309 1228 531 
z
" transform="scale(0.015625)"/>
       </defs>
       <use xlink:href="#DejaVuSans-30"/>
       <use xlink:href="#DejaVuSans-2e" x="63.623047"/>
       <use xlink:href="#DejaVuSans-32" x="95.410156"/>
      </g>
     </g>
    </g>
    <g id="xtick_2">
     <g id="line2d_2">
      <g>
       <use xlink:href="#m07183bb34b" x="144.827796" y="288.430125" style="stroke: #000000; stroke-width: 0.8"/>
      </g>
     </g>
     <g id="text_2">
      <!-- 0.4 -->
      <g transform="translate(136.876233 303.028562) scale(0.1 -0.1)">
       <defs>
        <path id="DejaVuSans-34" d="M 2419 4116 
L 825 1625 
L 2419 1625 
L 2419 4116 
z
M 2253 4666 
L 3047 4666 
L 3047 1625 
L 3713 1625 
L 3713 1100 
L 3047 1100 
L 3047 0 
L 2419 0 
L 2419 1100 
L 313 1100 
L 313 1709 
L 2253 4666 
z
" transform="scale(0.015625)"/>
       </defs>
       <use xlink:href="#DejaVuSans-30"/>
       <use xlink:href="#DejaVuSans-2e" x="63.623047"/>
       <use xlink:href="#DejaVuSans-34" x="95.410156"/>
      </g>
     </g>
    </g>
    <g id="xtick_3">
     <g id="line2d_3">
      <g>
       <use xlink:href="#m07183bb34b" x="222.35724" y="288.430125" style="stroke: #000000; stroke-width: 0.8"/>
      </g>
     </g>
     <g id="text_3">
      <!-- 0.6 -->
      <g transform="translate(214.405677 303.028562) scale(0.1 -0.1)">
       <defs>
        <path id="DejaVuSans-36" d="M 2113 2584 
Q 1688 2584 1439 2293 
Q 1191 2003 1191 1497 
Q 1191 994 1439 701 
Q 1688 409 2113 409 
Q 2538 409 2786 701 
Q 3034 994 3034 1497 
Q 3034 2003 2786 2293 
Q 2538 2584 2113 2584 
z
M 3366 4563 
L 3366 3988 
Q 3128 4100 2886 4159 
Q 2644 4219 2406 4219 
Q 1781 4219 1451 3797 
Q 1122 3375 1075 2522 
Q 1259 2794 1537 2939 
Q 1816 3084 2150 3084 
Q 2853 3084 3261 2657 
Q 3669 2231 3669 1497 
Q 3669 778 3244 343 
Q 2819 -91 2113 -91 
Q 1303 -91 875 529 
Q 447 1150 447 2328 
Q 447 3434 972 4092 
Q 1497 4750 2381 4750 
Q 2619 4750 2861 4703 
Q 3103 4656 3366 4563 
z
" transform="scale(0.015625)"/>
       </defs>
       <use xlink:href="#DejaVuSans-30"/>
       <use xlink:href="#DejaVuSans-2e" x="63.623047"/>
       <use xlink:href="#DejaVuSans-36" x="95.410156"/>
      </g>
     </g>
    </g>
    <g id="xtick_4">
     <g id="line2d_4">
      <g>
       <use xlink:href="#m07183bb34b" x="299.886683" y="288.430125" style="stroke: #000000; stroke-width: 0.8"/>
      </g>
     </g>
     <g id="text_4">
      <!-- 0.8 -->
      <g transform="translate(291.935121 303.028562) scale(0.1 -0.1)">
       <defs>
        <path id="DejaVuSans-38" d="M 2034 2216 
Q 1584 2216 1326 1975 
Q 1069 1734 1069 1313 
Q 1069 891 1326 650 
Q 1584 409 2034 409 
Q 2484 409 2743 651 
Q 3003 894 3003 1313 
Q 3003 1734 2745 1975 
Q 2488 2216 2034 2216 
z
M 1403 2484 
Q 997 2584 770 2862 
Q 544 3141 544 3541 
Q 544 4100 942 4425 
Q 1341 4750 2034 4750 
Q 2731 4750 3128 4425 
Q 3525 4100 3525 3541 
Q 3525 3141 3298 2862 
Q 3072 2584 2669 2484 
Q 3125 2378 3379 2068 
Q 3634 1759 3634 1313 
Q 3634 634 3220 271 
Q 2806 -91 2034 -91 
Q 1263 -91 848 271 
Q 434 634 434 1313 
Q 434 1759 690 2068 
Q 947 2378 1403 2484 
z
M 1172 3481 
Q 1172 3119 1398 2916 
Q 1625 2713 2034 2713 
Q 2441 2713 2670 2916 
Q 2900 3119 2900 3481 
Q 2900 3844 2670 4047 
Q 2441 4250 2034 4250 
Q 1625 4250 1398 4047 
Q 1172 3844 1172 3481 
z
" transform="scale(0.015625)"/>
       </defs>
       <use xlink:href="#DejaVuSans-30"/>
       <use xlink:href="#DejaVuSans-2e" x="63.623047"/>
       <use xlink:href="#DejaVuSans-38" x="95.410156"/>
      </g>
     </g>
    </g>
    <g id="xtick_5">
     <g id="line2d_5">
      <g>
       <use xlink:href="#m07183bb34b" x="377.416127" y="288.430125" style="stroke: #000000; stroke-width: 0.8"/>
      </g>
     </g>
     <g id="text_5">
      <!-- 1.0 -->
      <g transform="translate(369.464565 303.028562) scale(0.1 -0.1)">
       <defs>
        <path id="DejaVuSans-31" d="M 794 531 
L 1825 531 
L 1825 4091 
L 703 3866 
L 703 4441 
L 1819 4666 
L 2450 4666 
L 2450 531 
L 3481 531 
L 3481 0 
L 794 0 
L 794 531 
z
" transform="scale(0.015625)"/>
       </defs>
       <use xlink:href="#DejaVuSans-31"/>
       <use xlink:href="#DejaVuSans-2e" x="63.623047"/>
       <use xlink:href="#DejaVuSans-30" x="95.410156"/>
      </g>
     </g>
    </g>
    <g id="text_6">
     <!-- Lo -->
     <g transform="translate(223.867813 316.706687) scale(0.1 -0.1)">
      <defs>
       <path id="DejaVuSans-4c" d="M 628 4666 
L 1259 4666 
L 1259 531 
L 3531 531 
L 3531 0 
L 628 0 
L 628 4666 
z
" transform="scale(0.015625)"/>
       <path id="DejaVuSans-6f" d="M 1959 3097 
Q 1497 3097 1228 2736 
Q 959 2375 959 1747 
Q 959 1119 1226 758 
Q 1494 397 1959 397 
Q 2419 397 2687 759 
Q 2956 1122 2956 1747 
Q 2956 2369 2687 2733 
Q 2419 3097 1959 3097 
z
M 1959 3584 
Q 2709 3584 3137 3096 
Q 3566 2609 3566 1747 
Q 3566 888 3137 398 
Q 2709 -91 1959 -91 
Q 1206 -91 779 398 
Q 353 888 353 1747 
Q 353 2609 779 3096 
Q 1206 3584 1959 3584 
z
" transform="scale(0.015625)"/>
      </defs>
      <use xlink:href="#DejaVuSans-4c"/>
      <use xlink:href="#DejaVuSans-6f" x="53.962891"/>
     </g>
    </g>
   </g>
   <g id="matplotlib.axis_2">
    <g id="ytick_1">
     <g id="line2d_6">
      <defs>
       <path id="m58a4156fbc" d="M 0 0 
L -3.5 0 
" style="stroke: #000000; stroke-width: 0.8"/>
      </defs>
      <g>
       <use xlink:href="#m58a4156fbc" x="51.065625" y="288.430125" style="stroke: #000000; stroke-width: 0.8"/>
      </g>
     </g>
     <g id="text_7">
      <!-- 9.15 -->
      <g transform="translate(21.8 292.229344) scale(0.1 -0.1)">
       <defs>
        <path id="DejaVuSans-39" d="M 703 97 
L 703 672 
Q 941 559 1184 500 
Q 1428 441 1663 441 
Q 2288 441 2617 861 
Q 2947 1281 2994 2138 
Q 2813 1869 2534 1725 
Q 2256 1581 1919 1581 
Q 1219 1581 811 2004 
Q 403 2428 403 3163 
Q 403 3881 828 4315 
Q 1253 4750 1959 4750 
Q 2769 4750 3195 4129 
Q 3622 3509 3622 2328 
Q 3622 1225 3098 567 
Q 2575 -91 1691 -91 
Q 1453 -91 1209 -44 
Q 966 3 703 97 
z
M 1959 2075 
Q 2384 2075 2632 2365 
Q 2881 2656 2881 3163 
Q 2881 3666 2632 3958 
Q 2384 4250 1959 4250 
Q 1534 4250 1286 3958 
Q 1038 3666 1038 3163 
Q 1038 2656 1286 2365 
Q 1534 2075 1959 2075 
z
" transform="scale(0.015625)"/>
        <path id="DejaVuSans-35" d="M 691 4666 
L 3169 4666 
L 3169 4134 
L 1269 4134 
L 1269 2991 
Q 1406 3038 1543 3061 
Q 1681 3084 1819 3084 
Q 2600 3084 3056 2656 
Q 3513 2228 3513 1497 
Q 3513 744 3044 326 
Q 2575 -91 1722 -91 
Q 1428 -91 1123 -41 
Q 819 9 494 109 
L 494 744 
Q 775 591 1075 516 
Q 1375 441 1709 441 
Q 2250 441 2565 725 
Q 2881 1009 2881 1497 
Q 2881 1984 2565 2268 
Q 2250 2553 1709 2553 
Q 1456 2553 1204 2497 
Q 953 2441 691 2322 
L 691 4666 
z
" transform="scale(0.015625)"/>
       </defs>
       <use xlink:href="#DejaVuSans-39"/>
       <use xlink:href="#DejaVuSans-2e" x="63.623047"/>
       <use xlink:href="#DejaVuSans-31" x="95.410156"/>
       <use xlink:href="#DejaVuSans-35" x="159.033203"/>
      </g>
     </g>
    </g>
    <g id="ytick_2">
     <g id="line2d_7">
      <g>
       <use xlink:href="#m58a4156fbc" x="51.065625" y="235.207725" style="stroke: #000000; stroke-width: 0.8"/>
      </g>
     </g>
     <g id="text_8">
      <!-- 9.20 -->
      <g transform="translate(21.8 239.006944) scale(0.1 -0.1)">
       <use xlink:href="#DejaVuSans-39"/>
       <use xlink:href="#DejaVuSans-2e" x="63.623047"/>
       <use xlink:href="#DejaVuSans-32" x="95.410156"/>
       <use xlink:href="#DejaVuSans-30" x="159.033203"/>
      </g>
     </g>
    </g>
    <g id="ytick_3">
     <g id="line2d_8">
      <g>
       <use xlink:href="#m58a4156fbc" x="51.065625" y="181.985325" style="stroke: #000000; stroke-width: 0.8"/>
      </g>
     </g>
     <g id="text_9">
      <!-- 9.25 -->
      <g transform="translate(21.8 185.784544) scale(0.1 -0.1)">
       <use xlink:href="#DejaVuSans-39"/>
       <use xlink:href="#DejaVuSans-2e" x="63.623047"/>
       <use xlink:href="#DejaVuSans-32" x="95.410156"/>
       <use xlink:href="#DejaVuSans-35" x="159.033203"/>
      </g>
     </g>
    </g>
    <g id="ytick_4">
     <g id="line2d_9">
      <g>
       <use xlink:href="#m58a4156fbc" x="51.065625" y="128.762925" style="stroke: #000000; stroke-width: 0.8"/>
      </g>
     </g>
     <g id="text_10">
      <!-- 9.30 -->
      <g transform="translate(21.8 132.562144) scale(0.1 -0.1)">
       <defs>
        <path id="DejaVuSans-33" d="M 2597 2516 
Q 3050 2419 3304 2112 
Q 3559 1806 3559 1356 
Q 3559 666 3084 287 
Q 2609 -91 1734 -91 
Q 1441 -91 1130 -33 
Q 819 25 488 141 
L 488 750 
Q 750 597 1062 519 
Q 1375 441 1716 441 
Q 2309 441 2620 675 
Q 2931 909 2931 1356 
Q 2931 1769 2642 2001 
Q 2353 2234 1838 2234 
L 1294 2234 
L 1294 2753 
L 1863 2753 
Q 2328 2753 2575 2939 
Q 2822 3125 2822 3475 
Q 2822 3834 2567 4026 
Q 2313 4219 1838 4219 
Q 1578 4219 1281 4162 
Q 984 4106 628 3988 
L 628 4550 
Q 988 4650 1302 4700 
Q 1616 4750 1894 4750 
Q 2613 4750 3031 4423 
Q 3450 4097 3450 3541 
Q 3450 3153 3228 2886 
Q 3006 2619 2597 2516 
z
" transform="scale(0.015625)"/>
       </defs>
       <use xlink:href="#DejaVuSans-39"/>
       <use xlink:href="#DejaVuSans-2e" x="63.623047"/>
       <use xlink:href="#DejaVuSans-33" x="95.410156"/>
       <use xlink:href="#DejaVuSans-30" x="159.033203"/>
      </g>
     </g>
    </g>
    <g id="ytick_5">
     <g id="line2d_10">
      <g>
       <use xlink:href="#m58a4156fbc" x="51.065625" y="75.540525" style="stroke: #000000; stroke-width: 0.8"/>
      </g>
     </g>
     <g id="text_11">
      <!-- 9.35 -->
      <g transform="translate(21.8 79.339744) scale(0.1 -0.1)">
       <use xlink:href="#DejaVuSans-39"/>
       <use xlink:href="#DejaVuSans-2e" x="63.623047"/>
       <use xlink:href="#DejaVuSans-33" x="95.410156"/>
       <use xlink:href="#DejaVuSans-35" x="159.033203"/>
      </g>
     </g>
    </g>
    <g id="ytick_6">
     <g id="line2d_11">
      <g>
       <use xlink:href="#m58a4156fbc" x="51.065625" y="22.318125" style="stroke: #000000; stroke-width: 0.8"/>
      </g>
     </g>
     <g id="text_12">
      <!-- 9.40 -->
      <g transform="translate(21.8 26.117344) scale(0.1 -0.1)">
       <use xlink:href="#DejaVuSans-39"/>
       <use xlink:href="#DejaVuSans-2e" x="63.623047"/>
       <use xlink:href="#DejaVuSans-34" x="95.410156"/>
       <use xlink:href="#DejaVuSans-30" x="159.033203"/>
      </g>
     </g>
    </g>
    <g id="text_13">
     <!-- $\Delta C_p$ -->
     <g transform="translate(14.7 164.674125) rotate(-90) scale(0.1 -0.1)">
      <defs>
       <path id="DejaVuSans-394" d="M 2188 4044 
L 906 525 
L 3472 525 
L 2188 4044 
z
M 50 0 
L 1831 4666 
L 2547 4666 
L 4325 0 
L 50 0 
z
" transform="scale(0.015625)"/>
       <path id="DejaVuSans-Oblique-43" d="M 4447 4306 
L 4319 3641 
Q 4019 3944 3683 4091 
Q 3347 4238 2956 4238 
Q 2422 4238 2017 3981 
Q 1613 3725 1319 3200 
Q 1131 2863 1032 2486 
Q 934 2109 934 1728 
Q 934 1091 1264 756 
Q 1594 422 2222 422 
Q 2656 422 3056 561 
Q 3456 700 3834 978 
L 3688 231 
Q 3316 72 2936 -9 
Q 2556 -91 2175 -91 
Q 1278 -91 773 396 
Q 269 884 269 1753 
Q 269 2309 461 2846 
Q 653 3384 1013 3828 
Q 1394 4300 1883 4525 
Q 2372 4750 3022 4750 
Q 3422 4750 3780 4639 
Q 4138 4528 4447 4306 
z
" transform="scale(0.015625)"/>
       <path id="DejaVuSans-Oblique-70" d="M 3175 2156 
Q 3175 2616 2975 2859 
Q 2775 3103 2400 3103 
Q 2144 3103 1911 2972 
Q 1678 2841 1497 2591 
Q 1319 2344 1212 1994 
Q 1106 1644 1106 1300 
Q 1106 863 1306 627 
Q 1506 391 1875 391 
Q 2147 391 2380 519 
Q 2613 647 2778 891 
Q 2956 1147 3065 1494 
Q 3175 1841 3175 2156 
z
M 1394 2969 
Q 1625 3272 1939 3428 
Q 2253 3584 2638 3584 
Q 3175 3584 3472 3232 
Q 3769 2881 3769 2247 
Q 3769 1728 3584 1258 
Q 3400 788 3053 416 
Q 2822 169 2531 39 
Q 2241 -91 1919 -91 
Q 1547 -91 1294 64 
Q 1041 219 916 525 
L 556 -1331 
L -19 -1331 
L 922 3500 
L 1497 3500 
L 1394 2969 
z
" transform="scale(0.015625)"/>
      </defs>
      <use xlink:href="#DejaVuSans-394" transform="translate(0 0.78125)"/>
      <use xlink:href="#DejaVuSans-Oblique-43" transform="translate(68.408203 0.78125)"/>
      <use xlink:href="#DejaVuSans-Oblique-70" transform="translate(138.232422 -15.625) scale(0.7)"/>
     </g>
    </g>
   </g>
   <g id="line2d_12">
    <path d="M 67.298352 64.126993 
L 80.219926 115.409853 
L 93.1415 154.646786 
L 106.063074 183.962612 
L 118.984648 205.274892 
L 131.906222 220.252441 
L 144.827796 230.295246 
L 157.74937 236.534387 
L 170.670944 239.849223 
L 183.592518 240.89799 
L 196.514092 240.157325 
L 209.435666 237.965975 
L 222.35724 234.568089 
L 235.278814 230.152079 
L 248.200388 224.881817 
L 261.121961 218.918009 
L 274.043535 212.428723 
L 286.965109 205.589164 
L 299.886683 198.571848 
L 312.808257 191.529135 
L 325.729831 184.570732 
L 338.651405 177.739058 
L 351.572979 170.98545 
L 364.494553 164.149931 
L 377.416127 156.946866 
" clip-path="url(#p4b87da4a53)" style="fill: none; stroke: #bcbd22; stroke-width: 1.5; stroke-linecap: square"/>
   </g>
   <g id="line2d_13">
    <path d="M 67.298352 168.728307 
L 80.219926 180.976815 
L 93.1415 188.841864 
L 106.063074 193.51865 
L 118.984648 194.918425 
L 131.906222 193.730745 
L 144.827796 193.879082 
L 157.74937 198.427599 
L 170.670944 204.361879 
L 183.592518 209.027582 
L 196.514092 211.935473 
L 209.435666 213.754039 
L 222.35724 214.934642 
L 235.278814 214.613104 
L 248.200388 209.728215 
L 261.121961 203.062815 
L 274.043535 199.909928 
L 286.965109 199.042812 
L 299.886683 197.87448 
L 312.808257 192.062186 
L 325.729831 182.02601 
L 338.651405 171.514019 
L 351.572979 159.450051 
L 364.494553 143.601197 
L 377.416127 125.51623 
" clip-path="url(#p4b87da4a53)" style="fill: none; stroke: #17becf; stroke-width: 1.5; stroke-linecap: square"/>
   </g>
   <g id="line2d_14">
    <path clip-path="url(#p4b87da4a53)" style="fill: none; stroke: #1f77b4; stroke-width: 1.5; stroke-linecap: square"/>
   </g>
   <g id="line2d_15">
    <path d="M 67.298352 75.952466 
L 72.143943 96.655128 
L 76.989533 115.490323 
L 81.835123 132.108698 
L 86.680713 146.408705 
L 91.526303 158.847845 
L 96.371894 169.687757 
L 101.217484 178.573982 
L 106.063074 186.207564 
L 110.908664 192.527831 
L 115.754255 197.970779 
L 120.599845 202.376955 
L 125.445435 206.675196 
L 130.291025 210.461012 
L 135.136616 213.690122 
L 139.982206 216.975434 
L 144.827796 220.16154 
L 149.673386 222.507796 
L 154.518976 225.174664 
L 159.364567 227.438106 
L 164.210157 229.260867 
L 169.055747 230.878828 
L 173.901337 232.266868 
L 178.746928 233.648734 
L 183.592518 234.18032 
L 188.438108 235.004415 
L 193.283698 235.425085 
L 198.129289 235.642871 
L 202.974879 235.385488 
L 207.820469 235.401029 
L 212.666059 234.639523 
L 217.511649 233.890151 
L 222.35724 233.249566 
L 227.20283 232.41802 
L 232.04842 231.036153 
L 236.89401 229.660886 
L 241.739601 228.56706 
L 246.585191 226.632106 
L 251.430781 224.922603 
L 256.276371 223.293784 
L 261.121961 221.051844 
L 265.967552 218.927206 
L 270.813142 216.704851 
L 275.658732 214.2794 
L 280.504322 211.890353 
L 285.349913 209.590507 
L 290.195503 206.81251 
L 295.041093 203.592768 
L 299.886683 200.989128 
L 304.732274 197.504338 
L 309.577864 194.624155 
L 314.423454 191.584943 
L 319.269044 188.048208 
L 324.114634 184.751187 
L 328.960225 181.215942 
L 333.805815 177.229584 
L 338.651405 173.974502 
L 343.496995 170.096505 
L 348.342586 166.479511 
L 353.188176 161.816164 
L 358.033766 157.499615 
L 362.879356 154.160441 
L 367.724947 149.291443 
L 372.570537 145.29657 
L 377.416127 141.123082 
L 382.261717 136.324976 
L 387.107307 131.812569 
L 391.952898 126.955279 
" clip-path="url(#p4b87da4a53)" style="fill: none; stroke: #ff7f0e; stroke-width: 1.5; stroke-linecap: square"/>
   </g>
   <g id="line2d_16">
    <path d="M 67.298352 108.245264 
L 72.143943 119.532458 
L 76.989533 130.17268 
L 81.835123 140.251086 
L 86.680713 149.877528 
L 91.526303 159.447342 
L 96.371894 168.286944 
L 101.217484 176.613056 
L 106.063074 184.371179 
L 110.908664 191.590904 
L 115.754255 198.183456 
L 120.599845 204.657642 
L 125.445435 210.141039 
L 130.291025 215.417508 
L 135.136616 220.165585 
L 139.982206 224.344182 
L 144.827796 227.953938 
L 149.673386 230.960365 
L 154.518976 233.757521 
L 159.364567 236.171689 
L 164.210157 237.926538 
L 169.055747 239.298399 
L 173.901337 240.41394 
L 178.746928 241.378969 
L 183.592518 241.612934 
L 188.438108 241.962073 
L 193.283698 241.858822 
L 198.129289 241.768131 
L 202.974879 241.075601 
L 207.820469 240.607883 
L 212.666059 239.501708 
L 217.511649 238.385528 
L 222.35724 237.400701 
L 227.20283 236.313899 
L 232.04842 234.727872 
L 236.89401 233.338129 
L 241.739601 232.236638 
L 246.585191 230.20929 
L 251.430781 228.667331 
L 256.276371 227.363382 
L 261.121961 225.358813 
L 265.967552 223.701255 
L 270.813142 221.975785 
L 275.658732 220.441064 
L 280.504322 218.550178 
L 285.349913 217.085498 
L 290.195503 215.164595 
L 295.041093 213.166839 
L 299.886683 211.47905 
L 304.732274 209.336742 
L 309.577864 207.706646 
L 314.423454 205.881118 
L 319.269044 203.971924 
L 324.114634 202.021004 
L 328.960225 199.958317 
L 333.805815 197.709351 
L 338.651405 196.20486 
L 343.496995 193.803465 
L 348.342586 191.852758 
L 353.188176 189.478187 
L 358.033766 187.272012 
L 362.879356 185.443717 
L 367.724947 182.915014 
L 372.570537 180.612187 
L 377.416127 178.593781 
L 382.261717 175.929893 
L 387.107307 173.665387 
L 391.952898 171.140942 
" clip-path="url(#p4b87da4a53)" style="fill: none; stroke: #2ca02c; stroke-width: 1.5; stroke-linecap: square"/>
   </g>
   <g id="line2d_17">
    <path d="M 67.298352 126.378561 
L 72.143943 135.490023 
L 76.989533 144.032432 
L 81.835123 151.419062 
L 86.680713 158.439309 
L 91.526303 165.204941 
L 96.371894 171.390661 
L 101.217484 177.169975 
L 106.063074 182.623994 
L 110.908664 187.82808 
L 115.754255 192.749236 
L 120.599845 197.405132 
L 125.445435 202.010998 
L 130.291025 206.431864 
L 135.136616 210.493158 
L 139.982206 214.400534 
L 144.827796 218.172938 
L 149.673386 221.307737 
L 154.518976 224.399746 
L 159.364567 227.043196 
L 164.210157 229.174221 
L 169.055747 231.065319 
L 173.901337 232.491892 
L 178.746928 233.702596 
L 183.592518 234.230136 
L 188.438108 234.638032 
L 193.283698 234.554793 
L 198.129289 234.406409 
L 202.974879 233.752199 
L 207.820469 233.155895 
L 212.666059 231.937102 
L 217.511649 230.720225 
L 222.35724 229.560615 
L 227.20283 228.244958 
L 232.04842 226.634448 
L 236.89401 225.110371 
L 241.739601 223.65889 
L 246.585191 221.690513 
L 251.430781 219.895853 
L 256.276371 218.341759 
L 261.121961 216.22074 
L 265.967552 214.400108 
L 270.813142 212.498153 
L 275.658732 210.433762 
L 280.504322 208.488164 
L 285.349913 206.625167 
L 290.195503 204.44241 
L 295.041093 202.262208 
L 299.886683 200.170355 
L 304.732274 197.787694 
L 309.577864 195.832729 
L 314.423454 193.669771 
L 319.269044 191.47424 
L 324.114634 189.230171 
L 328.960225 186.952039 
L 333.805815 184.540639 
L 338.651405 182.551611 
L 343.496995 180.055481 
L 348.342586 177.832062 
L 353.188176 175.350408 
L 358.033766 173.084198 
L 362.879356 171.023639 
L 367.724947 168.501962 
L 372.570537 166.134417 
L 377.416127 164.148583 
L 382.261717 161.6037 
L 387.107307 159.426904 
L 391.952898 157.029767 
" clip-path="url(#p4b87da4a53)" style="fill: none; stroke: #d62728; stroke-width: 1.5; stroke-linecap: square"/>
   </g>
   <g id="line2d_18">
    <path d="M 67.298352 26.513327 
L 72.143943 37.134177 
L 76.989533 47.654116 
L 81.835123 57.627568 
L 86.680713 67.184608 
L 91.526303 76.742074 
L 96.371894 86.203314 
L 101.217484 95.176823 
L 106.063074 103.520179 
L 110.908664 110.625583 
L 115.754255 117.849778 
L 120.599845 124.361645 
L 125.445435 130.565461 
L 130.291025 136.13955 
L 135.136616 140.937017 
L 139.982206 145.882868 
L 144.827796 150.245827 
L 149.673386 152.784962 
L 154.518976 156.195666 
L 159.364567 159.263618 
L 164.210157 161.17707 
L 169.055747 163.406662 
L 173.901337 165.335016 
L 178.746928 167.589517 
L 183.592518 168.05532 
L 188.438108 170.160372 
L 193.283698 170.866527 
L 198.129289 172.191339 
L 202.974879 172.144503 
L 207.820469 173.782476 
L 212.666059 172.893023 
L 217.511649 173.212357 
L 222.35724 173.736917 
L 227.20283 174.141621 
L 232.04842 173.521899 
L 236.89401 173.208525 
L 241.739601 173.764593 
L 246.585191 172.269895 
L 251.430781 172.091494 
L 256.276371 172.030607 
L 261.121961 170.645122 
L 265.967552 170.07181 
L 270.813142 169.122748 
L 275.658732 167.910129 
L 280.504322 167.269331 
L 285.349913 166.154429 
L 290.195503 164.651215 
L 295.041093 162.776722 
L 299.886683 161.428918 
L 304.732274 159.001338 
L 309.577864 157.801492 
L 314.423454 155.867816 
L 319.269044 153.704006 
L 324.114634 151.369246 
L 328.960225 148.552716 
L 333.805815 145.925659 
L 338.651405 143.845089 
L 343.496995 140.509322 
L 348.342586 137.590605 
L 353.188176 134.265695 
L 358.033766 130.712781 
L 362.879356 127.91456 
L 367.724947 123.908403 
L 372.570537 120.142174 
L 377.416127 116.539869 
L 382.261717 112.112404 
L 387.107307 108.199919 
L 391.952898 103.645997 
" clip-path="url(#p4b87da4a53)" style="fill: none; stroke: #9467bd; stroke-width: 1.5; stroke-linecap: square"/>
   </g>
   <g id="line2d_19">
    <path d="M 67.298352 70.430536 
L 72.143943 77.031391 
L 76.989533 84.160638 
L 81.835123 87.974129 
L 86.680713 91.722263 
L 91.526303 97.832195 
L 96.371894 104.199297 
L 101.217484 109.790417 
L 106.063074 114.253434 
L 110.908664 116.255661 
L 115.754255 119.141167 
L 120.599845 123.997817 
L 125.445435 126.335771 
L 130.291025 129.607458 
L 135.136616 132.881487 
L 139.982206 137.65362 
L 144.827796 139.665001 
L 149.673386 137.764323 
L 154.518976 139.815514 
L 159.364567 143.976867 
L 164.210157 143.087202 
L 169.055747 143.510639 
L 173.901337 145.319136 
L 178.746928 149.401933 
L 183.592518 145.753431 
L 188.438108 150.759956 
L 193.283698 150.661175 
L 198.129289 153.992897 
L 202.974879 150.088928 
L 207.820469 156.338941 
L 212.666059 151.288135 
L 217.511649 150.907063 
L 222.35724 153.309522 
L 227.20283 155.435224 
L 232.04842 151.414591 
L 236.89401 150.417842 
L 241.739601 153.921792 
L 246.585191 148.022621 
L 251.430781 148.188675 
L 256.276371 150.319061 
L 261.121961 144.865469 
L 265.967552 144.184648 
L 270.813142 142.716348 
L 275.658732 140.201909 
L 280.504322 140.238526 
L 285.349913 140.787142 
L 290.195503 136.841234 
L 295.041093 131.414891 
L 299.886683 130.721084 
L 304.732274 122.196345 
L 309.577864 123.917983 
L 314.423454 121.528298 
L 319.269044 117.497872 
L 324.114634 113.62243 
L 328.960225 107.115885 
L 333.805815 100.936551 
L 338.651405 102.923237 
L 343.496995 93.768133 
L 348.342586 90.139216 
L 353.188176 82.30275 
L 358.033766 74.922506 
L 362.879356 75.589277 
L 367.724947 65.470421 
L 372.570537 59.103319 
L 377.416127 56.098169 
L 382.261717 45.762379 
L 387.107307 41.216548 
L 391.952898 32.741413 
" clip-path="url(#p4b87da4a53)" style="fill: none; stroke: #8c564b; stroke-width: 1.5; stroke-linecap: square"/>
   </g>
   <g id="patch_3">
    <path d="M 51.065625 288.430125 
L 51.065625 22.318125 
" style="fill: none; stroke: #000000; stroke-width: 0.8; stroke-linejoin: miter; stroke-linecap: square"/>
   </g>
   <g id="patch_4">
    <path d="M 408.185625 288.430125 
L 408.185625 22.318125 
" style="fill: none; stroke: #000000; stroke-width: 0.8; stroke-linejoin: miter; stroke-linecap: square"/>
   </g>
   <g id="patch_5">
    <path d="M 51.065625 288.430125 
L 408.185625 288.430125 
" style="fill: none; stroke: #000000; stroke-width: 0.8; stroke-linejoin: miter; stroke-linecap: square"/>
   </g>
   <g id="patch_6">
    <path d="M 51.065625 22.318125 
L 408.185625 22.318125 
" style="fill: none; stroke: #000000; stroke-width: 0.8; stroke-linejoin: miter; stroke-linecap: square"/>
   </g>
   <g id="text_14">
    <!-- FCNN Zoom -->
    <g transform="translate(193.80375 16.318125) scale(0.12 -0.12)">
     <defs>
      <path id="DejaVuSans-46" d="M 628 4666 
L 3309 4666 
L 3309 4134 
L 1259 4134 
L 1259 2759 
L 3109 2759 
L 3109 2228 
L 1259 2228 
L 1259 0 
L 628 0 
L 628 4666 
z
" transform="scale(0.015625)"/>
      <path id="DejaVuSans-43" d="M 4122 4306 
L 4122 3641 
Q 3803 3938 3442 4084 
Q 3081 4231 2675 4231 
Q 1875 4231 1450 3742 
Q 1025 3253 1025 2328 
Q 1025 1406 1450 917 
Q 1875 428 2675 428 
Q 3081 428 3442 575 
Q 3803 722 4122 1019 
L 4122 359 
Q 3791 134 3420 21 
Q 3050 -91 2638 -91 
Q 1578 -91 968 557 
Q 359 1206 359 2328 
Q 359 3453 968 4101 
Q 1578 4750 2638 4750 
Q 3056 4750 3426 4639 
Q 3797 4528 4122 4306 
z
" transform="scale(0.015625)"/>
      <path id="DejaVuSans-4e" d="M 628 4666 
L 1478 4666 
L 3547 763 
L 3547 4666 
L 4159 4666 
L 4159 0 
L 3309 0 
L 1241 3903 
L 1241 0 
L 628 0 
L 628 4666 
z
" transform="scale(0.015625)"/>
      <path id="DejaVuSans-20" transform="scale(0.015625)"/>
      <path id="DejaVuSans-5a" d="M 359 4666 
L 4025 4666 
L 4025 4184 
L 1075 531 
L 4097 531 
L 4097 0 
L 288 0 
L 288 481 
L 3238 4134 
L 359 4134 
L 359 4666 
z
" transform="scale(0.015625)"/>
      <path id="DejaVuSans-6d" d="M 3328 2828 
Q 3544 3216 3844 3400 
Q 4144 3584 4550 3584 
Q 5097 3584 5394 3201 
Q 5691 2819 5691 2113 
L 5691 0 
L 5113 0 
L 5113 2094 
Q 5113 2597 4934 2840 
Q 4756 3084 4391 3084 
Q 3944 3084 3684 2787 
Q 3425 2491 3425 1978 
L 3425 0 
L 2847 0 
L 2847 2094 
Q 2847 2600 2669 2842 
Q 2491 3084 2119 3084 
Q 1678 3084 1418 2786 
Q 1159 2488 1159 1978 
L 1159 0 
L 581 0 
L 581 3500 
L 1159 3500 
L 1159 2956 
Q 1356 3278 1631 3431 
Q 1906 3584 2284 3584 
Q 2666 3584 2933 3390 
Q 3200 3197 3328 2828 
z
" transform="scale(0.015625)"/>
     </defs>
     <use xlink:href="#DejaVuSans-46"/>
     <use xlink:href="#DejaVuSans-43" x="57.519531"/>
     <use xlink:href="#DejaVuSans-4e" x="127.34375"/>
     <use xlink:href="#DejaVuSans-4e" x="202.148438"/>
     <use xlink:href="#DejaVuSans-20" x="276.953125"/>
     <use xlink:href="#DejaVuSans-5a" x="308.740234"/>
     <use xlink:href="#DejaVuSans-6f" x="377.246094"/>
     <use xlink:href="#DejaVuSans-6f" x="438.427734"/>
     <use xlink:href="#DejaVuSans-6d" x="499.609375"/>
    </g>
   </g>
  </g>
 </g>
 <defs>
  <clipPath id="p4b87da4a53">
   <rect x="51.065625" y="22.318125" width="357.12" height="266.112"/>
  </clipPath>
 </defs>
</svg>
